SplineFontDB: 3.2
FontName: SourceCodeProShr-Italic
FullName: Source Code Pro Share Italic
FamilyName: Source Code Pro Share
Weight: Book
Copyright: (c) 2023 Adobe (http://www.adobe.com/), with Reserved Font Name `Source'\n"Fair and Share" tax glyphs by Vector Hasting under Creative Commons 4.0 BY-SA
Version: 1.026;hotconv 1.1.0;makeotfexe 2.6.0
ItalicAngle: -10.979
UnderlinePosition: -76.8
UnderlineWidth: 51.2
Ascent: 819
Descent: 205
InvalidEm: 0
sfntRevision: 0x000106a8
LayerCount: 2
Layer: 0 1 "Back" 1
Layer: 1 1 "Fore" 0
XUID: [1021 508 542950195 2011]
BaseHoriz: 2 'ideo' 'romn'
BaseScript: 'DFLT' 1  -174 0
BaseScript: 'cyrl' 1  -174 0
BaseScript: 'grek' 1  -174 0
BaseScript: 'latn' 1  -174 0
StyleMap: 0x0001
FSType: 0
OS2Version: 4
OS2_WeightWidthSlopeOnly: 0
OS2_UseTypoMetrics: 1
CreationTime: 1680669369
ModificationTime: 1758699998
PfmFamily: 17
TTFWeight: 400
TTFWidth: 5
LineGap: 0
VLineGap: 0
Panose: 2 11 3 9 3 4 3 9 2 4
OS2TypoAscent: 1008
OS2TypoAOffset: 0
OS2TypoDescent: -280
OS2TypoDOffset: 0
OS2TypoLinegap: 0
OS2WinAscent: 1085
OS2WinAOffset: 0
OS2WinDescent: 465
OS2WinDOffset: 0
HheadAscent: 1008
HheadAOffset: 0
HheadDescent: -280
HheadDOffset: 0
OS2SubXSize: 666
OS2SubYSize: 614
OS2SubXOff: -15
OS2SubYOff: 77
OS2SupXSize: 666
OS2SupYSize: 614
OS2SupXOff: 70
OS2SupYOff: 358
OS2StrikeYSize: 51
OS2StrikeYPos: 298
OS2CapHeight: 676
OS2XHeight: 498
OS2Vendor: 'ADBO'
OS2CodePages: 60000193.00000000
OS2UnicodeRanges: 20000077.02003803.00000000.00000000
Lookup: 1 0 0 "'ss05' Style Set 5 lookup 0" { "'ss05' Style Set 5 lookup 0 subtable"  } ['cv06' ('DFLT' <'dflt' > 'cyrl' <'dflt' > 'grek' <'dflt' > 'latn' <'NSM ' 'SKS ' 'dflt' > ) 'locl' ('latn' <'NSM ' 'SKS ' > ) 'salt' ('DFLT' <'dflt' > 'cyrl' <'dflt' > 'grek' <'dflt' > 'latn' <'NSM ' 'SKS ' 'dflt' > ) 'ss05' ('DFLT' <'dflt' > 'cyrl' <'dflt' > 'grek' <'dflt' > 'latn' <'NSM ' 'SKS ' 'dflt' > ) ]
Lookup: 2 0 0 "Multiple Substitution lookup 1" { "Multiple Substitution lookup 1 subtable"  } []

StartChar: .notdef
Encoding: 1114112 -1 0
Width: 614
GlyphClass: 1
Flags: W
LayerCount: 2
Fore
SplineSet
67 0 m 1,0,-1
 67 676 l 1,1,-1
 548 676 l 1,2,-1
 548 0 l 1,3,-1
 67 0 l 1,0,-1
169 56 m 1,4,-1
 442 56 l 1,5,-1
 365 198 l 1,6,-1
 309 302 l 1,7,-1
 305 302 l 1,8,-1
 249 198 l 1,9,-1
 169 56 l 1,4,-1
130 108 m 1,10,-1
 263 348 l 1,11,-1
 130 591 l 1,12,-1
 130 108 l 1,10,-1
305 394 m 1,13,-1
 309 394 l 1,14,-1
 359 489 l 1,15,-1
 431 617 l 1,16,-1
 181 617 l 1,17,-1
 253 489 l 1,18,-1
 305 394 l 1,13,-1
351 348 m 1,19,-1
 483 108 l 1,20,-1
 483 591 l 1,21,-1
 351 348 l 1,19,-1
EndSplineSet
EndChar

StartChar: A
Encoding: 65 65 2
Width: 614
GlyphClass: 2
Flags: W
AnchorPoint: "Anchor-6" 459 0 basechar 0
AnchorPoint: "Anchor-3" 256 -20 basechar 0
AnchorPoint: "Anchor-2" 476 0 basechar 0
AnchorPoint: "Anchor-0" 382 692 basechar 0
LayerCount: 2
Fore
SplineSet
-24 0 m 1,0,-1
 341 672 l 1,1,-1
 432 672 l 1,2,-1
 515 0 l 1,3,-1
 433 0 l 1,4,-1
 395 386 l 2,5,6
 390 440 390 440 385.5 496 c 128,-1,7
 381 552 381 552 375 605 c 1,8,-1
 371 605 l 1,9,10
 342 550 342 550 316.5 497 c 128,-1,11
 291 444 291 444 262 388 c 2,12,-1
 63 0 l 1,13,-1
 -24 0 l 1,0,-1
140 210 m 1,14,-1
 156 271 l 1,15,-1
 451 271 l 1,16,-1
 439 210 l 1,17,-1
 140 210 l 1,14,-1
EndSplineSet
EndChar

StartChar: B
Encoding: 66 66 3
Width: 614
GlyphClass: 2
Flags: W
AnchorPoint: "Anchor-3" 256 -20 basechar 0
AnchorPoint: "Anchor-0" 383 692 basechar 0
LayerCount: 2
Fore
SplineSet
42 0 m 1,0,-1
 177 672 l 1,1,-1
 351 672 l 2,2,3
 419 672 419 672 465.5 655 c 128,-1,4
 512 638 512 638 536 605 c 128,-1,5
 560 572 560 572 560 523 c 0,6,7
 560 478 560 478 538 443.5 c 128,-1,8
 516 409 516 409 481.5 386.5 c 128,-1,9
 447 364 447 364 410 355 c 1,10,-1
 410 351 l 1,11,12
 445 343 445 343 472.5 325.5 c 128,-1,13
 500 308 500 308 516 281 c 128,-1,14
 532 254 532 254 532 215 c 0,15,16
 532 140 532 140 496 92.5 c 128,-1,17
 460 45 460 45 397 22.5 c 128,-1,18
 334 0 334 0 254 0 c 2,19,-1
 42 0 l 1,0,-1
199 387 m 1,20,-1
 291 387 l 2,21,22
 386 387 386 387 432 421.5 c 128,-1,23
 478 456 478 456 478 512 c 0,24,25
 478 558 478 558 445 581 c 128,-1,26
 412 604 412 604 332 604 c 2,27,-1
 244 604 l 1,28,-1
 199 387 l 1,20,-1
135 68 m 1,29,-1
 248 68 l 2,30,31
 311 68 311 68 357.5 81.5 c 128,-1,32
 404 95 404 95 429.5 127 c 128,-1,33
 455 159 455 159 455 211 c 0,34,35
 455 262 455 262 415.5 290.5 c 128,-1,36
 376 319 376 319 301 319 c 2,37,-1
 186 319 l 1,38,-1
 135 68 l 1,29,-1
EndSplineSet
EndChar

StartChar: C
Encoding: 67 67 4
Width: 614
GlyphClass: 2
Flags: W
AnchorPoint: "Anchor-3" 298 -20 basechar 0
AnchorPoint: "Anchor-2" 300 0 basechar 0
AnchorPoint: "Anchor-0" 417 692 basechar 0
LayerCount: 2
Fore
SplineSet
317 -12 m 0,0,1
 240 -12 240 -12 187 22 c 128,-1,2
 134 56 134 56 106.5 117 c 128,-1,3
 79 178 79 178 79 259 c 0,4,5
 79 322 79 322 95.5 383.5 c 128,-1,6
 112 445 112 445 141.5 499.5 c 128,-1,7
 171 554 171 554 214 595.5 c 128,-1,8
 257 637 257 637 310.5 660.5 c 128,-1,9
 364 684 364 684 426 684 c 0,10,11
 483 684 483 684 524.5 656.5 c 128,-1,12
 566 629 566 629 592 585 c 1,13,-1
 536 543 l 1,14,15
 517 577 517 577 489 596 c 128,-1,16
 461 615 461 615 422 615 c 0,17,18
 374 615 374 615 333.5 595 c 128,-1,19
 293 575 293 575 260.5 540 c 128,-1,20
 228 505 228 505 205.5 460 c 128,-1,21
 183 415 183 415 172 365 c 128,-1,22
 161 315 161 315 161 266 c 0,23,24
 161 205 161 205 178.5 158 c 128,-1,25
 196 111 196 111 233.5 83.5 c 128,-1,26
 271 56 271 56 332 56 c 0,27,28
 372 56 372 56 406.5 72.5 c 128,-1,29
 441 89 441 89 474 117 c 1,30,-1
 511 66 l 1,31,32
 485 44 485 44 456 26.5 c 128,-1,33
 427 9 427 9 392.5 -1.5 c 128,-1,34
 358 -12 358 -12 317 -12 c 0,0,1
EndSplineSet
EndChar

StartChar: D
Encoding: 68 68 5
Width: 614
GlyphClass: 2
Flags: W
AnchorPoint: "Anchor-3" 236 -20 basechar 0
AnchorPoint: "Anchor-2" 229 0 basechar 0
AnchorPoint: "Anchor-0" 373 692 basechar 0
LayerCount: 2
Fore
SplineSet
23 0 m 1,0,-1
 157 672 l 1,1,-1
 291 672 l 2,2,3
 428 672 428 672 499 603.5 c 128,-1,4
 570 535 570 535 570 410 c 0,5,6
 570 319 570 319 545.5 243.5 c 128,-1,7
 521 168 521 168 473.5 113.5 c 128,-1,8
 426 59 426 59 358 29.5 c 128,-1,9
 290 0 290 0 204 0 c 2,10,-1
 23 0 l 1,0,-1
115 66 m 1,11,-1
 204 66 l 2,12,13
 293 66 293 66 356.5 107 c 128,-1,14
 420 148 420 148 454 224.5 c 128,-1,15
 488 301 488 301 488 404 c 0,16,17
 488 501 488 501 437 554 c 128,-1,18
 386 607 386 607 288 607 c 2,19,-1
 223 607 l 1,20,-1
 115 66 l 1,11,-1
EndSplineSet
EndChar

StartChar: E
Encoding: 69 69 6
Width: 614
GlyphClass: 2
Flags: W
AnchorPoint: "Anchor-6" 404 0 basechar 0
AnchorPoint: "Anchor-3" 286 -20 basechar 0
AnchorPoint: "Anchor-2" 296 0 basechar 0
AnchorPoint: "Anchor-0" 416 692 basechar 0
LayerCount: 2
Fore
SplineSet
61 0 m 1,0,-1
 197 672 l 1,1,-1
 609 672 l 1,2,-1
 596 605 l 1,3,-1
 261 605 l 1,4,-1
 218 387 l 1,5,-1
 498 387 l 1,6,-1
 484 319 l 1,7,-1
 206 319 l 1,8,-1
 154 68 l 1,9,-1
 498 68 l 1,10,-1
 484 0 l 1,11,-1
 61 0 l 1,0,-1
EndSplineSet
EndChar

StartChar: F
Encoding: 70 70 7
Width: 614
GlyphClass: 2
Flags: W
AnchorPoint: "Anchor-3" 127 -20 basechar 0
AnchorPoint: "Anchor-2" 123 0 basechar 0
AnchorPoint: "Anchor-0" 427 692 basechar 0
LayerCount: 2
Fore
SplineSet
81 0 m 1,0,-1
 215 672 l 1,1,-1
 624 672 l 1,2,-1
 609 605 l 1,3,-1
 281 605 l 1,4,-1
 234 372 l 1,5,-1
 509 372 l 1,6,-1
 495 304 l 1,7,-1
 222 304 l 1,8,-1
 161 0 l 1,9,-1
 81 0 l 1,0,-1
EndSplineSet
EndChar

StartChar: G
Encoding: 71 71 8
Width: 614
GlyphClass: 2
Flags: W
AnchorPoint: "Anchor-3" 305 -20 basechar 0
AnchorPoint: "Anchor-0" 406 692 basechar 0
LayerCount: 2
Fore
SplineSet
307 -12 m 0,0,1
 227 -12 227 -12 173 21.5 c 128,-1,2
 119 55 119 55 90.5 116 c 128,-1,3
 62 177 62 177 62 259 c 0,4,5
 62 339 62 339 87 414.5 c 128,-1,6
 112 490 112 490 158 551 c 128,-1,7
 204 612 204 612 269 648 c 128,-1,8
 334 684 334 684 416 684 c 0,9,10
 476 684 476 684 518 656 c 128,-1,11
 560 628 560 628 585 585 c 1,12,-1
 528 543 l 1,13,14
 509 576 509 576 481 595.5 c 128,-1,15
 453 615 453 615 411 615 c 0,16,17
 362 615 362 615 320 595 c 128,-1,18
 278 575 278 575 245.5 540 c 128,-1,19
 213 505 213 505 190.5 460 c 128,-1,20
 168 415 168 415 156 365 c 128,-1,21
 144 315 144 315 144 266 c 0,22,23
 144 207 144 207 161.5 159.5 c 128,-1,24
 179 112 179 112 217.5 83.5 c 128,-1,25
 256 55 256 55 318 55 c 0,26,27
 355 55 355 55 384.5 67.5 c 128,-1,28
 414 80 414 80 433 96 c 1,29,-1
 470 282 l 1,30,-1
 332 282 l 1,31,-1
 345 347 l 1,32,-1
 556 347 l 1,33,-1
 498 56 l 1,34,35
 461 25 461 25 412.5 6.5 c 128,-1,36
 364 -12 364 -12 307 -12 c 0,0,1
EndSplineSet
EndChar

StartChar: H
Encoding: 72 72 9
Width: 614
GlyphClass: 2
Flags: W
AnchorPoint: "Anchor-3" 240 -20 basechar 0
AnchorPoint: "Anchor-2" 61 0 basechar 0
AnchorPoint: "Anchor-0" 382 692 basechar 0
LayerCount: 2
Fore
SplineSet
18 0 m 1,0,-1
 153 672 l 1,1,-1
 232 672 l 1,2,-1
 175 388 l 1,3,-1
 466 388 l 1,4,-1
 522 672 l 1,5,-1
 602 672 l 1,6,-1
 468 0 l 1,7,-1
 388 0 l 1,8,-1
 453 319 l 1,9,-1
 162 319 l 1,10,-1
 98 0 l 1,11,-1
 18 0 l 1,0,-1
EndSplineSet
EndChar

StartChar: I
Encoding: 73 73 10
Width: 614
GlyphClass: 2
Flags: W
AnchorPoint: "Anchor-6" 244 0 basechar 0
AnchorPoint: "Anchor-3" 240 -20 basechar 0
AnchorPoint: "Anchor-2" 244 0 basechar 0
AnchorPoint: "Anchor-0" 382 692 basechar 0
LayerCount: 2
Fore
SplineSet
36 0 m 1,0,-1
 50 68 l 1,1,-1
 216 68 l 1,2,-1
 324 605 l 1,3,-1
 156 605 l 1,4,-1
 171 672 l 1,5,-1
 587 672 l 1,6,-1
 572 605 l 1,7,-1
 403 605 l 1,8,-1
 295 68 l 1,9,-1
 465 68 l 1,10,-1
 450 0 l 1,11,-1
 36 0 l 1,0,-1
EndSplineSet
EndChar

StartChar: J
Encoding: 74 74 11
Width: 614
GlyphClass: 2
Flags: W
AnchorPoint: "Anchor-3" 234 -20 basechar 0
AnchorPoint: "Anchor-0" 380 692 basechar 0
LayerCount: 2
Fore
SplineSet
214 -12 m 0,0,1
 145 -12 145 -12 97.5 19 c 128,-1,2
 50 50 50 50 24 92 c 1,3,-1
 77 139 l 1,4,5
 102 101 102 101 135.5 78.5 c 128,-1,6
 169 56 169 56 217 56 c 0,7,8
 289 56 289 56 329 99.5 c 128,-1,9
 369 143 369 143 386 232 c 2,10,-1
 461 605 l 1,11,-1
 179 605 l 1,12,-1
 193 672 l 1,13,-1
 553 672 l 1,14,-1
 462 216 l 2,15,16
 448 144 448 144 416.5 92.5 c 128,-1,17
 385 41 385 41 335.5 14.5 c 128,-1,18
 286 -12 286 -12 214 -12 c 0,0,1
EndSplineSet
EndChar

StartChar: K
Encoding: 75 75 12
Width: 614
GlyphClass: 2
Flags: W
AnchorPoint: "Anchor-3" 294 -20 basechar 0
AnchorPoint: "Anchor-0" 395 692 basechar 0
LayerCount: 2
Fore
SplineSet
633 672 m 1,0,-1
 166 217 l 1,1,-1
 122 0 l 1,2,-1
 43 0 l 1,3,-1
 177 672 l 1,4,-1
 257 672 l 1,5,-1
 186 327 l 1,6,-1
 190 327 l 1,7,-1
 543 672 l 1,8,-1
 633 672 l 1,0,-1
288 358 m 1,9,-1
 346 419 l 1,10,-1
 531 0 l 1,11,-1
 442 0 l 1,12,-1
 288 358 l 1,9,-1
EndSplineSet
EndChar

StartChar: L
Encoding: 76 76 13
Width: 614
GlyphClass: 2
Flags: W
AnchorPoint: "Anchor-4" 209 345 basechar 0
AnchorPoint: "Anchor-3" 312 -20 basechar 0
AnchorPoint: "Anchor-2" 323 0 basechar 0
AnchorPoint: "Anchor-0" 282 692 basechar 0
LayerCount: 2
Fore
SplineSet
101 0 m 1,0,-1
 236 672 l 1,1,-1
 315 672 l 1,2,-1
 195 68 l 1,3,-1
 527 68 l 1,4,-1
 514 0 l 1,5,-1
 101 0 l 1,0,-1
EndSplineSet
EndChar

StartChar: M
Encoding: 77 77 14
Width: 614
GlyphClass: 2
Flags: W
AnchorPoint: "Anchor-3" 240 -20 basechar 0
AnchorPoint: "Anchor-2" 435 0 basechar 0
AnchorPoint: "Anchor-0" 382 692 basechar 0
LayerCount: 2
Fore
SplineSet
15 0 m 1,0,-1
 150 672 l 1,1,-1
 246 672 l 1,2,-1
 285 368 l 1,3,-1
 291 268 l 1,4,-1
 295 268 l 1,5,-1
 340 367 l 1,6,-1
 508 672 l 1,7,-1
 603 672 l 1,8,-1
 470 0 l 1,9,-1
 395 0 l 1,10,-1
 475 395 l 2,11,12
 479 414 479 414 485.5 438 c 128,-1,13
 492 462 492 462 499 487.5 c 128,-1,14
 506 513 506 513 512.5 537.5 c 128,-1,15
 519 562 519 562 525 582 c 1,16,-1
 521 582 l 1,17,18
 516 571 516 571 504 547 c 128,-1,19
 492 523 492 523 478.5 497 c 128,-1,20
 465 471 465 471 455 452 c 2,21,-1
 311 182 l 1,22,-1
 246 182 l 1,23,-1
 211 446 l 2,24,25
 210 454 210 454 208 473 c 128,-1,26
 206 492 206 492 204 514 c 128,-1,27
 202 536 202 536 200.5 554 c 128,-1,28
 199 572 199 572 197 582 c 1,29,-1
 193 582 l 1,30,31
 190 552 190 552 186 518 c 128,-1,32
 182 484 182 484 178 453.5 c 128,-1,33
 174 423 174 423 170 403 c 2,34,-1
 88 0 l 1,35,-1
 15 0 l 1,0,-1
EndSplineSet
EndChar

StartChar: N
Encoding: 78 78 15
Width: 614
GlyphClass: 2
Flags: W
AnchorPoint: "Anchor-3" 255 -20 basechar 0
AnchorPoint: "Anchor-2" 427 0 basechar 0
AnchorPoint: "Anchor-0" 382 692 basechar 0
LayerCount: 2
Fore
SplineSet
26 0 m 1,0,-1
 160 672 l 1,1,-1
 241 672 l 1,2,-1
 378 240 l 1,3,-1
 416 101 l 1,4,-1
 420 101 l 1,5,6
 423 126 423 126 426.5 153.5 c 128,-1,7
 430 181 430 181 434 209 c 128,-1,8
 438 237 438 237 442 262 c 128,-1,9
 446 287 446 287 451 308 c 2,10,-1
 522 672 l 1,11,-1
 598 672 l 1,12,-1
 464 0 l 1,13,-1
 384 0 l 1,14,-1
 246 432 l 1,15,-1
 208 571 l 1,16,-1
 204 571 l 1,17,18
 200 537 200 537 194.5 500.5 c 128,-1,19
 189 464 189 464 183.5 428 c 128,-1,20
 178 392 178 392 172 359 c 2,21,-1
 101 0 l 1,22,-1
 26 0 l 1,0,-1
EndSplineSet
EndChar

StartChar: O
Encoding: 79 79 16
Width: 614
GlyphClass: 2
Flags: W
AnchorPoint: "Anchor-6" 244 0 basechar 0
AnchorPoint: "Anchor-5" 375 662 basechar 0
AnchorPoint: "Anchor-3" 239 -20 basechar 0
AnchorPoint: "Anchor-2" 244 0 basechar 0
AnchorPoint: "Anchor-0" 382 692 basechar 0
LayerCount: 2
Fore
SplineSet
260 -12 m 0,0,1
 191 -12 191 -12 142.5 21 c 128,-1,2
 94 54 94 54 68 113.5 c 128,-1,3
 42 173 42 173 42 253 c 0,4,5
 42 318 42 318 56.5 380 c 128,-1,6
 71 442 71 442 98.5 497 c 128,-1,7
 126 552 126 552 165 594 c 128,-1,8
 204 636 204 636 254 660 c 128,-1,9
 304 684 304 684 364 684 c 0,10,11
 433 684 433 684 481 651 c 128,-1,12
 529 618 529 618 555 558.5 c 128,-1,13
 581 499 581 499 581 419 c 0,14,15
 581 354 581 354 566.5 292 c 128,-1,16
 552 230 552 230 525 175 c 128,-1,17
 498 120 498 120 459 78 c 128,-1,18
 420 36 420 36 369.5 12 c 128,-1,19
 319 -12 319 -12 260 -12 c 0,0,1
267 56 m 0,20,21
 311 56 311 56 347.5 77 c 128,-1,22
 384 98 384 98 412.5 134.5 c 128,-1,23
 441 171 441 171 460 218 c 128,-1,24
 479 265 479 265 489.5 318 c 128,-1,25
 500 371 500 371 500 423 c 0,26,27
 500 481 500 481 484.5 524.5 c 128,-1,28
 469 568 469 568 437.5 591.5 c 128,-1,29
 406 615 406 615 356 615 c 0,30,31
 312 615 312 615 276 594 c 128,-1,32
 240 573 240 573 211 537 c 128,-1,33
 182 501 182 501 163 454 c 128,-1,34
 144 407 144 407 133.5 354.5 c 128,-1,35
 123 302 123 302 123 250 c 0,36,37
 123 191 123 191 139 147 c 128,-1,38
 155 103 155 103 186.5 79.5 c 128,-1,39
 218 56 218 56 267 56 c 0,20,21
EndSplineSet
EndChar

StartChar: P
Encoding: 80 80 17
Width: 614
GlyphClass: 2
Flags: W
AnchorPoint: "Anchor-3" 99 -20 basechar 0
AnchorPoint: "Anchor-0" 393 692 basechar 0
LayerCount: 2
Fore
SplineSet
53 0 m 1,0,-1
 187 672 l 1,1,-1
 375 672 l 2,2,3
 438 672 438 672 486 655 c 128,-1,4
 534 638 534 638 560.5 602 c 128,-1,5
 587 566 587 566 587 508 c 0,6,7
 587 447 587 447 565.5 401.5 c 128,-1,8
 544 356 544 356 505 327 c 128,-1,9
 466 298 466 298 412 284 c 128,-1,10
 358 270 358 270 294 270 c 2,11,-1
 186 270 l 1,12,-1
 132 0 l 1,13,-1
 53 0 l 1,0,-1
200 335 m 1,14,-1
 294 335 l 2,15,16
 399 335 399 335 453 376 c 128,-1,17
 507 417 507 417 507 498 c 0,18,19
 507 556 507 556 468 582 c 128,-1,20
 429 608 429 608 354 608 c 2,21,-1
 253 608 l 1,22,-1
 200 335 l 1,14,-1
EndSplineSet
EndChar

StartChar: Q
Encoding: 81 81 18
Width: 614
GlyphClass: 2
Flags: W
AnchorPoint: "Anchor-0" 382 692 basechar 0
LayerCount: 2
Fore
SplineSet
260 -12 m 0,0,1
 191 -12 191 -12 142.5 21 c 128,-1,2
 94 54 94 54 68 113.5 c 128,-1,3
 42 173 42 173 42 253 c 0,4,5
 42 318 42 318 56.5 380 c 128,-1,6
 71 442 71 442 98.5 497 c 128,-1,7
 126 552 126 552 165 594 c 128,-1,8
 204 636 204 636 254 660 c 128,-1,9
 304 684 304 684 364 684 c 0,10,11
 433 684 433 684 481 651 c 128,-1,12
 529 618 529 618 555 558.5 c 128,-1,13
 581 499 581 499 581 419 c 0,14,15
 581 354 581 354 566.5 292 c 128,-1,16
 552 230 552 230 525 175 c 128,-1,17
 498 120 498 120 459 78 c 128,-1,18
 420 36 420 36 369.5 12 c 128,-1,19
 319 -12 319 -12 260 -12 c 0,0,1
268 52 m 0,20,21
 311 52 311 52 347.5 73 c 128,-1,22
 384 94 384 94 412.5 130.5 c 128,-1,23
 441 167 441 167 460 214.5 c 128,-1,24
 479 262 479 262 489.5 315.5 c 128,-1,25
 500 369 500 369 500 423 c 0,26,27
 500 481 500 481 484.5 524.5 c 128,-1,28
 469 568 469 568 437.5 591.5 c 128,-1,29
 406 615 406 615 356 615 c 0,30,31
 312 615 312 615 276 594 c 128,-1,32
 240 573 240 573 211 537 c 128,-1,33
 182 501 182 501 163 454 c 128,-1,34
 144 407 144 407 133.5 354.5 c 128,-1,35
 123 302 123 302 123 250 c 0,36,37
 123 189 123 189 139 144.5 c 128,-1,38
 155 100 155 100 187 76 c 128,-1,39
 219 52 219 52 268 52 c 0,20,21
408 -168 m 0,40,41
 333 -168 333 -168 278 -123.5 c 128,-1,42
 223 -79 223 -79 206 16 c 1,43,-1
 285 12 l 1,44,45
 294 -44 294 -44 329.5 -72.5 c 128,-1,46
 365 -101 365 -101 416 -101 c 0,47,48
 443 -101 443 -101 462.5 -97 c 128,-1,49
 482 -93 482 -93 498 -88 c 1,50,-1
 512 -151 l 1,51,52
 494 -158 494 -158 467 -163 c 128,-1,53
 440 -168 440 -168 408 -168 c 0,40,41
EndSplineSet
EndChar

StartChar: R
Encoding: 82 82 19
Width: 614
GlyphClass: 2
Flags: W
AnchorPoint: "Anchor-3" 266 -20 basechar 0
AnchorPoint: "Anchor-2" 78 0 basechar 0
AnchorPoint: "Anchor-0" 379 692 basechar 0
LayerCount: 2
Fore
SplineSet
36 0 m 1,0,-1
 170 672 l 1,1,-1
 351 672 l 2,2,3
 414 672 414 672 462 656 c 128,-1,4
 510 640 510 640 536.5 605 c 128,-1,5
 563 570 563 570 563 513 c 0,6,7
 563 457 563 457 541.5 415 c 128,-1,8
 520 373 520 373 482 343.5 c 128,-1,9
 444 314 444 314 394.5 299.5 c 128,-1,10
 345 285 345 285 291 285 c 2,11,-1
 172 285 l 1,12,-1
 115 0 l 1,13,-1
 36 0 l 1,0,-1
185 349 m 1,14,-1
 283 349 l 2,15,16
 379 349 379 349 430.5 391 c 128,-1,17
 482 433 482 433 482 505 c 0,18,19
 482 561 482 561 445 584.5 c 128,-1,20
 408 608 408 608 333 608 c 2,21,-1
 236 608 l 1,22,-1
 185 349 l 1,14,-1
281 297 m 1,23,-1
 349 330 l 1,24,-1
 484 0 l 1,25,-1
 396 0 l 1,26,-1
 281 297 l 1,23,-1
EndSplineSet
EndChar

StartChar: S
Encoding: 83 83 20
Width: 614
GlyphClass: 2
Flags: W
AnchorPoint: "Anchor-3" 266 -20 basechar 0
AnchorPoint: "Anchor-2" 266 0 basechar 0
AnchorPoint: "Anchor-0" 367 692 basechar 0
LayerCount: 2
Fore
SplineSet
267 -12 m 0,0,1
 187 -12 187 -12 130 21 c 128,-1,2
 73 54 73 54 38 109 c 1,3,-1
 92 153 l 1,4,5
 124 107 124 107 167 81.5 c 128,-1,6
 210 56 210 56 267 56 c 0,7,8
 310 56 310 56 343 71.5 c 128,-1,9
 376 87 376 87 395.5 115 c 128,-1,10
 415 143 415 143 415 181 c 256,11,12
 415 219 415 219 392.5 245.5 c 128,-1,13
 370 272 370 272 332 294 c 2,14,-1
 254 340 l 2,15,16
 211 366 211 366 178 405.5 c 128,-1,17
 145 445 145 445 145 504 c 0,18,19
 145 555 145 555 171.5 596 c 128,-1,20
 198 637 198 637 244.5 660.5 c 128,-1,21
 291 684 291 684 351 684 c 0,22,23
 417 684 417 684 468.5 655.5 c 128,-1,24
 520 627 520 627 550 585 c 1,25,-1
 497 541 l 1,26,27
 473 572 473 572 435 594 c 128,-1,28
 397 616 397 616 347 616 c 0,29,30
 311 616 311 616 284 601.5 c 128,-1,31
 257 587 257 587 241.5 563 c 128,-1,32
 226 539 226 539 226 510 c 0,33,34
 226 472 226 472 249.5 447.5 c 128,-1,35
 273 423 273 423 305 403 c 2,36,-1
 386 355 l 2,37,38
 418 335 418 335 443 312 c 128,-1,39
 468 289 468 289 482 258.5 c 128,-1,40
 496 228 496 228 496 188 c 0,41,42
 496 125 496 125 465.5 80.5 c 128,-1,43
 435 36 435 36 382.5 12 c 128,-1,44
 330 -12 330 -12 267 -12 c 0,0,1
EndSplineSet
EndChar

StartChar: T
Encoding: 84 84 21
Width: 614
GlyphClass: 2
Flags: W
AnchorPoint: "Anchor-3" 241 -20 basechar 0
AnchorPoint: "Anchor-2" 245 0 basechar 0
AnchorPoint: "Anchor-0" 382 692 basechar 0
LayerCount: 2
Fore
SplineSet
203 0 m 1,0,-1
 324 603 l 1,1,-1
 100 603 l 1,2,-1
 114 672 l 1,3,-1
 640 672 l 1,4,-1
 626 603 l 1,5,-1
 402 603 l 1,6,-1
 283 0 l 1,7,-1
 203 0 l 1,0,-1
EndSplineSet
EndChar

StartChar: U
Encoding: 85 85 22
Width: 614
GlyphClass: 2
Flags: W
AnchorPoint: "Anchor-6" 244 0 basechar 0
AnchorPoint: "Anchor-5" 466 682 basechar 0
AnchorPoint: "Anchor-3" 239 -20 basechar 0
AnchorPoint: "Anchor-2" 244 0 basechar 0
AnchorPoint: "Anchor-0" 382 692 basechar 0
LayerCount: 2
Fore
SplineSet
261 -12 m 0,0,1
 167 -12 167 -12 116.5 42.5 c 128,-1,2
 66 97 66 97 66 190 c 0,3,4
 66 215 66 215 68.5 237 c 128,-1,5
 71 259 71 259 76 286 c 2,6,-1
 153 672 l 1,7,-1
 232 672 l 1,8,-1
 156 284 l 2,9,10
 150 260 150 260 147 239.5 c 128,-1,11
 144 219 144 219 144 200 c 0,12,13
 144 132 144 132 176.5 94 c 128,-1,14
 209 56 209 56 271 56 c 0,15,16
 310 56 310 56 343 75 c 128,-1,17
 376 94 376 94 401.5 138.5 c 128,-1,18
 427 183 427 183 442 258 c 2,19,-1
 524 672 l 1,20,-1
 602 672 l 1,21,-1
 518 250 l 2,22,23
 499 152 499 152 462 95 c 128,-1,24
 425 38 425 38 373.5 13 c 128,-1,25
 322 -12 322 -12 261 -12 c 0,0,1
EndSplineSet
EndChar

StartChar: V
Encoding: 86 86 23
Width: 614
GlyphClass: 2
Flags: W
AnchorPoint: "Anchor-3" 239 -20 basechar 0
AnchorPoint: "Anchor-0" 378 692 basechar 0
LayerCount: 2
Fore
SplineSet
193 0 m 1,0,-1
 125 672 l 1,1,-1
 207 672 l 1,2,-1
 239 299 l 2,3,4
 243 245 243 245 247.5 189 c 128,-1,5
 252 133 252 133 256 78 c 1,6,-1
 260 78 l 1,7,8
 276 113 276 113 295.5 152 c 128,-1,9
 315 191 315 191 334 229 c 128,-1,10
 353 267 353 267 370 299 c 2,11,-1
 560 672 l 1,12,-1
 647 672 l 1,13,-1
 288 0 l 1,14,-1
 193 0 l 1,0,-1
EndSplineSet
EndChar

StartChar: W
Encoding: 87 87 24
Width: 614
GlyphClass: 2
Flags: W
AnchorPoint: "Anchor-3" 239 -20 basechar 0
AnchorPoint: "Anchor-0" 378 692 basechar 0
LayerCount: 2
Fore
SplineSet
55 0 m 1,0,-1
 96 673 l 1,1,-1
 172 673 l 1,2,-1
 137 209 l 2,3,4
 135 178 135 178 132 149.5 c 128,-1,5
 129 121 129 121 126.5 100 c 128,-1,6
 124 79 124 79 122 69 c 1,7,-1
 126 69 l 1,8,9
 129 77 129 77 136.5 97 c 128,-1,10
 144 117 144 117 154 140.5 c 128,-1,11
 164 164 164 164 172 184 c 128,-1,12
 180 204 180 204 183 211 c 2,13,-1
 305 485 l 1,14,-1
 373 485 l 1,15,-1
 392 256 l 2,16,17
 394 232 394 232 396.5 198 c 128,-1,18
 399 164 399 164 401.5 130 c 128,-1,19
 404 96 404 96 404 73 c 1,20,-1
 411 73 l 1,21,22
 413 80 413 80 417 100 c 128,-1,23
 421 120 421 120 426.5 143.5 c 128,-1,24
 432 167 432 167 437 187 c 128,-1,25
 442 207 442 207 444 214 c 2,26,-1
 582 673 l 1,27,-1
 657 673 l 1,28,-1
 449 0 l 1,29,-1
 350 0 l 1,30,-1
 332 272 l 2,31,32
 330 302 330 302 328 339.5 c 128,-1,33
 326 377 326 377 326 400 c 1,34,-1
 321 400 l 1,35,36
 314 375 314 375 301 338.5 c 128,-1,37
 288 302 288 302 274 272 c 2,38,-1
 158 0 l 1,39,-1
 55 0 l 1,0,-1
EndSplineSet
EndChar

StartChar: X
Encoding: 88 88 25
Width: 614
GlyphClass: 2
Flags: W
AnchorPoint: "Anchor-3" 246 -20 basechar 0
AnchorPoint: "Anchor-2" 459 0 basechar 0
AnchorPoint: "Anchor-0" 378 692 basechar 0
LayerCount: 2
Fore
SplineSet
-4 0 m 1,0,-1
 263 352 l 1,1,-1
 133 673 l 1,2,-1
 219 673 l 1,3,-1
 289 497 l 2,4,5
 297 475 297 475 306 446.5 c 128,-1,6
 315 418 315 418 323 395 c 1,7,-1
 327 395 l 1,8,9
 343 420 343 420 363 450 c 128,-1,10
 383 480 383 480 393 496 c 2,11,-1
 528 673 l 1,12,-1
 616 673 l 1,13,-1
 359 340 l 1,14,-1
 499 0 l 1,15,-1
 413 0 l 1,16,-1
 339 186 l 2,17,18
 334 198 334 198 327.5 217 c 128,-1,19
 321 236 321 236 313.5 255.5 c 128,-1,20
 306 275 306 275 301 290 c 1,21,-1
 297 290 l 1,22,23
 278 262 278 262 259.5 235 c 128,-1,24
 241 208 241 208 224 185 c 2,25,-1
 84 0 l 1,26,-1
 -4 0 l 1,0,-1
EndSplineSet
EndChar

StartChar: Y
Encoding: 89 89 26
Width: 614
GlyphClass: 2
Flags: W
AnchorPoint: "Anchor-6" 245 0 basechar 0
AnchorPoint: "Anchor-3" 240 -20 basechar 0
AnchorPoint: "Anchor-0" 369 692 basechar 0
LayerCount: 2
Fore
SplineSet
204 0 m 1,0,-1
 252 234 l 1,1,-1
 112 673 l 1,2,-1
 194 673 l 1,3,-1
 256 466 l 2,4,5
 268 425 268 425 281 379.5 c 128,-1,6
 294 334 294 334 302 299 c 1,7,-1
 306 299 l 1,8,9
 319 321 319 321 337 349.5 c 128,-1,10
 355 378 355 378 375 408 c 128,-1,11
 395 438 395 438 414 466 c 2,12,-1
 557 673 l 1,13,-1
 641 673 l 1,14,-1
 329 226 l 1,15,-1
 283 0 l 1,16,-1
 204 0 l 1,0,-1
EndSplineSet
EndChar

StartChar: Z
Encoding: 90 90 27
Width: 614
GlyphClass: 2
Flags: W
AnchorPoint: "Anchor-3" 272 -20 basechar 0
AnchorPoint: "Anchor-2" 290 0 basechar 0
AnchorPoint: "Anchor-0" 369 692 basechar 0
LayerCount: 2
Fore
SplineSet
118 44 m 1,0,-1
 95 67 l 1,1,-1
 510 67 l 1,2,-1
 496 0 l 1,3,-1
 17 0 l 1,4,-1
 27 47 l 1,5,-1
 505 636 l 1,6,-1
 534 606 l 1,7,-1
 130 606 l 1,8,-1
 143 673 l 1,9,-1
 600 673 l 1,10,-1
 590 625 l 1,11,-1
 118 44 l 1,0,-1
EndSplineSet
EndChar

StartChar: a
Encoding: 97 97 28
Width: 614
GlyphClass: 2
Flags: W
AnchorPoint: "Anchor-6" 409 0 basechar 0
AnchorPoint: "Anchor-3" 255 -20 basechar 0
AnchorPoint: "Anchor-2" 433 0 basechar 0
AnchorPoint: "Anchor-0" 362 519 basechar 0
LayerCount: 2
Fore
SplineSet
224 -12 m 0,0,1
 146 -12 146 -12 99.5 36.5 c 128,-1,2
 53 85 53 85 53 178 c 0,3,4
 53 246 53 246 74 305.5 c 128,-1,5
 95 365 95 365 133 411 c 128,-1,6
 171 457 171 457 220 483.5 c 128,-1,7
 269 510 269 510 327 510 c 0,8,9
 380 510 380 510 419.5 489.5 c 128,-1,10
 459 469 459 469 479 435 c 1,11,-1
 483 435 l 1,12,-1
 503 498 l 1,13,-1
 566 498 l 1,14,-1
 467 0 l 1,15,-1
 402 0 l 1,16,-1
 411 76 l 1,17,-1
 407 76 l 1,18,19
 368 36 368 36 320 12 c 128,-1,20
 272 -12 272 -12 224 -12 c 0,0,1
248 53 m 0,21,22
 289 53 289 53 333.5 77.5 c 128,-1,23
 378 102 378 102 419 150 c 1,24,-1
 465 371 l 1,25,26
 439 411 439 411 405.5 427.5 c 128,-1,27
 372 444 372 444 337 444 c 0,28,29
 295 444 295 444 257.5 423 c 128,-1,30
 220 402 220 402 192.5 367 c 128,-1,31
 165 332 165 332 149.5 286 c 128,-1,32
 134 240 134 240 134 190 c 0,33,34
 134 120 134 120 165.5 86.5 c 128,-1,35
 197 53 197 53 248 53 c 0,21,22
EndSplineSet
Substitution2: "'ss02' Style Set 2 lookup 25 subtable" a.a
Substitution2: "'sups' Superscript lookup 19 subtable" a.sups
EndChar

StartChar: b
Encoding: 98 98 29
Width: 614
GlyphClass: 2
Flags: W
AnchorPoint: "Anchor-3" 259 -20 basechar 0
AnchorPoint: "Anchor-0" 223 754 basechar 0
LayerCount: 2
Fore
SplineSet
276 -12 m 0,0,1
 227 -12 227 -12 187 9.5 c 128,-1,2
 147 31 147 31 124 62 c 1,3,-1
 121 62 l 1,4,-1
 102 0 l 1,5,-1
 37 0 l 1,6,-1
 182 729 l 1,7,-1
 261 729 l 1,8,-1
 221 535 l 1,9,-1
 195 425 l 1,10,-1
 198 425 l 1,11,12
 236 460 236 460 283.5 485 c 128,-1,13
 331 510 331 510 379 510 c 0,14,15
 459 510 459 510 504.5 459 c 128,-1,16
 550 408 550 408 550 312 c 0,17,18
 550 245 550 245 529.5 186 c 128,-1,19
 509 127 509 127 471.5 82.5 c 128,-1,20
 434 38 434 38 384 13 c 128,-1,21
 334 -12 334 -12 276 -12 c 0,0,1
268 53 m 0,22,23
 312 53 312 53 348.5 72.5 c 128,-1,24
 385 92 385 92 412 126.5 c 128,-1,25
 439 161 439 161 454 206 c 128,-1,26
 469 251 469 251 469 301 c 0,27,28
 469 374 469 374 438 409 c 128,-1,29
 407 444 407 444 353 444 c 0,30,31
 315 444 315 444 270 418.5 c 128,-1,32
 225 393 225 393 185 348 c 1,33,-1
 140 125 l 1,34,35
 167 86 167 86 200 69.5 c 128,-1,36
 233 53 233 53 268 53 c 0,22,23
EndSplineSet
Substitution2: "'sups' Superscript lookup 19 subtable" b.sups
EndChar

StartChar: c
Encoding: 99 99 30
Width: 614
GlyphClass: 2
Flags: W
AnchorPoint: "Anchor-3" 278 -20 basechar 0
AnchorPoint: "Anchor-2" 281 0 basechar 0
AnchorPoint: "Anchor-0" 373 519 basechar 0
LayerCount: 2
Fore
SplineSet
298 -12 m 0,0,1
 232 -12 232 -12 180.5 12.5 c 128,-1,2
 129 37 129 37 99 85.5 c 128,-1,3
 69 134 69 134 69 207 c 0,4,5
 69 276 69 276 93.5 331 c 128,-1,6
 118 386 118 386 160.5 426 c 128,-1,7
 203 466 203 466 256.5 488 c 128,-1,8
 310 510 310 510 369 510 c 0,9,10
 435 510 435 510 482 483.5 c 128,-1,11
 529 457 529 457 556 421 c 1,12,-1
 506 376 l 1,13,14
 478 411 478 411 443 427.5 c 128,-1,15
 408 444 408 444 358 444 c 0,16,17
 320 444 320 444 282.5 427 c 128,-1,18
 245 410 245 410 214 378.5 c 128,-1,19
 183 347 183 347 165 305.5 c 128,-1,20
 147 264 147 264 147 216 c 0,21,22
 147 134 147 134 193 93.5 c 128,-1,23
 239 53 239 53 308 53 c 0,24,25
 352 53 352 53 392 72.5 c 128,-1,26
 432 92 432 92 467 122 c 1,27,-1
 499 69 l 1,28,29
 460 33 460 33 406.5 10.5 c 128,-1,30
 353 -12 353 -12 298 -12 c 0,0,1
EndSplineSet
Substitution2: "'sups' Superscript lookup 19 subtable" c.sups
EndChar

StartChar: d
Encoding: 100 100 31
Width: 614
GlyphClass: 2
Flags: W
AnchorPoint: "Anchor-3" 255 -20 basechar 0
AnchorPoint: "Anchor-2" 241 0 basechar 0
AnchorPoint: "Anchor-0" 572 754 basechar 0
LayerCount: 2
Fore
SplineSet
223 -12 m 0,0,1
 146 -12 146 -12 99.5 36.5 c 128,-1,2
 53 85 53 85 53 178 c 0,3,4
 53 246 53 246 74 305.5 c 128,-1,5
 95 365 95 365 133 411 c 128,-1,6
 171 457 171 457 220 483.5 c 128,-1,7
 269 510 269 510 327 510 c 0,8,9
 380 510 380 510 418 490 c 128,-1,10
 456 470 456 470 477 437 c 1,11,-1
 480 437 l 1,12,-1
 497 535 l 1,13,-1
 536 729 l 1,14,-1
 614 729 l 1,15,-1
 467 0 l 1,16,-1
 402 0 l 1,17,-1
 411 76 l 1,18,-1
 407 76 l 1,19,20
 368 36 368 36 320 12 c 128,-1,21
 272 -12 272 -12 223 -12 c 0,0,1
248 53 m 0,22,23
 289 53 289 53 333.5 77.5 c 128,-1,24
 378 102 378 102 419 150 c 1,25,-1
 464 371 l 1,26,27
 439 411 439 411 405.5 427.5 c 128,-1,28
 372 444 372 444 337 444 c 0,29,30
 295 444 295 444 257.5 423 c 128,-1,31
 220 402 220 402 192.5 367 c 128,-1,32
 165 332 165 332 149.5 286 c 128,-1,33
 134 240 134 240 134 190 c 0,34,35
 134 120 134 120 165.5 86.5 c 128,-1,36
 197 53 197 53 248 53 c 0,22,23
EndSplineSet
Substitution2: "'sups' Superscript lookup 19 subtable" d.sups
EndChar

StartChar: e
Encoding: 101 101 32
Width: 614
GlyphClass: 2
Flags: W
AnchorPoint: "Anchor-6" 370 0 basechar 0
AnchorPoint: "Anchor-3" 268 -20 basechar 0
AnchorPoint: "Anchor-2" 272 0 basechar 0
AnchorPoint: "Anchor-0" 354 519 basechar 0
LayerCount: 2
Fore
SplineSet
276 -12 m 0,0,1
 211 -12 211 -12 164 12.5 c 128,-1,2
 117 37 117 37 91 85 c 128,-1,3
 65 133 65 133 65 203 c 0,4,5
 65 271 65 271 88 326.5 c 128,-1,6
 111 382 111 382 150 423.5 c 128,-1,7
 189 465 189 465 240.5 487.5 c 128,-1,8
 292 510 292 510 348 510 c 0,9,10
 439 510 439 510 488.5 455.5 c 128,-1,11
 538 401 538 401 538 318 c 0,12,13
 538 292 538 292 533 266 c 128,-1,14
 528 240 528 240 524 229 c 1,15,-1
 125 229 l 1,16,-1
 135 291 l 1,17,-1
 490 291 l 1,18,-1
 458 275 l 1,19,20
 461 286 461 286 462.5 298 c 128,-1,21
 464 310 464 310 464 322 c 0,22,23
 464 380 464 380 431.5 413.5 c 128,-1,24
 399 447 399 447 344 447 c 0,25,26
 308 447 308 447 272.5 430 c 128,-1,27
 237 413 237 413 207.5 381 c 128,-1,28
 178 349 178 349 160 305 c 128,-1,29
 142 261 142 261 142 207 c 0,30,31
 142 157 142 157 160.5 122 c 128,-1,32
 179 87 179 87 213 68.5 c 128,-1,33
 247 50 247 50 292 50 c 0,34,35
 341 50 341 50 384 68.5 c 128,-1,36
 427 87 427 87 462 115 c 1,37,-1
 492 61 l 1,38,39
 454 31 454 31 398 9.5 c 128,-1,40
 342 -12 342 -12 276 -12 c 0,0,1
EndSplineSet
Substitution2: "'sups' Superscript lookup 19 subtable" e.sups
EndChar

StartChar: f
Encoding: 102 102 33
Width: 614
GlyphClass: 2
Flags: W
AnchorPoint: "Anchor-3" 216 -20 basechar 0
AnchorPoint: "Anchor-2" 212 0 basechar 0
AnchorPoint: "Anchor-0" 485 754 basechar 0
LayerCount: 2
Fore
SplineSet
173 0 m 1,0,-1
 285 553 l 2,1,2
 305 652 305 652 361 696.5 c 128,-1,3
 417 741 417 741 501 741 c 0,4,5
 547 741 547 741 583.5 727 c 128,-1,6
 620 713 620 713 645 691 c 1,7,-1
 607 641 l 1,8,9
 584 658 584 658 559.5 668 c 128,-1,10
 535 678 535 678 503 678 c 0,11,12
 451 678 451 678 413.5 649 c 128,-1,13
 376 620 376 620 362 550 c 2,14,-1
 252 0 l 1,15,-1
 173 0 l 1,0,-1
118 434 m 1,16,-1
 129 493 l 1,17,-1
 274 498 l 1,18,-1
 561 498 l 1,19,-1
 548 434 l 1,20,-1
 118 434 l 1,16,-1
EndSplineSet
Substitution2: "'sups' Superscript lookup 19 subtable" f.sups
EndChar

StartChar: g
Encoding: 103 103 34
Width: 614
GlyphClass: 2
Flags: W
AnchorPoint: "Anchor-3" 224 -224 basechar 0
AnchorPoint: "Anchor-0" 362 519 basechar 0
LayerCount: 2
Fore
SplineSet
206 -222 m 0,0,1
 145 -222 145 -222 97.5 -204.5 c 128,-1,2
 50 -187 50 -187 16 -161 c 1,3,-1
 53 -104 l 1,4,5
 83 -130 83 -130 124.5 -144 c 128,-1,6
 166 -158 166 -158 207 -158 c 0,7,8
 251 -158 251 -158 288.5 -144 c 128,-1,9
 326 -130 326 -130 351.5 -100 c 128,-1,10
 377 -70 377 -70 388 -22 c 2,11,-1
 411 84 l 1,12,-1
 407 84 l 1,13,14
 371 49 371 49 324.5 26.5 c 128,-1,15
 278 4 278 4 229 4 c 0,16,17
 150 4 150 4 103 52.5 c 128,-1,18
 56 101 56 101 56 190 c 0,19,20
 56 256 56 256 77 314 c 128,-1,21
 98 372 98 372 135.5 416 c 128,-1,22
 173 460 173 460 222 485 c 128,-1,23
 271 510 271 510 327 510 c 0,24,25
 380 510 380 510 419.5 489.5 c 128,-1,26
 459 469 459 469 479 435 c 1,27,-1
 483 435 l 1,28,-1
 504 498 l 1,29,-1
 566 498 l 1,30,-1
 462 -26 l 2,31,32
 449 -95 449 -95 411.5 -138.5 c 128,-1,33
 374 -182 374 -182 321 -202 c 128,-1,34
 268 -222 268 -222 206 -222 c 0,0,1
253 70 m 0,35,36
 294 70 294 70 337 93 c 128,-1,37
 380 116 380 116 419 158 c 1,38,-1
 464 370 l 1,39,40
 438 410 438 410 405.5 427 c 128,-1,41
 373 444 373 444 336 444 c 0,42,43
 296 444 296 444 259.5 425 c 128,-1,44
 223 406 223 406 196 372.5 c 128,-1,45
 169 339 169 339 153 295.5 c 128,-1,46
 137 252 137 252 137 203 c 0,47,48
 137 135 137 135 168 102.5 c 128,-1,49
 199 70 199 70 253 70 c 0,35,36
EndSplineSet
Substitution2: "'ss03' Style Set 3 lookup 26 subtable" g.a
Substitution2: "'sups' Superscript lookup 19 subtable" g.sups
EndChar

StartChar: h
Encoding: 104 104 35
Width: 614
GlyphClass: 2
Flags: W
AnchorPoint: "Anchor-3" 261 -20 basechar 0
AnchorPoint: "Anchor-2" 77 0 basechar 0
AnchorPoint: "Anchor-0" 222 754 basechar 0
LayerCount: 2
Fore
SplineSet
37 0 m 1,0,-1
 182 729 l 1,1,-1
 261 729 l 1,2,-1
 207 461 l 1,3,-1
 190 398 l 1,4,-1
 195 398 l 1,5,6
 226 428 226 428 260 453.5 c 128,-1,7
 294 479 294 479 332.5 494.5 c 128,-1,8
 371 510 371 510 415 510 c 0,9,10
 481 510 481 510 512 476 c 128,-1,11
 543 442 543 442 543 386 c 0,12,13
 543 364 543 364 540.5 344.5 c 128,-1,14
 538 325 538 325 534 304 c 2,15,-1
 472 0 l 1,16,-1
 393 0 l 1,17,-1
 453 296 l 2,18,19
 458 315 458 315 460 332 c 128,-1,20
 462 349 462 349 462 366 c 0,21,22
 462 403 462 403 442 422.5 c 128,-1,23
 422 442 422 442 383 442 c 0,24,25
 333 442 333 442 281.5 410.5 c 128,-1,26
 230 379 230 379 179 322 c 1,27,-1
 115 0 l 1,28,-1
 37 0 l 1,0,-1
EndSplineSet
Substitution2: "'sups' Superscript lookup 19 subtable" h.sups
EndChar

StartChar: k
Encoding: 107 107 38
Width: 614
GlyphClass: 2
Flags: W
AnchorPoint: "Anchor-3" 286 -20 basechar 0
AnchorPoint: "Anchor-0" 234 751 basechar 0
LayerCount: 2
Fore
SplineSet
50 0 m 1,0,-1
 197 729 l 1,1,-1
 274 729 l 1,2,-1
 175 233 l 1,3,-1
 179 233 l 1,4,-1
 504 498 l 1,5,-1
 599 498 l 1,6,-1
 339 276 l 1,7,-1
 156 131 l 1,8,-1
 129 0 l 1,9,-1
 50 0 l 1,0,-1
303 263 m 1,10,-1
 356 315 l 1,11,-1
 521 0 l 1,12,-1
 439 0 l 1,13,-1
 303 263 l 1,10,-1
EndSplineSet
Substitution2: "'sups' Superscript lookup 19 subtable" k.sups
EndChar

StartChar: l
Encoding: 108 108 39
Width: 614
GlyphClass: 2
Flags: W
AnchorPoint: "Anchor-4" 292 394 basechar 0
AnchorPoint: "Anchor-3" 331 -20 basechar 0
AnchorPoint: "Anchor-2" 334 0 basechar 0
AnchorPoint: "Anchor-0" 358 754 basechar 0
LayerCount: 2
Fore
SplineSet
333 -12 m 0,0,1
 276 -12 276 -12 238 21 c 128,-1,2
 200 54 200 54 200 120 c 0,3,4
 200 133 200 133 201.5 146 c 128,-1,5
 203 159 203 159 207 175 c 2,6,-1
 310 666 l 1,7,-1
 144 666 l 1,8,-1
 158 729 l 1,9,-1
 400 729 l 1,10,-1
 284 172 l 2,11,12
 282 161 282 161 280.5 149.5 c 128,-1,13
 279 138 279 138 279 127 c 0,14,15
 279 89 279 89 299 71 c 128,-1,16
 319 53 319 53 354 53 c 0,17,18
 379 53 379 53 402 60.5 c 128,-1,19
 425 68 425 68 452 81 c 1,20,-1
 471 20 l 1,21,22
 438 4 438 4 404 -4 c 128,-1,23
 370 -12 370 -12 333 -12 c 0,0,1
EndSplineSet
Substitution2: "'sups' Superscript lookup 19 subtable" l.sups
EndChar

StartChar: m
Encoding: 109 109 40
Width: 614
GlyphClass: 2
Flags: W
AnchorPoint: "Anchor-3" 250 -20 basechar 0
AnchorPoint: "Anchor-2" 464 0 basechar 0
AnchorPoint: "Anchor-0" 358 518 basechar 0
LayerCount: 2
Fore
SplineSet
0 0 m 1,0,-1
 99 498 l 1,1,-1
 160 498 l 1,2,-1
 153 430 l 1,3,-1
 156 430 l 1,4,5
 186 468 186 468 219 489 c 128,-1,6
 252 510 252 510 290 510 c 0,7,8
 325 510 325 510 344.5 490 c 128,-1,9
 364 470 364 470 365 425 c 1,10,-1
 352 414 l 1,11,12
 391 466 391 466 429 488 c 128,-1,13
 467 510 467 510 504 510 c 0,14,15
 540 510 540 510 561 489 c 128,-1,16
 582 468 582 468 582 423 c 0,17,18
 582 410 582 410 581 397.5 c 128,-1,19
 580 385 580 385 575 367 c 2,20,-1
 502 0 l 1,21,-1
 424 0 l 1,22,-1
 496 356 l 2,23,24
 498 368 498 368 499 377.5 c 128,-1,25
 500 387 500 387 500 395 c 0,26,27
 500 421 500 421 491 431.5 c 128,-1,28
 482 442 482 442 465 442 c 0,29,30
 438 442 438 442 413.5 421.5 c 128,-1,31
 389 401 389 401 361 360 c 1,32,-1
 289 0 l 1,33,-1
 213 0 l 1,34,-1
 287 356 l 2,35,36
 289 368 289 368 290 377.5 c 128,-1,37
 291 387 291 387 291 395 c 0,38,39
 291 421 291 421 281 431.5 c 128,-1,40
 271 442 271 442 255 442 c 0,41,42
 226 442 226 442 202 421.5 c 128,-1,43
 178 401 178 401 148 360 c 1,44,-1
 78 0 l 1,45,-1
 0 0 l 1,0,-1
EndSplineSet
Substitution2: "'sups' Superscript lookup 19 subtable" m.sups
EndChar

StartChar: n
Encoding: 110 110 41
Width: 614
GlyphClass: 2
Flags: W
AnchorPoint: "Anchor-3" 261 -20 basechar 0
AnchorPoint: "Anchor-2" 431 0 basechar 0
AnchorPoint: "Anchor-0" 359 519 basechar 0
LayerCount: 2
Fore
SplineSet
37 0 m 1,0,-1
 136 498 l 1,1,-1
 200 498 l 1,2,-1
 187 396 l 1,3,-1
 191 396 l 1,4,5
 221 426 221 426 256 452 c 128,-1,6
 291 478 291 478 330.5 494 c 128,-1,7
 370 510 370 510 415 510 c 0,8,9
 481 510 481 510 512 476 c 128,-1,10
 543 442 543 442 543 386 c 0,11,12
 543 364 543 364 540.5 344.5 c 128,-1,13
 538 325 538 325 534 304 c 2,14,-1
 472 0 l 1,15,-1
 393 0 l 1,16,-1
 453 296 l 2,17,18
 458 315 458 315 460 332 c 128,-1,19
 462 349 462 349 462 366 c 0,20,21
 462 403 462 403 442 422.5 c 128,-1,22
 422 442 422 442 383 442 c 0,23,24
 333 442 333 442 281.5 410.5 c 128,-1,25
 230 379 230 379 179 322 c 1,26,-1
 115 0 l 1,27,-1
 37 0 l 1,0,-1
EndSplineSet
Substitution2: "'sups' Superscript lookup 19 subtable" n.sups
EndChar

StartChar: o
Encoding: 111 111 42
Width: 614
GlyphClass: 2
Flags: W
AnchorPoint: "Anchor-6" 245 0 basechar 0
AnchorPoint: "Anchor-5" 359 498 basechar 0
AnchorPoint: "Anchor-3" 240 -20 basechar 0
AnchorPoint: "Anchor-2" 245 0 basechar 0
AnchorPoint: "Anchor-0" 347 519 basechar 0
LayerCount: 2
Fore
SplineSet
256 -12 m 0,0,1
 190 -12 190 -12 143.5 15.5 c 128,-1,2
 97 43 97 43 72 92 c 128,-1,3
 47 141 47 141 47 206 c 0,4,5
 47 272 47 272 70 327 c 128,-1,6
 93 382 93 382 133 423.5 c 128,-1,7
 173 465 173 465 224.5 487.5 c 128,-1,8
 276 510 276 510 334 510 c 0,9,10
 399 510 399 510 445.5 482.5 c 128,-1,11
 492 455 492 455 517 405.5 c 128,-1,12
 542 356 542 356 542 292 c 256,13,14
 542 227 542 227 519 171.5 c 128,-1,15
 496 116 496 116 456 75 c 128,-1,16
 416 34 416 34 364.5 11 c 128,-1,17
 313 -12 313 -12 256 -12 c 0,0,1
261 53 m 0,18,19
 301 53 301 53 337.5 71.5 c 128,-1,20
 374 90 374 90 402 122 c 128,-1,21
 430 154 430 154 446.5 196.5 c 128,-1,22
 463 239 463 239 463 287 c 0,23,24
 463 360 463 360 427 402 c 128,-1,25
 391 444 391 444 328 444 c 0,26,27
 289 444 289 444 252.5 426 c 128,-1,28
 216 408 216 408 188 376 c 128,-1,29
 160 344 160 344 143.5 301.5 c 128,-1,30
 127 259 127 259 127 211 c 0,31,32
 127 138 127 138 163 95.5 c 128,-1,33
 199 53 199 53 261 53 c 0,18,19
EndSplineSet
Substitution2: "'sups' Superscript lookup 19 subtable" o.sups
EndChar

StartChar: p
Encoding: 112 112 43
Width: 614
GlyphClass: 2
Flags: W
AnchorPoint: "Anchor-3" 37 -224 basechar 0
AnchorPoint: "Anchor-0" 370 519 basechar 0
LayerCount: 2
Fore
SplineSet
-5 -210 m 1,0,-1
 136 498 l 1,1,-1
 201 498 l 1,2,-1
 193 421 l 1,3,-1
 196 421 l 1,4,5
 235 458 235 458 281.5 484 c 128,-1,6
 328 510 328 510 380 510 c 0,7,8
 458 510 458 510 504 459 c 128,-1,9
 550 408 550 408 550 312 c 0,10,11
 550 222 550 222 515.5 148.5 c 128,-1,12
 481 75 481 75 419.5 31.5 c 128,-1,13
 358 -12 358 -12 276 -12 c 0,14,15
 229 -12 229 -12 190 8.5 c 128,-1,16
 151 29 151 29 126 59 c 1,17,-1
 123 59 l 1,18,-1
 104 -47 l 1,19,-1
 73 -210 l 1,20,-1
 -5 -210 l 1,0,-1
271 53 m 0,21,22
 314 53 314 53 350 72.5 c 128,-1,23
 386 92 386 92 412.5 126.5 c 128,-1,24
 439 161 439 161 454 206 c 128,-1,25
 469 251 469 251 469 301 c 0,26,27
 469 374 469 374 438 409 c 128,-1,28
 407 444 407 444 353 444 c 0,29,30
 315 444 315 444 270.5 418.5 c 128,-1,31
 226 393 226 393 185 348 c 1,32,-1
 140 125 l 1,33,34
 167 86 167 86 201 69.5 c 128,-1,35
 235 53 235 53 271 53 c 0,21,22
EndSplineSet
Substitution2: "'sups' Superscript lookup 19 subtable" p.sups
EndChar

StartChar: q
Encoding: 113 113 44
Width: 614
GlyphClass: 2
Flags: W
AnchorPoint: "Anchor-3" 382 -224 basechar 0
AnchorPoint: "Anchor-0" 364 519 basechar 0
LayerCount: 2
Fore
SplineSet
347 -210 m 1,0,-1
 381 -45 l 2,1,2
 384 -31 384 -31 388.5 -10.5 c 128,-1,3
 393 10 393 10 399.5 33 c 128,-1,4
 406 56 406 56 412 76 c 1,5,-1
 408 76 l 1,6,7
 369 36 369 36 320 12 c 128,-1,8
 271 -12 271 -12 223 -12 c 0,9,10
 146 -12 146 -12 99.5 36.5 c 128,-1,11
 53 85 53 85 53 178 c 0,12,13
 53 246 53 246 74 305.5 c 128,-1,14
 95 365 95 365 133 411 c 128,-1,15
 171 457 171 457 220 483.5 c 128,-1,16
 269 510 269 510 327 510 c 0,17,18
 380 510 380 510 419.5 489.5 c 128,-1,19
 459 469 459 469 479 435 c 1,20,-1
 483 435 l 1,21,-1
 504 498 l 1,22,-1
 566 498 l 1,23,-1
 425 -210 l 1,24,-1
 347 -210 l 1,0,-1
248 53 m 0,25,26
 289 53 289 53 333.5 77.5 c 128,-1,27
 378 102 378 102 419 150 c 1,28,-1
 464 371 l 1,29,30
 439 411 439 411 405.5 427.5 c 128,-1,31
 372 444 372 444 337 444 c 0,32,33
 295 444 295 444 257.5 423 c 128,-1,34
 220 402 220 402 192.5 367 c 128,-1,35
 165 332 165 332 149.5 286 c 128,-1,36
 134 240 134 240 134 190 c 0,37,38
 134 120 134 120 165.5 86.5 c 128,-1,39
 197 53 197 53 248 53 c 0,25,26
EndSplineSet
Substitution2: "'sups' Superscript lookup 19 subtable" q.sups
EndChar

StartChar: r
Encoding: 114 114 45
Width: 614
GlyphClass: 2
Flags: W
AnchorPoint: "Anchor-3" 140 -20 basechar 0
AnchorPoint: "Anchor-2" 140 0 basechar 0
AnchorPoint: "Anchor-0" 385 519 basechar 0
LayerCount: 2
Fore
SplineSet
99 0 m 1,0,-1
 199 498 l 1,1,-1
 263 498 l 1,2,-1
 242 355 l 1,3,-1
 246 355 l 1,4,5
 274 397 274 397 309 432.5 c 128,-1,6
 344 468 344 468 384.5 489 c 128,-1,7
 425 510 425 510 468 510 c 0,8,9
 502 510 502 510 527 503.5 c 128,-1,10
 552 497 552 497 568 484 c 1,11,-1
 538 417 l 1,12,13
 520 429 520 429 499.5 433.5 c 128,-1,14
 479 438 479 438 455 438 c 0,15,16
 398 438 398 438 340 389 c 128,-1,17
 282 340 282 340 229 259 c 1,18,-1
 177 0 l 1,19,-1
 99 0 l 1,0,-1
EndSplineSet
Substitution2: "'sups' Superscript lookup 19 subtable" r.sups
EndChar

StartChar: s
Encoding: 115 115 46
Width: 614
GlyphClass: 2
Flags: W
AnchorPoint: "Anchor-3" 267 -20 basechar 0
AnchorPoint: "Anchor-2" 268 0 basechar 0
AnchorPoint: "Anchor-0" 345 519 basechar 0
LayerCount: 2
Fore
SplineSet
276 -12 m 0,0,1
 233 -12 233 -12 192 -1 c 128,-1,2
 151 10 151 10 115.5 30.5 c 128,-1,3
 80 51 80 51 56 79 c 1,4,-1
 101 129 l 1,5,6
 138 88 138 88 188 68.5 c 128,-1,7
 238 49 238 49 291 49 c 0,8,9
 343 49 343 49 377.5 68 c 128,-1,10
 412 87 412 87 412 128 c 0,11,12
 412 153 412 153 396.5 168.5 c 128,-1,13
 381 184 381 184 352 196.5 c 128,-1,14
 323 209 323 209 281 223 c 0,15,16
 203 249 203 249 167 283 c 128,-1,17
 131 317 131 317 131 369 c 0,18,19
 131 417 131 417 156.5 448 c 128,-1,20
 182 479 182 479 224 494.5 c 128,-1,21
 266 510 266 510 317 510 c 0,22,23
 389 510 389 510 441.5 485.5 c 128,-1,24
 494 461 494 461 525 429 c 1,25,-1
 481 381 l 1,26,27
 450 408 450 408 408 428.5 c 128,-1,28
 366 449 366 449 309 449 c 0,29,30
 261 449 261 449 233.5 430 c 128,-1,31
 206 411 206 411 206 378 c 0,32,33
 206 343 206 343 237.5 323.5 c 128,-1,34
 269 304 269 304 329 284 c 0,35,36
 375 269 375 269 410.5 250 c 128,-1,37
 446 231 446 231 466 204.5 c 128,-1,38
 486 178 486 178 486 138 c 0,39,40
 486 85 486 85 458 51.5 c 128,-1,41
 430 18 430 18 382 3 c 128,-1,42
 334 -12 334 -12 276 -12 c 0,0,1
EndSplineSet
Substitution2: "'sups' Superscript lookup 19 subtable" s.sups
EndChar

StartChar: t
Encoding: 116 116 47
Width: 614
GlyphClass: 2
Flags: W
AnchorPoint: "Anchor-3" 315 -20 basechar 0
AnchorPoint: "Anchor-2" 315 0 basechar 0
AnchorPoint: "Anchor-0" 304 650 basechar 0
LayerCount: 2
Fore
SplineSet
314 -12 m 0,0,1
 236 -12 236 -12 199.5 27.5 c 128,-1,2
 163 67 163 67 163 130 c 0,3,4
 163 146 163 146 165.5 161.5 c 128,-1,5
 168 177 168 177 171 195 c 2,6,-1
 220 434 l 1,7,-1
 76 434 l 1,8,-1
 87 493 l 1,9,-1
 237 498 l 1,10,-1
 273 635 l 1,11,-1
 340 635 l 1,12,-1
 311 498 l 1,13,-1
 557 498 l 1,14,-1
 544 434 l 1,15,-1
 298 434 l 1,16,-1
 248 193 l 2,17,18
 245 180 245 180 244 169 c 128,-1,19
 243 158 243 158 243 146 c 0,20,21
 243 99 243 99 268 76 c 128,-1,22
 293 53 293 53 335 53 c 0,23,24
 372 53 372 53 404.5 64 c 128,-1,25
 437 75 437 75 464 89 c 1,26,-1
 489 33 l 1,27,28
 457 14 457 14 411.5 1 c 128,-1,29
 366 -12 366 -12 314 -12 c 0,0,1
EndSplineSet
Substitution2: "'sups' Superscript lookup 19 subtable" t.sups
EndChar

StartChar: u
Encoding: 117 117 48
Width: 614
GlyphClass: 2
Flags: W
AnchorPoint: "Anchor-6" 403 0 basechar 0
AnchorPoint: "Anchor-3" 255 -20 basechar 0
AnchorPoint: "Anchor-2" 430 0 basechar 0
AnchorPoint: "Anchor-0" 345 519 basechar 0
LayerCount: 2
Fore
SplineSet
186 -12 m 0,0,1
 119 -12 119 -12 88 22 c 128,-1,2
 57 56 57 56 57 112 c 0,3,4
 57 135 57 135 59.5 154 c 128,-1,5
 62 173 62 173 67 194 c 2,6,-1
 128 498 l 1,7,-1
 206 498 l 1,8,-1
 146 202 l 2,9,10
 143 184 143 184 140 167 c 128,-1,11
 137 150 137 150 137 132 c 0,12,13
 137 95 137 95 157.5 75 c 128,-1,14
 178 55 178 55 216 55 c 0,15,16
 266 55 266 55 317.5 87.5 c 128,-1,17
 369 120 369 120 419 176 c 1,18,-1
 483 498 l 1,19,-1
 562 498 l 1,20,-1
 463 0 l 1,21,-1
 398 0 l 1,22,-1
 412 101 l 1,23,-1
 408 101 l 1,24,25
 377 71 377 71 342.5 45 c 128,-1,26
 308 19 308 19 269 3.5 c 128,-1,27
 230 -12 230 -12 186 -12 c 0,0,1
EndSplineSet
Substitution2: "'sups' Superscript lookup 19 subtable" u.sups
EndChar

StartChar: v
Encoding: 118 118 49
Width: 614
GlyphClass: 2
Flags: W
AnchorPoint: "Anchor-3" 246 -20 basechar 0
AnchorPoint: "Anchor-0" 338 519 basechar 0
LayerCount: 2
Fore
SplineSet
202 0 m 1,0,-1
 89 498 l 1,1,-1
 167 498 l 1,2,-1
 229 208 l 2,3,4
 237 172 237 172 244 134.5 c 128,-1,5
 251 97 251 97 258 61 c 1,6,-1
 262 61 l 1,7,8
 279 97 279 97 301 134 c 128,-1,9
 323 171 323 171 345 209 c 2,10,-1
 516 498 l 1,11,-1
 596 498 l 1,12,-1
 294 0 l 1,13,-1
 202 0 l 1,0,-1
EndSplineSet
Substitution2: "'sups' Superscript lookup 19 subtable" v.sups
EndChar

StartChar: w
Encoding: 119 119 50
Width: 614
GlyphClass: 2
Flags: W
AnchorPoint: "Anchor-3" 246 -20 basechar 0
AnchorPoint: "Anchor-0" 338 520 basechar 0
LayerCount: 2
Fore
SplineSet
59 0 m 1,0,-1
 47 498 l 1,1,-1
 125 498 l 1,2,-1
 128 204 l 2,3,4
 128 169 128 169 127.5 136 c 128,-1,5
 127 103 127 103 126 68 c 1,6,-1
 130 68 l 1,7,8
 143 104 143 104 155 137 c 128,-1,9
 167 170 167 170 182 205 c 2,10,-1
 297 471 l 1,11,-1
 377 471 l 1,12,-1
 387 205 l 2,13,14
 389 169 389 169 388 136 c 128,-1,15
 387 103 387 103 387 68 c 1,16,-1
 391 68 l 1,17,18
 405 104 405 104 417 136 c 128,-1,19
 429 168 429 168 442 204 c 2,20,-1
 561 498 l 1,21,-1
 637 498 l 1,22,-1
 429 0 l 1,23,-1
 330 0 l 1,24,-1
 324 256 l 2,25,26
 323 292 323 292 323.5 322.5 c 128,-1,27
 324 353 324 353 324 391 c 1,28,-1
 319 391 l 1,29,30
 310 364 310 364 303 343 c 128,-1,31
 296 322 296 322 288.5 301.5 c 128,-1,32
 281 281 281 281 270 256 c 2,33,-1
 162 0 l 1,34,-1
 59 0 l 1,0,-1
EndSplineSet
Substitution2: "'sups' Superscript lookup 19 subtable" w.sups
EndChar

StartChar: x
Encoding: 120 120 51
Width: 614
GlyphClass: 2
Flags: W
AnchorPoint: "Anchor-3" 248 -20 basechar 0
AnchorPoint: "Anchor-2" 436 0 basechar 0
AnchorPoint: "Anchor-0" 338 519 basechar 0
LayerCount: 2
Fore
SplineSet
10 0 m 1,0,-1
 250 259 l 1,1,-1
 122 498 l 1,2,-1
 204 498 l 1,3,-1
 263 384 l 2,4,5
 272 367 272 367 284 341.5 c 128,-1,6
 296 316 296 316 303 299 c 1,7,-1
 307 299 l 1,8,9
 319 315 319 315 339.5 342 c 128,-1,10
 360 369 360 369 374 384 c 2,11,-1
 475 498 l 1,12,-1
 567 498 l 1,13,-1
 339 252 l 1,14,-1
 481 0 l 1,15,-1
 397 0 l 1,16,-1
 332 120 l 2,17,18
 323 138 323 138 310 162.5 c 128,-1,19
 297 187 297 187 287 206 c 1,20,-1
 282 206 l 1,21,22
 273 194 273 194 260.5 179 c 128,-1,23
 248 164 248 164 235 149.5 c 128,-1,24
 222 135 222 135 213 124 c 2,25,-1
 102 0 l 1,26,-1
 10 0 l 1,0,-1
EndSplineSet
Substitution2: "'sups' Superscript lookup 19 subtable" x.sups
EndChar

StartChar: y
Encoding: 121 121 52
Width: 614
GlyphClass: 2
Flags: W
AnchorPoint: "Anchor-6" 140 -144 basechar 0
AnchorPoint: "Anchor-3" 195 -224 basechar 0
AnchorPoint: "Anchor-0" 338 519 basechar 0
LayerCount: 2
Fore
SplineSet
34 -214 m 0,0,1
 11 -214 11 -214 -9.5 -209 c 128,-1,2
 -30 -204 -30 -204 -45 -196 c 1,3,-1
 -20 -139 l 1,4,5
 -8 -145 -8 -145 7.5 -149.5 c 128,-1,6
 23 -154 23 -154 39 -154 c 0,7,8
 70 -154 70 -154 93 -143.5 c 128,-1,9
 116 -133 116 -133 137 -110.5 c 128,-1,10
 158 -88 158 -88 182 -51 c 2,11,-1
 213 -2 l 1,12,-1
 89 498 l 1,13,-1
 165 498 l 1,14,-1
 230 219 l 2,15,16
 237 186 237 186 245.5 143.5 c 128,-1,17
 254 101 254 101 260 68 c 1,18,-1
 264 68 l 1,19,20
 281 102 281 102 305.5 144 c 128,-1,21
 330 186 330 186 348 219 c 2,22,-1
 515 498 l 1,23,-1
 597 498 l 1,24,-1
 258 -53 l 2,25,26
 225 -107 225 -107 193 -143 c 128,-1,27
 161 -179 161 -179 122.5 -196.5 c 128,-1,28
 84 -214 84 -214 34 -214 c 0,0,1
EndSplineSet
Substitution2: "'sups' Superscript lookup 19 subtable" y.sups
EndChar

StartChar: z
Encoding: 122 122 53
Width: 614
GlyphClass: 2
Flags: W
AnchorPoint: "Anchor-3" 266 -20 basechar 0
AnchorPoint: "Anchor-2" 290 0 basechar 0
AnchorPoint: "Anchor-0" 342 519 basechar 0
LayerCount: 2
Fore
SplineSet
35 0 m 1,0,-1
 43 47 l 1,1,-1
 432 435 l 1,2,-1
 116 435 l 1,3,-1
 129 498 l 1,4,-1
 549 498 l 1,5,-1
 541 451 l 1,6,-1
 153 63 l 1,7,-1
 487 63 l 1,8,-1
 474 0 l 1,9,-1
 35 0 l 1,0,-1
EndSplineSet
Substitution2: "'sups' Superscript lookup 19 subtable" z.sups
EndChar

StartChar: Aringacute
Encoding: 506 506 62
Width: 614
GlyphClass: 1
Flags: W
LayerCount: 2
Fore
SplineSet
390 859 m 1,0,-1
 355 882 l 1,1,-1
 505 989 l 1,2,-1
 542 942 l 1,3,-1
 390 859 l 1,0,-1
-24 0 m 1,4,-1
 341 672 l 1,5,-1
 432 672 l 1,6,-1
 515 0 l 1,7,-1
 433 0 l 1,8,-1
 395 386 l 2,9,10
 390 440 390 440 385.5 496 c 128,-1,11
 381 552 381 552 375 605 c 1,12,-1
 371 605 l 1,13,14
 342 550 342 550 316.5 497 c 128,-1,15
 291 444 291 444 262 388 c 2,16,-1
 63 0 l 1,17,-1
 -24 0 l 1,4,-1
140 210 m 1,18,-1
 156 271 l 1,19,-1
 451 271 l 1,20,-1
 439 210 l 1,21,-1
 140 210 l 1,18,-1
396 717 m 0,22,23
 361 717 361 717 334 737 c 128,-1,24
 307 757 307 757 307 798 c 0,25,26
 307 826 307 826 321.5 848.5 c 128,-1,27
 336 871 336 871 361 885 c 128,-1,28
 386 899 386 899 416 899 c 0,29,30
 452 899 452 899 478.5 879 c 128,-1,31
 505 859 505 859 505 818 c 0,32,33
 505 789 505 789 490.5 766 c 128,-1,34
 476 743 476 743 451.5 730 c 128,-1,35
 427 717 427 717 396 717 c 0,22,23
398 754 m 0,36,37
 422 754 422 754 440 771 c 128,-1,38
 458 788 458 788 458 814 c 0,39,40
 458 837 458 837 446.5 849.5 c 128,-1,41
 435 862 435 862 414 862 c 0,42,43
 390 862 390 862 372 844 c 128,-1,44
 354 826 354 826 354 801 c 0,45,46
 354 781 354 781 366 767.5 c 128,-1,47
 378 754 378 754 398 754 c 0,36,37
EndSplineSet
EndChar

StartChar: Aogonek
Encoding: 260 260 64
Width: 614
GlyphClass: 2
Flags: W
AnchorPoint: "Anchor-0" 382 692 basechar 0
LayerCount: 2
Fore
SplineSet
429 -230 m 0,0,1
 391 -230 391 -230 362.5 -212 c 128,-1,2
 334 -194 334 -194 334 -154 c 0,3,4
 334 -120 334 -120 352 -90 c 128,-1,5
 370 -60 370 -60 397 -37 c 128,-1,6
 424 -14 424 -14 450 0 c 1,7,-1
 433 0 l 1,8,-1
 395 386 l 2,9,10
 390 440 390 440 385 496 c 128,-1,11
 380 552 380 552 375 605 c 1,12,-1
 371 605 l 1,13,14
 342 549 342 549 316.5 496.5 c 128,-1,15
 291 444 291 444 262 388 c 2,16,-1
 63 0 l 1,17,-1
 -24 0 l 1,18,-1
 341 672 l 1,19,-1
 432 672 l 1,20,-1
 515 0 l 1,21,22
 485 -13 485 -13 458.5 -34.5 c 128,-1,23
 432 -56 432 -56 415.5 -80 c 128,-1,24
 399 -104 399 -104 399 -129 c 0,25,26
 399 -153 399 -153 415.5 -164.5 c 128,-1,27
 432 -176 432 -176 456 -176 c 0,28,29
 470 -176 470 -176 481 -171.5 c 128,-1,30
 492 -167 492 -167 503 -160 c 1,31,-1
 522 -200 l 1,32,33
 505 -214 505 -214 480.5 -222 c 128,-1,34
 456 -230 456 -230 429 -230 c 0,0,1
140 210 m 1,35,-1
 156 271 l 1,36,-1
 451 271 l 1,37,-1
 439 210 l 1,38,-1
 140 210 l 1,35,-1
EndSplineSet
Ligature2: "'ccmp' Glyph Composition/Decomposition lookup 7 subtable" A uni0328
EndChar

StartChar: AE
Encoding: 198 198 77
Width: 614
GlyphClass: 2
Flags: W
AnchorPoint: "Anchor-3" 300 -20 basechar 0
AnchorPoint: "Anchor-2" 421 0 basechar 0
AnchorPoint: "Anchor-0" 497 692 basechar 0
LayerCount: 2
Fore
SplineSet
-63 0 m 1,0,-1
 345 672 l 1,1,-1
 665 672 l 1,2,-1
 651 605 l 1,3,-1
 456 605 l 1,4,-1
 412 388 l 1,5,-1
 569 388 l 1,6,-1
 556 322 l 1,7,-1
 398 322 l 1,8,-1
 348 68 l 1,9,-1
 554 68 l 1,10,-1
 541 0 l 1,11,-1
 263 0 l 1,12,-1
 385 610 l 1,13,-1
 380 610 l 1,14,15
 348 554 348 554 315 499 c 128,-1,16
 282 444 282 444 249 389 c 2,17,-1
 19 0 l 1,18,-1
 -63 0 l 1,0,-1
111 202 m 1,19,-1
 124 264 l 1,20,-1
 353 264 l 1,21,-1
 341 202 l 1,22,-1
 111 202 l 1,19,-1
EndSplineSet
EndChar

StartChar: uni0243
Encoding: 579 579 80
Width: 614
GlyphClass: 1
Flags: W
LayerCount: 2
Fore
SplineSet
43 0 m 1,0,-1
 178 673 l 1,1,-1
 352 673 l 2,2,3
 411 673 411 673 458 657.5 c 128,-1,4
 505 642 505 642 532.5 611.5 c 128,-1,5
 560 581 560 581 560 535 c 0,6,7
 560 494 560 494 543 458.5 c 128,-1,8
 526 423 526 423 492.5 397.5 c 128,-1,9
 459 372 459 372 408 360 c 1,10,-1
 406 356 l 1,11,12
 443 349 443 349 472 332 c 128,-1,13
 501 315 501 315 518 287 c 128,-1,14
 535 259 535 259 535 218 c 0,15,16
 535 143 535 143 498 95 c 128,-1,17
 461 47 461 47 396 23.5 c 128,-1,18
 331 0 331 0 246 0 c 2,19,-1
 43 0 l 1,0,-1
-2 176 m 1,20,-1
 12 229 l 1,21,-1
 92 233 l 1,22,-1
 324 233 l 1,23,-1
 309 176 l 1,24,-1
 -2 176 l 1,20,-1
134 68 m 1,25,-1
 246 68 l 2,26,27
 316 68 316 68 362.5 83.5 c 128,-1,28
 409 99 409 99 432.5 133 c 128,-1,29
 456 167 456 167 456 221 c 256,30,31
 456 275 456 275 413 300.5 c 128,-1,32
 370 326 370 326 297 326 c 2,33,-1
 188 326 l 1,34,-1
 134 68 l 1,25,-1
200 393 m 1,35,-1
 289 393 l 2,36,37
 391 393 391 393 434.5 424.5 c 128,-1,38
 478 456 478 456 478 518 c 0,39,40
 478 564 478 564 438.5 584 c 128,-1,41
 399 604 399 604 328 604 c 2,42,-1
 244 604 l 1,43,-1
 200 393 l 1,35,-1
EndSplineSet
EndChar

StartChar: uni018A
Encoding: 394 394 92
Width: 614
GlyphClass: 2
Flags: W
AnchorPoint: "Anchor-3" 283 -20 basechar 0
AnchorPoint: "Anchor-0" 393 692 basechar 0
LayerCount: 2
Fore
SplineSet
146 0 m 1,0,-1
 273 637 l 1,1,-1
 351 637 l 1,2,-1
 238 66 l 1,3,-1
 246 66 l 2,4,5
 304 66 304 66 353.5 91.5 c 128,-1,6
 403 117 403 117 439.5 164 c 128,-1,7
 476 211 476 211 496.5 276 c 128,-1,8
 517 341 517 341 517 420 c 0,9,10
 517 514 517 514 473.5 567 c 128,-1,11
 430 620 430 620 337 620 c 2,12,-1
 306 620 l 2,13,14
 260 620 260 620 222.5 602.5 c 128,-1,15
 185 585 185 585 159.5 556 c 128,-1,16
 134 527 134 527 120 491.5 c 128,-1,17
 106 456 106 456 106 419 c 0,18,19
 106 356 106 356 160 324 c 1,20,-1
 118 270 l 1,21,22
 81 288 81 288 60 323 c 128,-1,23
 39 358 39 358 39 409 c 0,24,25
 39 460 39 460 58.5 509 c 128,-1,26
 78 558 78 558 116 598 c 128,-1,27
 154 638 154 638 209 661.5 c 128,-1,28
 264 685 264 685 336 685 c 0,29,30
 464 685 464 685 531.5 617 c 128,-1,31
 599 549 599 549 599 425 c 0,32,33
 599 332 599 332 573 254 c 128,-1,34
 547 176 547 176 498 119 c 128,-1,35
 449 62 449 62 377.5 31 c 128,-1,36
 306 0 306 0 217 0 c 2,37,-1
 146 0 l 1,0,-1
EndSplineSet
EndChar

StartChar: Eogonek
Encoding: 280 280 101
Width: 614
GlyphClass: 2
Flags: W
AnchorPoint: "Anchor-0" 416 692 basechar 0
LayerCount: 2
Fore
SplineSet
376 -230 m 0,0,1
 338 -230 338 -230 310 -212 c 128,-1,2
 282 -194 282 -194 282 -154 c 0,3,4
 282 -120 282 -120 298.5 -90.5 c 128,-1,5
 315 -61 315 -61 342.5 -38 c 128,-1,6
 370 -15 370 -15 398 0 c 1,7,-1
 61 0 l 1,8,-1
 197 672 l 1,9,-1
 609 672 l 1,10,-1
 596 605 l 1,11,-1
 261 605 l 1,12,-1
 218 387 l 1,13,-1
 498 387 l 1,14,-1
 484 319 l 1,15,-1
 206 319 l 1,16,-1
 154 68 l 1,17,-1
 498 68 l 1,18,-1
 484 0 l 1,19,-1
 482 0 l 2,20,21
 463 0 463 0 440 -11.5 c 128,-1,22
 417 -23 417 -23 395.5 -41.5 c 128,-1,23
 374 -60 374 -60 360 -83 c 128,-1,24
 346 -106 346 -106 346 -129 c 0,25,26
 346 -153 346 -153 362.5 -164.5 c 128,-1,27
 379 -176 379 -176 402 -176 c 0,28,29
 416 -176 416 -176 427.5 -171.5 c 128,-1,30
 439 -167 439 -167 451 -160 c 1,31,-1
 469 -200 l 1,32,33
 452 -214 452 -214 427.5 -222 c 128,-1,34
 403 -230 403 -230 376 -230 c 0,0,1
EndSplineSet
Ligature2: "'ccmp' Glyph Composition/Decomposition lookup 7 subtable" E uni0328
EndChar

StartChar: uni0193
Encoding: 403 403 119
Width: 614
GlyphClass: 1
Flags: W
LayerCount: 2
Fore
SplineSet
585 585 m 1,0,-1
 507 608 l 1,1,2
 500 635 500 635 496.5 657 c 128,-1,3
 493 679 493 679 493 697 c 0,4,5
 493 732 493 732 506.5 760 c 128,-1,6
 520 788 520 788 545.5 804 c 128,-1,7
 571 820 571 820 607 820 c 0,8,9
 630 820 630 820 646.5 814.5 c 128,-1,10
 663 809 663 809 676 801 c 1,11,-1
 649 745 l 1,12,13
 640 751 640 751 632.5 754 c 128,-1,14
 625 757 625 757 614 757 c 0,15,16
 588 757 588 757 572.5 738 c 128,-1,17
 557 719 557 719 557 691 c 0,18,19
 557 660 557 660 564.5 637 c 128,-1,20
 572 614 572 614 585 585 c 1,0,-1
307 -12 m 0,21,22
 227 -12 227 -12 173 21.5 c 128,-1,23
 119 55 119 55 90.5 116 c 128,-1,24
 62 177 62 177 62 259 c 0,25,26
 62 339 62 339 87 414.5 c 128,-1,27
 112 490 112 490 158 551 c 128,-1,28
 204 612 204 612 269 648 c 128,-1,29
 334 684 334 684 416 684 c 0,30,31
 476 684 476 684 518 656 c 128,-1,32
 560 628 560 628 585 585 c 1,33,-1
 528 543 l 1,34,35
 509 576 509 576 481 595.5 c 128,-1,36
 453 615 453 615 411 615 c 0,37,38
 362 615 362 615 320 595 c 128,-1,39
 278 575 278 575 245.5 540 c 128,-1,40
 213 505 213 505 190.5 460 c 128,-1,41
 168 415 168 415 156 365 c 128,-1,42
 144 315 144 315 144 266 c 0,43,44
 144 207 144 207 161.5 159.5 c 128,-1,45
 179 112 179 112 217.5 83.5 c 128,-1,46
 256 55 256 55 318 55 c 0,47,48
 355 55 355 55 384.5 67.5 c 128,-1,49
 414 80 414 80 433 96 c 1,50,-1
 470 282 l 1,51,-1
 332 282 l 1,52,-1
 345 347 l 1,53,-1
 556 347 l 1,54,-1
 498 56 l 1,55,56
 461 25 461 25 412.5 6.5 c 128,-1,57
 364 -12 364 -12 307 -12 c 0,21,22
EndSplineSet
EndChar

StartChar: Hbar
Encoding: 294 294 125
Width: 614
GlyphClass: 1
Flags: W
LayerCount: 2
Fore
SplineSet
47 500 m 1,0,-1
 55 551 l 1,1,-1
 131 557 l 1,2,-1
 651 557 l 1,3,-1
 637 500 l 1,4,-1
 47 500 l 1,0,-1
18 0 m 1,5,-1
 153 672 l 1,6,-1
 232 672 l 1,7,-1
 175 388 l 1,8,-1
 466 388 l 1,9,-1
 522 672 l 1,10,-1
 602 672 l 1,11,-1
 468 0 l 1,12,-1
 388 0 l 1,13,-1
 453 319 l 1,14,-1
 162 319 l 1,15,-1
 98 0 l 1,16,-1
 18 0 l 1,5,-1
EndSplineSet
EndChar

StartChar: Iogonek
Encoding: 302 302 134
Width: 614
GlyphClass: 2
Flags: W
AnchorPoint: "Anchor-0" 382 692 basechar 0
LayerCount: 2
Fore
SplineSet
218 -230 m 0,0,1
 180 -230 180 -230 152 -212 c 128,-1,2
 124 -194 124 -194 124 -154 c 0,3,4
 124 -121 124 -121 140 -91 c 128,-1,5
 156 -61 156 -61 179.5 -38 c 128,-1,6
 203 -15 203 -15 224 0 c 1,7,-1
 36 0 l 1,8,-1
 50 68 l 1,9,-1
 216 68 l 1,10,-1
 324 605 l 1,11,-1
 156 605 l 1,12,-1
 171 672 l 1,13,-1
 587 672 l 1,14,-1
 572 605 l 1,15,-1
 403 605 l 1,16,-1
 295 68 l 1,17,-1
 465 68 l 1,18,-1
 450 0 l 1,19,-1
 289 0 l 1,20,21
 243 -26 243 -26 215.5 -61.5 c 128,-1,22
 188 -97 188 -97 188 -129 c 0,23,24
 188 -153 188 -153 204.5 -164.5 c 128,-1,25
 221 -176 221 -176 245 -176 c 0,26,27
 259 -176 259 -176 270.5 -171.5 c 128,-1,28
 282 -167 282 -167 293 -160 c 1,29,-1
 311 -200 l 1,30,31
 294 -214 294 -214 269.5 -222 c 128,-1,32
 245 -230 245 -230 218 -230 c 0,0,1
EndSplineSet
Ligature2: "'ccmp' Glyph Composition/Decomposition lookup 7 subtable" I uni0328
EndChar

StartChar: Lslash
Encoding: 321 321 148
Width: 614
GlyphClass: 2
Flags: W
AnchorPoint: "Anchor-3" 312 -20 basechar 0
AnchorPoint: "Anchor-0" 282 692 basechar 0
LayerCount: 2
Fore
SplineSet
65 203 m 1,0,-1
 43 257 l 1,1,-1
 183 323 l 1,2,-1
 237 345 l 1,3,-1
 477 462 l 1,4,-1
 499 409 l 1,5,-1
 223 276 l 1,6,-1
 170 253 l 1,7,-1
 65 203 l 1,0,-1
101 0 m 1,8,-1
 236 672 l 1,9,-1
 315 672 l 1,10,-1
 195 68 l 1,11,-1
 527 68 l 1,12,-1
 514 0 l 1,13,-1
 101 0 l 1,8,-1
EndSplineSet
EndChar

StartChar: uni01EA
Encoding: 490 490 170
Width: 614
GlyphClass: 2
Flags: W
AnchorPoint: "Anchor-0" 382 692 basechar 0
LayerCount: 2
Fore
SplineSet
217 -230 m 0,0,1
 179 -230 179 -230 151 -212 c 128,-1,2
 123 -194 123 -194 123 -154 c 0,3,4
 123 -124 123 -124 137.5 -97 c 128,-1,5
 152 -70 152 -70 175 -48 c 128,-1,6
 198 -26 198 -26 223 -10 c 1,7,8
 172 -2 172 -2 131 30 c 128,-1,9
 90 62 90 62 66 118 c 128,-1,10
 42 174 42 174 42 253 c 0,11,12
 42 318 42 318 56.5 380 c 128,-1,13
 71 442 71 442 98.5 497 c 128,-1,14
 126 552 126 552 165 594 c 128,-1,15
 204 636 204 636 254 660 c 128,-1,16
 304 684 304 684 364 684 c 0,17,18
 433 684 433 684 481 651 c 128,-1,19
 529 618 529 618 555 558.5 c 128,-1,20
 581 499 581 499 581 419 c 0,21,22
 581 346 581 346 563 275.5 c 128,-1,23
 545 205 545 205 510.5 146 c 128,-1,24
 476 87 476 87 426 46.5 c 128,-1,25
 376 6 376 6 312 -8 c 0,26,27
 268 -17 268 -17 240.5 -39.5 c 128,-1,28
 213 -62 213 -62 200 -87 c 128,-1,29
 187 -112 187 -112 187 -129 c 0,30,31
 187 -153 187 -153 203.5 -164.5 c 128,-1,32
 220 -176 220 -176 244 -176 c 0,33,34
 258 -176 258 -176 269.5 -171.5 c 128,-1,35
 281 -167 281 -167 292 -160 c 1,36,-1
 310 -200 l 1,37,38
 293 -214 293 -214 268.5 -222 c 128,-1,39
 244 -230 244 -230 217 -230 c 0,0,1
267 55 m 0,40,41
 311 55 311 55 347.5 76 c 128,-1,42
 384 97 384 97 412.5 133.5 c 128,-1,43
 441 170 441 170 460 217 c 128,-1,44
 479 264 479 264 489.5 317 c 128,-1,45
 500 370 500 370 500 423 c 0,46,47
 500 481 500 481 484.5 524.5 c 128,-1,48
 469 568 469 568 437.5 591.5 c 128,-1,49
 406 615 406 615 356 615 c 0,50,51
 312 615 312 615 276 594 c 128,-1,52
 240 573 240 573 211 537 c 128,-1,53
 182 501 182 501 163 454 c 128,-1,54
 144 407 144 407 133.5 354.5 c 128,-1,55
 123 302 123 302 123 250 c 0,56,57
 123 190 123 190 139 146 c 128,-1,58
 155 102 155 102 186.5 78.5 c 128,-1,59
 218 55 218 55 267 55 c 0,40,41
EndSplineSet
Ligature2: "'ccmp' Glyph Composition/Decomposition lookup 7 subtable" O uni0328
EndChar

StartChar: Ohorn
Encoding: 416 416 178
Width: 614
GlyphClass: 2
Flags: W
AnchorPoint: "Anchor-3" 239 -20 basechar 0
AnchorPoint: "Anchor-0" 382 692 basechar 0
LayerCount: 2
Fore
SplineSet
506 618 m 1,0,-1
 469 655 l 1,1,2
 523 658 523 658 553 685 c 128,-1,3
 583 712 583 712 583 756 c 0,4,5
 583 768 583 768 580.5 782 c 128,-1,6
 578 796 578 796 572 809 c 1,7,-1
 637 831 l 1,8,9
 643 813 643 813 646.5 796.5 c 128,-1,10
 650 780 650 780 650 765 c 0,11,12
 650 721 650 721 631.5 690.5 c 128,-1,13
 613 660 613 660 580.5 642.5 c 128,-1,14
 548 625 548 625 506 618 c 1,0,-1
260 -12 m 0,15,16
 191 -12 191 -12 142.5 21 c 128,-1,17
 94 54 94 54 68 113.5 c 128,-1,18
 42 173 42 173 42 253 c 0,19,20
 42 318 42 318 56.5 380 c 128,-1,21
 71 442 71 442 98.5 497 c 128,-1,22
 126 552 126 552 165 594 c 128,-1,23
 204 636 204 636 254 660 c 128,-1,24
 304 684 304 684 364 684 c 0,25,26
 433 684 433 684 481 651 c 128,-1,27
 529 618 529 618 555 558.5 c 128,-1,28
 581 499 581 499 581 419 c 0,29,30
 581 354 581 354 566.5 292 c 128,-1,31
 552 230 552 230 525 175 c 128,-1,32
 498 120 498 120 459 78 c 128,-1,33
 420 36 420 36 369.5 12 c 128,-1,34
 319 -12 319 -12 260 -12 c 0,15,16
267 56 m 0,35,36
 311 56 311 56 347.5 77 c 128,-1,37
 384 98 384 98 412.5 134.5 c 128,-1,38
 441 171 441 171 460 218 c 128,-1,39
 479 265 479 265 489.5 318 c 128,-1,40
 500 371 500 371 500 423 c 0,41,42
 500 481 500 481 484.5 524.5 c 128,-1,43
 469 568 469 568 437.5 591.5 c 128,-1,44
 406 615 406 615 356 615 c 0,45,46
 312 615 312 615 276 594 c 128,-1,47
 240 573 240 573 211 537 c 128,-1,48
 182 501 182 501 163 454 c 128,-1,49
 144 407 144 407 133.5 354.5 c 128,-1,50
 123 302 123 302 123 250 c 0,51,52
 123 191 123 191 139 147 c 128,-1,53
 155 103 155 103 186.5 79.5 c 128,-1,54
 218 56 218 56 267 56 c 0,35,36
EndSplineSet
EndChar

StartChar: Oslash
Encoding: 216 216 185
Width: 614
GlyphClass: 2
Flags: W
AnchorPoint: "Anchor-2" 244 0 basechar 0
AnchorPoint: "Anchor-0" 379 692 basechar 0
LayerCount: 2
Fore
SplineSet
260 -12 m 0,0,1
 191 -12 191 -12 142.5 21 c 128,-1,2
 94 54 94 54 68 114 c 128,-1,3
 42 174 42 174 42 253 c 0,4,5
 42 318 42 318 56.5 380 c 128,-1,6
 71 442 71 442 98 497 c 128,-1,7
 125 552 125 552 164.5 594 c 128,-1,8
 204 636 204 636 254 660 c 128,-1,9
 304 684 304 684 364 684 c 0,10,11
 433 684 433 684 481 650.5 c 128,-1,12
 529 617 529 617 555 558 c 128,-1,13
 581 499 581 499 581 419 c 0,14,15
 581 356 581 356 566.5 293 c 128,-1,16
 552 230 552 230 525 175 c 128,-1,17
 498 120 498 120 459 78 c 128,-1,18
 420 36 420 36 369.5 12 c 128,-1,19
 319 -12 319 -12 260 -12 c 0,0,1
267 56 m 0,20,21
 311 56 311 56 347.5 77 c 128,-1,22
 384 98 384 98 412.5 134.5 c 128,-1,23
 441 171 441 171 461 218 c 128,-1,24
 481 265 481 265 491.5 318 c 128,-1,25
 502 371 502 371 502 423 c 0,26,27
 502 482 502 482 486 525 c 128,-1,28
 470 568 470 568 438 591.5 c 128,-1,29
 406 615 406 615 356 615 c 0,30,31
 312 615 312 615 275.5 594 c 128,-1,32
 239 573 239 573 210 537 c 128,-1,33
 181 501 181 501 161 454 c 128,-1,34
 141 407 141 407 131 354.5 c 128,-1,35
 121 302 121 302 121 250 c 0,36,37
 121 191 121 191 137.5 147 c 128,-1,38
 154 103 154 103 186.5 79.5 c 128,-1,39
 219 56 219 56 267 56 c 0,20,21
35 -35 m 1,40,-1
 -14 6 l 1,41,-1
 590 707 l 1,42,-1
 640 666 l 1,43,-1
 35 -35 l 1,40,-1
EndSplineSet
EndChar

StartChar: OE
Encoding: 338 338 187
Width: 614
GlyphClass: 2
Flags: W
AnchorPoint: "Anchor-2" 369 0 basechar 0
AnchorPoint: "Anchor-0" 409 692 basechar 0
LayerCount: 2
Fore
SplineSet
265 0 m 2,0,1
 181 0 181 0 129 30 c 128,-1,2
 77 60 77 60 52.5 116.5 c 128,-1,3
 28 173 28 173 28 252 c 0,4,5
 28 344 28 344 54 421.5 c 128,-1,6
 80 499 80 499 127.5 555 c 128,-1,7
 175 611 175 611 240.5 641.5 c 128,-1,8
 306 672 306 672 384 672 c 2,9,-1
 668 672 l 1,10,-1
 654 605 l 1,11,-1
 451 605 l 1,12,-1
 408 387 l 1,13,-1
 562 387 l 1,14,-1
 548 319 l 1,15,-1
 395 319 l 1,16,-1
 343 68 l 1,17,-1
 556 68 l 1,18,-1
 542 0 l 1,19,-1
 265 0 l 2,0,1
268 66 m 2,20,-1
 272 66 l 1,21,-1
 381 607 l 1,22,-1
 373 607 l 2,23,24
 313 607 313 607 264.5 580 c 128,-1,25
 216 553 216 553 181 505.5 c 128,-1,26
 146 458 146 458 128 394 c 128,-1,27
 110 330 110 330 110 257 c 0,28,29
 110 198 110 198 125 154.5 c 128,-1,30
 140 111 140 111 175 88.5 c 128,-1,31
 210 66 210 66 268 66 c 2,20,-1
EndSplineSet
EndChar

StartChar: uni1E9E
Encoding: 7838 7838 203
Width: 614
GlyphClass: 1
Flags: W
LayerCount: 2
Fore
SplineSet
345 -12 m 0,0,1
 290 -12 290 -12 249.5 10.5 c 128,-1,2
 209 33 209 33 186 62 c 1,3,-1
 228 113 l 1,4,5
 248 85 248 85 275 69.5 c 128,-1,6
 302 54 302 54 341 54 c 0,7,8
 382 54 382 54 412.5 71 c 128,-1,9
 443 88 443 88 460 116 c 128,-1,10
 477 144 477 144 477 179 c 0,11,12
 477 236 477 236 436.5 269 c 128,-1,13
 396 302 396 302 321 321 c 1,14,-1
 325 373 l 1,15,-1
 505 558 l 1,16,-1
 500 528 l 1,17,18
 488 569 488 569 457 595 c 128,-1,19
 426 621 426 621 380 621 c 256,20,21
 334 621 334 621 295 601 c 128,-1,22
 256 581 256 581 227.5 539.5 c 128,-1,23
 199 498 199 498 185 431 c 2,24,-1
 99 0 l 1,25,-1
 19 0 l 1,26,-1
 110 449 l 2,27,28
 130 558 130 558 200 621 c 128,-1,29
 270 684 270 684 383 684 c 0,30,31
 457 684 457 684 505.5 644 c 128,-1,32
 554 604 554 604 569 534 c 1,33,-1
 383 343 l 1,34,-1
 380 366 l 1,35,36
 434 352 434 352 473.5 326.5 c 128,-1,37
 513 301 513 301 534.5 265 c 128,-1,38
 556 229 556 229 556 180 c 0,39,40
 556 127 556 127 531 83 c 128,-1,41
 506 39 506 39 459 13.5 c 128,-1,42
 412 -12 412 -12 345 -12 c 0,0,1
EndSplineSet
EndChar

StartChar: Tbar
Encoding: 358 358 209
Width: 614
GlyphClass: 2
Flags: W
AnchorPoint: "Anchor-3" 241 -20 basechar 0
AnchorPoint: "Anchor-0" 382 692 basechar 0
LayerCount: 2
Fore
SplineSet
131 334 m 1,0,-1
 141 385 l 1,1,-1
 219 391 l 1,2,-1
 498 391 l 1,3,-1
 485 334 l 1,4,-1
 131 334 l 1,0,-1
203 0 m 1,5,-1
 324 603 l 1,6,-1
 100 603 l 1,7,-1
 114 672 l 1,8,-1
 640 672 l 1,9,-1
 626 603 l 1,10,-1
 402 603 l 1,11,-1
 283 0 l 1,12,-1
 203 0 l 1,5,-1
EndSplineSet
EndChar

StartChar: Uogonek
Encoding: 370 370 220
Width: 614
GlyphClass: 2
Flags: W
AnchorPoint: "Anchor-0" 382 694 basechar 0
LayerCount: 2
Fore
SplineSet
217 -230 m 0,0,1
 179 -230 179 -230 151 -212 c 128,-1,2
 123 -194 123 -194 123 -154 c 0,3,4
 123 -124 123 -124 137.5 -97 c 128,-1,5
 152 -70 152 -70 175 -47.5 c 128,-1,6
 198 -25 198 -25 220 -9 c 1,7,8
 152 2 152 2 109 50.5 c 128,-1,9
 66 99 66 99 66 190 c 0,10,11
 66 215 66 215 68.5 237 c 128,-1,12
 71 259 71 259 76 286 c 2,13,-1
 153 672 l 1,14,-1
 232 672 l 1,15,-1
 156 284 l 2,16,17
 150 260 150 260 147 239.5 c 128,-1,18
 144 219 144 219 144 200 c 0,19,20
 144 132 144 132 176.5 94 c 128,-1,21
 209 56 209 56 271 56 c 0,22,23
 310 56 310 56 343 75 c 128,-1,24
 376 94 376 94 401.5 138.5 c 128,-1,25
 427 183 427 183 442 258 c 2,26,-1
 524 672 l 1,27,-1
 602 672 l 1,28,-1
 518 250 l 2,29,30
 503 173 503 173 477 121.5 c 128,-1,31
 451 70 451 70 413 39 c 128,-1,32
 375 8 375 8 323 -7 c 0,33,34
 278 -19 278 -19 247.5 -39.5 c 128,-1,35
 217 -60 217 -60 202 -84.5 c 128,-1,36
 187 -109 187 -109 187 -129 c 0,37,38
 187 -153 187 -153 203.5 -164.5 c 128,-1,39
 220 -176 220 -176 244 -176 c 0,40,41
 258 -176 258 -176 269.5 -171.5 c 128,-1,42
 281 -167 281 -167 292 -160 c 1,43,-1
 310 -200 l 1,44,45
 293 -214 293 -214 268.5 -222 c 128,-1,46
 244 -230 244 -230 217 -230 c 0,0,1
EndSplineSet
Ligature2: "'ccmp' Glyph Composition/Decomposition lookup 7 subtable" U uni0328
EndChar

StartChar: Uhorn
Encoding: 431 431 227
Width: 614
GlyphClass: 2
Flags: W
AnchorPoint: "Anchor-3" 239 -20 basechar 0
AnchorPoint: "Anchor-0" 382 692 basechar 0
LayerCount: 2
Fore
SplineSet
591 635 m 1,0,-1
 557 672 l 1,1,2
 608 675 608 675 635.5 700 c 128,-1,3
 663 725 663 725 663 766 c 0,4,5
 663 778 663 778 660.5 792 c 128,-1,6
 658 806 658 806 653 819 c 1,7,-1
 717 842 l 1,8,9
 723 824 723 824 726.5 807.5 c 128,-1,10
 730 791 730 791 730 775 c 0,11,12
 730 733 730 733 712 704.5 c 128,-1,13
 694 676 694 676 663 658.5 c 128,-1,14
 632 641 632 641 591 635 c 1,0,-1
261 -12 m 0,15,16
 167 -12 167 -12 116.5 42.5 c 128,-1,17
 66 97 66 97 66 190 c 0,18,19
 66 215 66 215 68.5 237 c 128,-1,20
 71 259 71 259 76 286 c 2,21,-1
 153 672 l 1,22,-1
 232 672 l 1,23,-1
 156 284 l 2,24,25
 150 260 150 260 147 239.5 c 128,-1,26
 144 219 144 219 144 200 c 0,27,28
 144 132 144 132 176.5 94 c 128,-1,29
 209 56 209 56 271 56 c 0,30,31
 310 56 310 56 343 75 c 128,-1,32
 376 94 376 94 401.5 138.5 c 128,-1,33
 427 183 427 183 442 258 c 2,34,-1
 524 672 l 1,35,-1
 602 672 l 1,36,-1
 518 250 l 2,37,38
 499 152 499 152 462 95 c 128,-1,39
 425 38 425 38 373.5 13 c 128,-1,40
 322 -12 322 -12 261 -12 c 0,15,16
EndSplineSet
EndChar

StartChar: Eth
Encoding: 208 208 252
Width: 614
GlyphClass: 2
Flags: W
AnchorPoint: "Anchor-3" 229 -20 basechar 0
AnchorPoint: "Anchor-0" 373 692 basechar 0
LayerCount: 2
Fore
SplineSet
328 326 m 1,0,-1
 25 326 l 1,1,-1
 39 379 l 1,2,-1
 119 383 l 1,3,-1
 342 383 l 1,4,-1
 328 326 l 1,0,-1
38 0 m 1,5,-1
 172 672 l 1,6,-1
 306 672 l 2,7,8
 443 672 443 672 514.5 603.5 c 128,-1,9
 586 535 586 535 586 410 c 0,10,11
 586 319 586 319 561.5 243.5 c 128,-1,12
 537 168 537 168 489 113.5 c 128,-1,13
 441 59 441 59 373 29.5 c 128,-1,14
 305 0 305 0 219 0 c 2,15,-1
 38 0 l 1,5,-1
130 66 m 1,16,-1
 219 66 l 2,17,18
 308 66 308 66 371.5 107 c 128,-1,19
 435 148 435 148 469.5 224.5 c 128,-1,20
 504 301 504 301 504 404 c 0,21,22
 504 501 504 501 452.5 554 c 128,-1,23
 401 607 401 607 303 607 c 2,24,-1
 239 607 l 1,25,-1
 130 66 l 1,16,-1
EndSplineSet
EndChar

StartChar: Thorn
Encoding: 222 222 253
Width: 614
GlyphClass: 1
Flags: W
LayerCount: 2
Fore
SplineSet
45 0 m 1,0,-1
 179 672 l 1,1,-1
 259 672 l 1,2,-1
 237 556 l 1,3,-1
 361 556 l 2,4,5
 421 556 421 556 467.5 539 c 128,-1,6
 514 522 514 522 539.5 486 c 128,-1,7
 565 450 565 450 565 391 c 0,8,9
 565 330 565 330 543.5 285 c 128,-1,10
 522 240 522 240 482.5 210.5 c 128,-1,11
 443 181 443 181 389 167.5 c 128,-1,12
 335 154 335 154 270 154 c 2,13,-1
 155 154 l 1,14,-1
 125 0 l 1,15,-1
 45 0 l 1,0,-1
169 218 m 1,16,-1
 273 218 l 2,17,18
 377 218 377 218 431.5 259.5 c 128,-1,19
 486 301 486 301 486 381 c 0,20,21
 486 440 486 440 448.5 466 c 128,-1,22
 411 492 411 492 338 492 c 2,23,-1
 222 492 l 1,24,-1
 169 218 l 1,16,-1
EndSplineSet
EndChar

StartChar: uni018F
Encoding: 399 399 254
Width: 614
GlyphClass: 2
Flags: W
AnchorPoint: "Anchor-6" 259 0 basechar 0
AnchorPoint: "Anchor-3" 252 -20 basechar 0
AnchorPoint: "Anchor-2" 259 0 basechar 0
AnchorPoint: "Anchor-0" 379 692 basechar 0
LayerCount: 2
Fore
SplineSet
242 -12 m 0,0,1
 157 -12 157 -12 106.5 46 c 128,-1,2
 56 104 56 104 56 224 c 0,3,4
 56 259 56 259 61.5 292 c 128,-1,5
 67 325 67 325 72 353 c 1,6,-1
 514 353 l 1,7,-1
 502 293 l 1,8,-1
 138 293 l 1,9,10
 129 220 129 220 137.5 166.5 c 128,-1,11
 146 113 146 113 174 83 c 128,-1,12
 202 53 202 53 250 53 c 0,13,14
 303 53 303 53 348.5 81.5 c 128,-1,15
 394 110 394 110 428 160.5 c 128,-1,16
 462 211 462 211 481 279.5 c 128,-1,17
 500 348 500 348 500 428 c 0,18,19
 500 516 500 516 466.5 567 c 128,-1,20
 433 618 433 618 364 618 c 0,21,22
 318 618 318 618 273.5 599.5 c 128,-1,23
 229 581 229 581 197 553 c 1,24,-1
 163 607 l 1,25,26
 201 639 201 639 257.5 662 c 128,-1,27
 314 685 314 685 379 685 c 0,28,29
 478 685 478 685 528.5 619 c 128,-1,30
 579 553 579 553 579 435 c 0,31,32
 579 338 579 338 553 256 c 128,-1,33
 527 174 527 174 481.5 114 c 128,-1,34
 436 54 436 54 375 21 c 128,-1,35
 314 -12 314 -12 242 -12 c 0,0,1
EndSplineSet
EndChar

StartChar: Eng
Encoding: 330 330 255
Width: 614
GlyphClass: 2
Flags: W
AnchorPoint: "Anchor-3" 250 -20 basechar 0
AnchorPoint: "Anchor-0" 389 692 basechar 0
LayerCount: 2
Fore
SplineSet
329 -12 m 0,0,1
 309 -12 309 -12 284 -7 c 128,-1,2
 259 -2 259 -2 244 6 c 1,3,-1
 275 70 l 1,4,5
 285 65 285 65 296.5 60.5 c 128,-1,6
 308 56 308 56 323 56 c 0,7,8
 357 56 357 56 387 90 c 128,-1,9
 417 124 417 124 440 180.5 c 128,-1,10
 463 237 463 237 476 306.5 c 128,-1,11
 489 376 489 376 489 447 c 0,12,13
 489 510 489 510 474.5 547 c 128,-1,14
 460 584 460 584 434 599.5 c 128,-1,15
 408 615 408 615 373 615 c 0,16,17
 340 615 340 615 293.5 591.5 c 128,-1,18
 247 568 247 568 203 523 c 1,19,-1
 99 0 l 1,20,-1
 19 0 l 1,21,-1
 154 672 l 1,22,-1
 230 672 l 1,23,-1
 215 598 l 1,24,25
 241 624 241 624 272.5 643.5 c 128,-1,26
 304 663 304 663 337 673.5 c 128,-1,27
 370 684 370 684 398 684 c 0,28,29
 476 684 476 684 523 631.5 c 128,-1,30
 570 579 570 579 570 456 c 0,31,32
 570 365 570 365 553 280.5 c 128,-1,33
 536 196 536 196 504 130.5 c 128,-1,34
 472 65 472 65 427.5 26.5 c 128,-1,35
 383 -12 383 -12 329 -12 c 0,0,1
EndSplineSet
Substitution2: "'ss05' Style Set 5 lookup 0 subtable" uni014A.a
EndChar

StartChar: IJ
Encoding: 306 306 256
Width: 614
GlyphClass: 1
Flags: W
LayerCount: 2
Fore
SplineSet
44 0 m 1,0,-1
 178 672 l 1,1,-1
 258 672 l 1,2,-1
 124 0 l 1,3,-1
 44 0 l 1,0,-1
295 -166 m 0,4,5
 271 -166 271 -166 253.5 -160.5 c 128,-1,6
 236 -155 236 -155 218 -146 c 1,7,-1
 244 -86 l 1,8,9
 254 -92 254 -92 264.5 -96 c 128,-1,10
 275 -100 275 -100 291 -100 c 0,11,12
 320 -100 320 -100 337 -75.5 c 128,-1,13
 354 -51 354 -51 364 -7 c 2,14,-1
 500 672 l 1,15,-1
 580 672 l 1,16,-1
 444 -5 l 2,17,18
 435 -52 435 -52 416 -88.5 c 128,-1,19
 397 -125 397 -125 367.5 -145.5 c 128,-1,20
 338 -166 338 -166 295 -166 c 0,4,5
EndSplineSet
EndChar

StartChar: uni004C00B7004C
Encoding: 1114114 -1 257
Width: 614
GlyphClass: 1
Flags: W
LayerCount: 2
Fore
SplineSet
-4 0 m 1,0,-1
 130 672 l 1,1,-1
 207 672 l 1,2,-1
 86 68 l 1,3,-1
 253 68 l 1,4,-1
 240 0 l 1,5,-1
 -4 0 l 1,0,-1
252 288 m 0,6,7
 223 288 223 288 205 307.5 c 128,-1,8
 187 327 187 327 187 357 c 0,9,10
 187 396 187 396 214.5 425.5 c 128,-1,11
 242 455 242 455 280 455 c 0,12,13
 310 455 310 455 327 435 c 128,-1,14
 344 415 344 415 344 384 c 0,15,16
 344 346 344 346 317.5 317 c 128,-1,17
 291 288 291 288 252 288 c 0,6,7
311 0 m 1,18,-1
 445 672 l 1,19,-1
 522 672 l 1,20,-1
 401 68 l 1,21,-1
 568 68 l 1,22,-1
 555 0 l 1,23,-1
 311 0 l 1,18,-1
EndSplineSet
Ligature2: "'ccmp' Glyph Composition/Decomposition lookup 7 subtable" L periodcentered L
EndChar

StartChar: aringacute
Encoding: 507 507 267
Width: 614
GlyphClass: 1
Flags: W
LayerCount: 2
Fore
SplineSet
367 727 m 1,0,-1
 341 752 l 1,1,-1
 485 863 l 1,2,-1
 521 821 l 1,3,-1
 367 727 l 1,0,-1
224 -12 m 0,4,5
 146 -12 146 -12 99.5 36.5 c 128,-1,6
 53 85 53 85 53 178 c 0,7,8
 53 246 53 246 74 305.5 c 128,-1,9
 95 365 95 365 133 411 c 128,-1,10
 171 457 171 457 220 483.5 c 128,-1,11
 269 510 269 510 327 510 c 0,12,13
 380 510 380 510 419.5 489.5 c 128,-1,14
 459 469 459 469 479 435 c 1,15,-1
 483 435 l 1,16,-1
 503 498 l 1,17,-1
 566 498 l 1,18,-1
 467 0 l 1,19,-1
 402 0 l 1,20,-1
 411 76 l 1,21,-1
 407 76 l 1,22,23
 368 36 368 36 320 12 c 128,-1,24
 272 -12 272 -12 224 -12 c 0,4,5
248 53 m 0,25,26
 289 53 289 53 333.5 77.5 c 128,-1,27
 378 102 378 102 419 150 c 1,28,-1
 465 371 l 1,29,30
 439 411 439 411 405.5 427.5 c 128,-1,31
 372 444 372 444 337 444 c 0,32,33
 295 444 295 444 257.5 423 c 128,-1,34
 220 402 220 402 192.5 367 c 128,-1,35
 165 332 165 332 149.5 286 c 128,-1,36
 134 240 134 240 134 190 c 0,37,38
 134 120 134 120 165.5 86.5 c 128,-1,39
 197 53 197 53 248 53 c 0,25,26
381 569 m 0,40,41
 340 569 340 569 312 591 c 128,-1,42
 284 613 284 613 284 653 c 0,43,44
 284 700 284 700 317.5 733.5 c 128,-1,45
 351 767 351 767 404 767 c 0,46,47
 446 767 446 767 474.5 745.5 c 128,-1,48
 503 724 503 724 503 683 c 0,49,50
 503 637 503 637 469 603 c 128,-1,51
 435 569 435 569 381 569 c 0,40,41
386 606 m 0,52,53
 412 606 412 606 431 628 c 128,-1,54
 450 650 450 650 450 680 c 0,55,56
 450 703 450 703 437 716.5 c 128,-1,57
 424 730 424 730 399 730 c 0,58,59
 373 730 373 730 355 708.5 c 128,-1,60
 337 687 337 687 337 656 c 0,61,62
 337 633 337 633 349.5 619.5 c 128,-1,63
 362 606 362 606 386 606 c 0,52,53
EndSplineSet
Substitution2: "'ss02' Style Set 2 lookup 25 subtable" aringacute.a
EndChar

StartChar: aogonek
Encoding: 261 261 269
Width: 614
GlyphClass: 2
Flags: W
AnchorPoint: "Anchor-0" 361 519 basechar 0
LayerCount: 2
Fore
SplineSet
375 -230 m 0,0,1
 337 -230 337 -230 309 -211.5 c 128,-1,2
 281 -193 281 -193 281 -152 c 0,3,4
 281 -117 281 -117 298.5 -88 c 128,-1,5
 316 -59 316 -59 344.5 -37 c 128,-1,6
 373 -15 373 -15 402 1 c 1,7,-1
 411 76 l 1,8,-1
 407 76 l 1,9,10
 368 36 368 36 320 12 c 128,-1,11
 272 -12 272 -12 224 -12 c 0,12,13
 146 -12 146 -12 99.5 36.5 c 128,-1,14
 53 85 53 85 53 178 c 0,15,16
 53 246 53 246 74 305.5 c 128,-1,17
 95 365 95 365 133 411 c 128,-1,18
 171 457 171 457 220 483.5 c 128,-1,19
 269 510 269 510 327 510 c 0,20,21
 380 510 380 510 419.5 489.5 c 128,-1,22
 459 469 459 469 479 435 c 1,23,-1
 483 435 l 1,24,-1
 503 498 l 1,25,-1
 566 498 l 1,26,-1
 466 -5 l 1,27,28
 404 -32 404 -32 373 -63.5 c 128,-1,29
 342 -95 342 -95 342 -129 c 0,30,31
 342 -154 342 -154 359 -166 c 128,-1,32
 376 -178 376 -178 400 -178 c 0,33,34
 415 -178 415 -178 427 -174 c 128,-1,35
 439 -170 439 -170 452 -162 c 1,36,-1
 469 -198 l 1,37,38
 452 -212 452 -212 428 -221 c 128,-1,39
 404 -230 404 -230 375 -230 c 0,0,1
248 53 m 0,40,41
 289 53 289 53 333.5 77.5 c 128,-1,42
 378 102 378 102 419 150 c 1,43,-1
 465 371 l 1,44,45
 439 411 439 411 405.5 427.5 c 128,-1,46
 372 444 372 444 337 444 c 0,47,48
 295 444 295 444 257.5 423 c 128,-1,49
 220 402 220 402 192.5 367 c 128,-1,50
 165 332 165 332 149.5 286 c 128,-1,51
 134 240 134 240 134 190 c 0,52,53
 134 120 134 120 165.5 86.5 c 128,-1,54
 197 53 197 53 248 53 c 0,40,41
EndSplineSet
Substitution2: "'ss02' Style Set 2 lookup 25 subtable" aogonek.a
Ligature2: "'ccmp' Glyph Composition/Decomposition lookup 7 subtable" a uni0328
EndChar

StartChar: ae
Encoding: 230 230 282
Width: 614
GlyphClass: 2
Flags: W
AnchorPoint: "Anchor-3" 262 -20 basechar 0
AnchorPoint: "Anchor-2" 402 0 basechar 0
AnchorPoint: "Anchor-0" 348 519 basechar 0
LayerCount: 2
Fore
SplineSet
90 -12 m 0,0,1
 37 -12 37 -12 7 17.5 c 128,-1,2
 -23 47 -23 47 -23 99 c 0,3,4
 -23 193 -23 193 56 243 c 128,-1,5
 135 293 135 293 287 315 c 1,6,-1
 282 264 l 1,7,8
 207 252 207 252 155 232.5 c 128,-1,9
 103 213 103 213 77 185 c 128,-1,10
 51 157 51 157 51 115 c 0,11,12
 51 83 51 83 68 66.5 c 128,-1,13
 85 50 85 50 112 50 c 0,14,15
 145 50 145 50 186 73 c 128,-1,16
 227 96 227 96 259 135 c 1,17,-1
 281 91 l 1,18,19
 234 38 234 38 184.5 13 c 128,-1,20
 135 -12 135 -12 90 -12 c 0,0,1
307 229 m 1,21,-1
 312 290 l 1,22,-1
 555 290 l 1,23,-1
 540 275 l 1,24,25
 545 295 545 295 547 314.5 c 128,-1,26
 549 334 549 334 549 351 c 0,27,28
 549 396 549 396 533 421.5 c 128,-1,29
 517 447 517 447 481 447 c 0,30,31
 447 447 447 447 417.5 424.5 c 128,-1,32
 388 402 388 402 365.5 364 c 128,-1,33
 343 326 343 326 330 276.5 c 128,-1,34
 317 227 317 227 317 173 c 256,35,36
 317 119 317 119 341.5 84.5 c 128,-1,37
 366 50 366 50 415 50 c 0,38,39
 446 50 446 50 473 60 c 128,-1,40
 500 70 500 70 526 88 c 1,41,-1
 551 37 l 1,42,43
 524 17 524 17 484.5 2.5 c 128,-1,44
 445 -12 445 -12 406 -12 c 0,45,46
 365 -12 365 -12 335.5 2.5 c 128,-1,47
 306 17 306 17 287.5 41.5 c 128,-1,48
 269 66 269 66 260.5 95.5 c 128,-1,49
 252 125 252 125 252 155 c 0,50,51
 252 181 252 181 253.5 203 c 128,-1,52
 255 225 255 225 259.5 250.5 c 128,-1,53
 264 276 264 276 273 311 c 0,54,55
 287 370 287 370 271 408 c 128,-1,56
 255 446 255 446 204 446 c 0,57,58
 170 446 170 446 137.5 432.5 c 128,-1,59
 105 419 105 419 81 401 c 1,60,-1
 52 451 l 1,61,62
 82 473 82 473 126 491.5 c 128,-1,63
 170 510 170 510 222 510 c 0,64,65
 273 510 273 510 303.5 479.5 c 128,-1,66
 334 449 334 449 337 398 c 1,67,-1
 326 400 l 1,68,69
 359 455 359 455 404.5 482.5 c 128,-1,70
 450 510 450 510 497 510 c 0,71,72
 538 510 538 510 563.5 488.5 c 128,-1,73
 589 467 589 467 601 431.5 c 128,-1,74
 613 396 613 396 613 354 c 0,75,76
 613 308 613 308 605.5 277.5 c 128,-1,77
 598 247 598 247 592 229 c 1,78,-1
 307 229 l 1,21,-1
EndSplineSet
EndChar

StartChar: uni0180
Encoding: 384 384 285
Width: 614
GlyphClass: 1
Flags: W
LayerCount: 2
Fore
SplineSet
276 -12 m 0,0,1
 227 -12 227 -12 187 9 c 128,-1,2
 147 30 147 30 124 62 c 1,3,-1
 121 62 l 1,4,-1
 102 0 l 1,5,-1
 37 0 l 1,6,-1
 182 729 l 1,7,-1
 261 729 l 1,8,-1
 217 514 l 1,9,-1
 191 404 l 1,10,-1
 195 404 l 1,11,12
 233 440 233 440 280.5 464.5 c 128,-1,13
 328 489 328 489 378 489 c 0,14,15
 457 489 457 489 503.5 439.5 c 128,-1,16
 550 390 550 390 550 296 c 0,17,18
 550 231 550 231 529 175.5 c 128,-1,19
 508 120 508 120 470.5 77.5 c 128,-1,20
 433 35 433 35 383 11.5 c 128,-1,21
 333 -12 333 -12 276 -12 c 0,0,1
268 53 m 0,22,23
 310 53 310 53 346.5 71.5 c 128,-1,24
 383 90 383 90 410.5 122.5 c 128,-1,25
 438 155 438 155 453.5 196.5 c 128,-1,26
 469 238 469 238 469 285 c 0,27,28
 469 355 469 355 437.5 389.5 c 128,-1,29
 406 424 406 424 352 424 c 0,30,31
 313 424 313 424 266.5 398.5 c 128,-1,32
 220 373 220 373 181 328 c 1,33,-1
 140 125 l 1,34,35
 167 86 167 86 199.5 69.5 c 128,-1,36
 232 53 232 53 268 53 c 0,22,23
78 580 m 1,37,-1
 87 635 l 1,38,-1
 168 641 l 1,39,-1
 463 641 l 1,40,-1
 453 580 l 1,41,-1
 78 580 l 1,37,-1
EndSplineSet
EndChar

StartChar: dcaron
Encoding: 271 271 292
Width: 614
GlyphClass: 1
Flags: W
LayerCount: 2
Fore
SplineSet
198 -12 m 0,0,1
 128 -12 128 -12 85.5 36.5 c 128,-1,2
 43 85 43 85 43 178 c 0,3,4
 43 246 43 246 63 305.5 c 128,-1,5
 83 365 83 365 119.5 411 c 128,-1,6
 156 457 156 457 204.5 483.5 c 128,-1,7
 253 510 253 510 309 510 c 0,8,9
 354 510 354 510 389 491.5 c 128,-1,10
 424 473 424 473 444 441 c 1,11,-1
 447 441 l 1,12,-1
 464 539 l 1,13,-1
 503 729 l 1,14,-1
 581 729 l 1,15,-1
 434 0 l 1,16,-1
 370 0 l 1,17,-1
 376 68 l 1,18,-1
 372 68 l 1,19,20
 335 30 335 30 289.5 9 c 128,-1,21
 244 -12 244 -12 198 -12 c 0,0,1
229 53 m 0,22,23
 266 53 266 53 305.5 75 c 128,-1,24
 345 97 345 97 384 142 c 1,25,-1
 432 374 l 1,26,27
 407 412 407 412 378 428 c 128,-1,28
 349 444 349 444 315 444 c 0,29,30
 275 444 275 444 240.5 423 c 128,-1,31
 206 402 206 402 180 367 c 128,-1,32
 154 332 154 332 138.5 286 c 128,-1,33
 123 240 123 240 123 190 c 0,34,35
 123 120 123 120 152.5 86.5 c 128,-1,36
 182 53 182 53 229 53 c 0,22,23
622 561 m 1,37,-1
 671 836 l 1,38,-1
 744 836 l 1,39,-1
 727 753 l 1,40,-1
 673 561 l 1,41,-1
 622 561 l 1,37,-1
EndSplineSet
Ligature2: "'ccmp' Glyph Composition/Decomposition lookup 7 subtable" d uni030C
EndChar

StartChar: dcroat
Encoding: 273 273 296
Width: 614
GlyphClass: 2
Flags: W
AnchorPoint: "Anchor-3" 255 -20 basechar 0
AnchorPoint: "Anchor-0" 572 754 basechar 0
LayerCount: 2
Fore
SplineSet
219 -12 m 0,0,1
 141 -12 141 -12 95 36.5 c 128,-1,2
 49 85 49 85 49 178 c 0,3,4
 49 241 49 241 69.5 297 c 128,-1,5
 90 353 90 353 127.5 396.5 c 128,-1,6
 165 440 165 440 214 464.5 c 128,-1,7
 263 489 263 489 321 489 c 0,8,9
 374 489 374 489 410 469.5 c 128,-1,10
 446 450 446 450 468 417 c 1,11,-1
 471 417 l 1,12,-1
 488 514 l 1,13,-1
 531 729 l 1,14,-1
 609 729 l 1,15,-1
 463 0 l 1,16,-1
 398 0 l 1,17,-1
 406 76 l 1,18,-1
 401 76 l 1,19,20
 362 36 362 36 314.5 12 c 128,-1,21
 267 -12 267 -12 219 -12 c 0,0,1
244 53 m 0,22,23
 284 53 284 53 328.5 77.5 c 128,-1,24
 373 102 373 102 414 150 c 1,25,-1
 456 350 l 1,26,27
 430 389 430 389 398.5 406.5 c 128,-1,28
 367 424 367 424 331 424 c 0,29,30
 288 424 288 424 251 405 c 128,-1,31
 214 386 214 386 187 353.5 c 128,-1,32
 160 321 160 321 144.5 279 c 128,-1,33
 129 237 129 237 129 190 c 0,34,35
 129 120 129 120 160.5 86.5 c 128,-1,36
 192 53 192 53 244 53 c 0,22,23
324 580 m 1,37,-1
 334 641 l 1,38,-1
 664 641 l 1,39,-1
 655 586 l 1,40,-1
 575 580 l 1,41,-1
 324 580 l 1,37,-1
EndSplineSet
EndChar

StartChar: eogonek
Encoding: 281 281 304
Width: 614
GlyphClass: 2
Flags: W
AnchorPoint: "Anchor-0" 354 519 basechar 0
LayerCount: 2
Fore
SplineSet
344 -230 m 0,0,1
 306 -230 306 -230 278 -211.5 c 128,-1,2
 250 -193 250 -193 250 -152 c 0,3,4
 250 -121 250 -121 263 -95 c 128,-1,5
 276 -69 276 -69 298.5 -46 c 128,-1,6
 321 -23 321 -23 346 -2 c 1,7,8
 331 -6 331 -6 313 -9 c 128,-1,9
 295 -12 295 -12 276 -12 c 0,10,11
 211 -12 211 -12 164 12.5 c 128,-1,12
 117 37 117 37 91 85 c 128,-1,13
 65 133 65 133 65 203 c 0,14,15
 65 271 65 271 88 326.5 c 128,-1,16
 111 382 111 382 150 423.5 c 128,-1,17
 189 465 189 465 240.5 487.5 c 128,-1,18
 292 510 292 510 348 510 c 0,19,20
 439 510 439 510 488.5 455.5 c 128,-1,21
 538 401 538 401 538 318 c 0,22,23
 538 292 538 292 533 266 c 128,-1,24
 528 240 528 240 524 229 c 1,25,-1
 125 229 l 1,26,-1
 135 291 l 1,27,-1
 490 291 l 1,28,-1
 458 275 l 1,29,30
 461 286 461 286 462.5 298 c 128,-1,31
 464 310 464 310 464 322 c 0,32,33
 464 380 464 380 431.5 413.5 c 128,-1,34
 399 447 399 447 344 447 c 0,35,36
 308 447 308 447 272.5 430 c 128,-1,37
 237 413 237 413 207.5 381 c 128,-1,38
 178 349 178 349 160 305 c 128,-1,39
 142 261 142 261 142 207 c 0,40,41
 142 157 142 157 160.5 122 c 128,-1,42
 179 87 179 87 213 68.5 c 128,-1,43
 247 50 247 50 292 50 c 0,44,45
 341 50 341 50 384 68.5 c 128,-1,46
 427 87 427 87 462 115 c 1,47,-1
 492 61 l 1,48,49
 410 8 410 8 360.5 -39.5 c 128,-1,50
 311 -87 311 -87 311 -129 c 0,51,52
 311 -155 311 -155 328.5 -166.5 c 128,-1,53
 346 -178 346 -178 370 -178 c 0,54,55
 384 -178 384 -178 396.5 -174 c 128,-1,56
 409 -170 409 -170 421 -162 c 1,57,-1
 439 -198 l 1,58,59
 421 -212 421 -212 397.5 -221 c 128,-1,60
 374 -230 374 -230 344 -230 c 0,0,1
EndSplineSet
Substitution2: "'sups' Superscript lookup 19 subtable" eogonek.sups
Ligature2: "'ccmp' Glyph Composition/Decomposition lookup 7 subtable" e uni0328
EndChar

StartChar: hbar
Encoding: 295 295 329
Width: 614
GlyphClass: 1
Flags: W
LayerCount: 2
Fore
SplineSet
38 0 m 1,0,-1
 183 729 l 1,1,-1
 262 729 l 1,2,-1
 203 439 l 1,3,-1
 187 377 l 1,4,-1
 191 377 l 1,5,6
 222 408 222 408 256 433 c 128,-1,7
 290 458 290 458 329 473 c 128,-1,8
 368 488 368 488 412 488 c 0,9,10
 478 488 478 488 509 455 c 128,-1,11
 540 422 540 422 540 365 c 0,12,13
 540 343 540 343 537.5 323.5 c 128,-1,14
 535 304 535 304 529 284 c 2,15,-1
 473 0 l 1,16,-1
 394 0 l 1,17,-1
 450 274 l 2,18,19
 454 294 454 294 456.5 311 c 128,-1,20
 459 328 459 328 459 344 c 0,21,22
 459 382 459 382 439 401.5 c 128,-1,23
 419 421 419 421 380 421 c 0,24,25
 330 421 330 421 278.5 389 c 128,-1,26
 227 357 227 357 176 301 c 1,27,-1
 116 0 l 1,28,-1
 38 0 l 1,0,-1
78 580 m 1,29,-1
 86 635 l 1,30,-1
 168 641 l 1,31,-1
 463 641 l 1,32,-1
 453 580 l 1,33,-1
 78 580 l 1,29,-1
EndSplineSet
EndChar

StartChar: dotlessi
Encoding: 305 305 341
Width: 614
GlyphClass: 2
Flags: W
AnchorPoint: "Anchor-6" 373 0 basechar 0
AnchorPoint: "Anchor-3" 341 -20 basechar 0
AnchorPoint: "Anchor-2" 359 0 basechar 0
AnchorPoint: "Anchor-0" 328 519 basechar 0
LayerCount: 2
Fore
SplineSet
355 -12 m 0,0,1
 296 -12 296 -12 258.5 19.5 c 128,-1,2
 221 51 221 51 221 113 c 0,3,4
 221 125 221 125 223 139 c 128,-1,5
 225 153 225 153 229 167 c 2,6,-1
 289 434 l 1,7,-1
 106 434 l 1,8,-1
 120 498 l 1,9,-1
 380 498 l 1,10,-1
 305 160 l 2,11,12
 304 151 304 151 302.5 143 c 128,-1,13
 301 135 301 135 301 127 c 0,14,15
 301 88 301 88 322.5 70.5 c 128,-1,16
 344 53 344 53 378 53 c 0,17,18
 402 53 402 53 424 60.5 c 128,-1,19
 446 68 446 68 473 80 c 1,20,-1
 492 20 l 1,21,22
 460 6 460 6 428 -3 c 128,-1,23
 396 -12 396 -12 355 -12 c 0,0,1
EndSplineSet
EndChar

StartChar: kgreenlandic
Encoding: 312 312 346
Width: 614
GlyphClass: 1
Flags: W
LayerCount: 2
Fore
SplineSet
50 0 m 1,0,-1
 150 498 l 1,1,-1
 227 498 l 1,2,-1
 175 233 l 1,3,-1
 179 233 l 1,4,-1
 504 498 l 1,5,-1
 599 498 l 1,6,-1
 339 276 l 1,7,-1
 156 131 l 1,8,-1
 129 0 l 1,9,-1
 50 0 l 1,0,-1
303 263 m 1,10,-1
 356 315 l 1,11,-1
 521 0 l 1,12,-1
 439 0 l 1,13,-1
 303 263 l 1,10,-1
EndSplineSet
EndChar

StartChar: lslash
Encoding: 322 322 353
Width: 614
GlyphClass: 2
Flags: W
AnchorPoint: "Anchor-3" 331 -20 basechar 0
AnchorPoint: "Anchor-0" 358 754 basechar 0
LayerCount: 2
Fore
SplineSet
121 282 m 1,0,-1
 101 332 l 1,1,-1
 267 417 l 1,2,-1
 331 443 l 1,3,-1
 511 537 l 1,4,-1
 532 487 l 1,5,-1
 315 376 l 1,6,-1
 254 350 l 1,7,-1
 121 282 l 1,0,-1
333 -12 m 0,8,9
 276 -12 276 -12 238 21.5 c 128,-1,10
 200 55 200 55 200 120 c 0,11,12
 200 133 200 133 201.5 146.5 c 128,-1,13
 203 160 203 160 207 175 c 2,14,-1
 310 666 l 1,15,-1
 144 666 l 1,16,-1
 158 729 l 1,17,-1
 400 729 l 1,18,-1
 284 172 l 2,19,20
 282 161 282 161 280.5 149.5 c 128,-1,21
 279 138 279 138 279 127 c 0,22,23
 279 88 279 88 300 70.5 c 128,-1,24
 321 53 321 53 354 53 c 0,25,26
 379 53 379 53 402 60 c 128,-1,27
 425 67 425 67 452 81 c 1,28,-1
 471 20 l 1,29,30
 438 4 438 4 404 -4 c 128,-1,31
 370 -12 370 -12 333 -12 c 0,8,9
EndSplineSet
EndChar

StartChar: napostrophe
Encoding: 329 329 366
Width: 614
GlyphClass: 1
Flags: W
LayerCount: 2
Fore
SplineSet
144 0 m 1,0,-1
 244 498 l 1,1,-1
 308 498 l 1,2,-1
 297 402 l 1,3,-1
 301 402 l 1,4,5
 330 431 330 431 361.5 455.5 c 128,-1,6
 393 480 393 480 429.5 495 c 128,-1,7
 466 510 466 510 508 510 c 0,8,9
 569 510 569 510 596 476 c 128,-1,10
 623 442 623 442 623 386 c 0,11,12
 623 364 623 364 620.5 344.5 c 128,-1,13
 618 325 618 325 613 304 c 2,14,-1
 553 0 l 1,15,-1
 474 0 l 1,16,-1
 534 296 l 2,17,18
 538 315 538 315 540.5 331.5 c 128,-1,19
 543 348 543 348 543 366 c 0,20,21
 543 403 543 403 525.5 422.5 c 128,-1,22
 508 442 508 442 473 442 c 0,23,24
 427 442 427 442 382.5 412 c 128,-1,25
 338 382 338 382 289 331 c 1,26,-1
 223 0 l 1,27,-1
 144 0 l 1,0,-1
2 382 m 1,28,-1
 -9 428 l 1,29,30
 56 448 56 448 95.5 488 c 128,-1,31
 135 528 135 528 142 582 c 1,32,-1
 142 669 l 1,33,-1
 181 592 l 1,34,35
 167 579 167 579 149 570.5 c 128,-1,36
 131 562 131 562 113 562 c 0,37,38
 89 562 89 562 73.5 579.5 c 128,-1,39
 58 597 58 597 58 626 c 0,40,41
 58 664 58 664 84 690 c 128,-1,42
 110 716 110 716 144 716 c 0,43,44
 177 716 177 716 199 693.5 c 128,-1,45
 221 671 221 671 221 625 c 0,46,47
 221 569 221 569 194 520.5 c 128,-1,48
 167 472 167 472 118.5 436 c 128,-1,49
 70 400 70 400 2 382 c 1,28,-1
EndSplineSet
EndChar

StartChar: uni01EB
Encoding: 491 491 375
Width: 614
GlyphClass: 2
Flags: W
AnchorPoint: "Anchor-0" 348 519 basechar 0
LayerCount: 2
Fore
SplineSet
218 -230 m 0,0,1
 181 -230 181 -230 153 -211.5 c 128,-1,2
 125 -193 125 -193 125 -152 c 0,3,4
 125 -122 125 -122 139 -95 c 128,-1,5
 153 -68 153 -68 175 -45.5 c 128,-1,6
 197 -23 197 -23 219 -9 c 1,7,8
 144 0 144 0 95.5 57 c 128,-1,9
 47 114 47 114 47 206 c 0,10,11
 47 272 47 272 70 327 c 128,-1,12
 93 382 93 382 133 423.5 c 128,-1,13
 173 465 173 465 224.5 487.5 c 128,-1,14
 276 510 276 510 334 510 c 0,15,16
 399 510 399 510 445.5 482.5 c 128,-1,17
 492 455 492 455 517 405.5 c 128,-1,18
 542 356 542 356 542 292 c 0,19,20
 542 212 542 212 510.5 150 c 128,-1,21
 479 88 479 88 428 48 c 128,-1,22
 377 8 377 8 317 -6 c 0,23,24
 272 -17 272 -17 243 -39 c 128,-1,25
 214 -61 214 -61 199.5 -85.5 c 128,-1,26
 185 -110 185 -110 185 -129 c 0,27,28
 185 -154 185 -154 202.5 -166 c 128,-1,29
 220 -178 220 -178 245 -178 c 0,30,31
 259 -178 259 -178 271.5 -174 c 128,-1,32
 284 -170 284 -170 296 -162 c 1,33,-1
 313 -198 l 1,34,35
 296 -212 296 -212 272 -221 c 128,-1,36
 248 -230 248 -230 218 -230 c 0,0,1
261 52 m 0,37,38
 301 52 301 52 337.5 70 c 128,-1,39
 374 88 374 88 402 120.5 c 128,-1,40
 430 153 430 153 446.5 196 c 128,-1,41
 463 239 463 239 463 287 c 0,42,43
 463 360 463 360 427 402 c 128,-1,44
 391 444 391 444 328 444 c 0,45,46
 289 444 289 444 252.5 426 c 128,-1,47
 216 408 216 408 188 376 c 128,-1,48
 160 344 160 344 143.5 301.5 c 128,-1,49
 127 259 127 259 127 211 c 0,50,51
 127 137 127 137 163 94.5 c 128,-1,52
 199 52 199 52 261 52 c 0,37,38
EndSplineSet
Ligature2: "'ccmp' Glyph Composition/Decomposition lookup 7 subtable" o uni0328
EndChar

StartChar: ohorn
Encoding: 417 417 385
Width: 614
GlyphClass: 2
Flags: W
AnchorPoint: "Anchor-3" 240 -20 basechar 0
AnchorPoint: "Anchor-0" 347 519 basechar 0
LayerCount: 2
Fore
SplineSet
468 450 m 1,0,-1
 427 485 l 1,1,2
 480 489 480 489 512 517.5 c 128,-1,3
 544 546 544 546 544 596 c 0,4,5
 544 607 544 607 542.5 619 c 128,-1,6
 541 631 541 631 536 644 c 1,7,-1
 598 667 l 1,8,9
 605 649 605 649 607 633 c 128,-1,10
 609 617 609 617 609 600 c 0,11,12
 609 554 609 554 589.5 524 c 128,-1,13
 570 494 570 494 538 476 c 128,-1,14
 506 458 506 458 468 450 c 1,0,-1
256 -12 m 0,15,16
 190 -12 190 -12 143.5 15.5 c 128,-1,17
 97 43 97 43 72 92 c 128,-1,18
 47 141 47 141 47 206 c 0,19,20
 47 272 47 272 70 327 c 128,-1,21
 93 382 93 382 133 423.5 c 128,-1,22
 173 465 173 465 224.5 487.5 c 128,-1,23
 276 510 276 510 334 510 c 0,24,25
 399 510 399 510 445.5 482.5 c 128,-1,26
 492 455 492 455 517 405.5 c 128,-1,27
 542 356 542 356 542 292 c 256,28,29
 542 227 542 227 519 171.5 c 128,-1,30
 496 116 496 116 456 75 c 128,-1,31
 416 34 416 34 364.5 11 c 128,-1,32
 313 -12 313 -12 256 -12 c 0,15,16
261 53 m 0,33,34
 301 53 301 53 337.5 71.5 c 128,-1,35
 374 90 374 90 402 122 c 128,-1,36
 430 154 430 154 446.5 196.5 c 128,-1,37
 463 239 463 239 463 287 c 0,38,39
 463 360 463 360 427 402 c 128,-1,40
 391 444 391 444 328 444 c 0,41,42
 289 444 289 444 252.5 426 c 128,-1,43
 216 408 216 408 188 376 c 128,-1,44
 160 344 160 344 143.5 301.5 c 128,-1,45
 127 259 127 259 127 211 c 0,46,47
 127 138 127 138 163 95.5 c 128,-1,48
 199 53 199 53 261 53 c 0,33,34
EndSplineSet
EndChar

StartChar: oslash
Encoding: 248 248 391
Width: 614
GlyphClass: 2
Flags: W
AnchorPoint: "Anchor-3" 240 -20 basechar 0
AnchorPoint: "Anchor-2" 244 0 basechar 0
AnchorPoint: "Anchor-0" 347 519 basechar 0
LayerCount: 2
Fore
SplineSet
256 -12 m 0,0,1
 190 -12 190 -12 143.5 15.5 c 128,-1,2
 97 43 97 43 72 92 c 128,-1,3
 47 141 47 141 47 206 c 0,4,5
 47 272 47 272 70 327 c 128,-1,6
 93 382 93 382 133 423 c 128,-1,7
 173 464 173 464 224.5 487 c 128,-1,8
 276 510 276 510 334 510 c 0,9,10
 400 510 400 510 446 482.5 c 128,-1,11
 492 455 492 455 517 405.5 c 128,-1,12
 542 356 542 356 542 292 c 0,13,14
 542 226 542 226 519 171 c 128,-1,15
 496 116 496 116 456 75 c 128,-1,16
 416 34 416 34 364.5 11 c 128,-1,17
 313 -12 313 -12 256 -12 c 0,0,1
258 51 m 0,18,19
 301 51 301 51 339 70 c 128,-1,20
 377 89 377 89 405 122 c 128,-1,21
 433 155 433 155 449.5 198 c 128,-1,22
 466 241 466 241 466 290 c 0,23,24
 466 361 466 361 430.5 403.5 c 128,-1,25
 395 446 395 446 331 446 c 0,26,27
 288 446 288 446 250.5 427.5 c 128,-1,28
 213 409 213 409 184.5 376 c 128,-1,29
 156 343 156 343 140 300 c 128,-1,30
 124 257 124 257 124 208 c 0,31,32
 124 138 124 138 158.5 94.5 c 128,-1,33
 193 51 193 51 258 51 c 0,18,19
43 -31 m 1,34,-1
 -1 14 l 1,35,-1
 546 528 l 1,36,-1
 590 483 l 1,37,-1
 43 -31 l 1,34,-1
EndSplineSet
EndChar

StartChar: oe
Encoding: 339 339 393
Width: 614
GlyphClass: 2
Flags: W
AnchorPoint: "Anchor-3" 276 -20 basechar 0
AnchorPoint: "Anchor-2" 419 0 basechar 0
AnchorPoint: "Anchor-0" 348 519 basechar 0
LayerCount: 2
Fore
SplineSet
127 -12 m 0,0,1
 61 -12 61 -12 26 38 c 128,-1,2
 -9 88 -9 88 -9 177 c 0,3,4
 -9 276 -9 276 23.5 351 c 128,-1,5
 56 426 56 426 109.5 468 c 128,-1,6
 163 510 163 510 224 510 c 0,7,8
 276 510 276 510 305.5 474.5 c 128,-1,9
 335 439 335 439 341 375 c 1,10,-1
 333 378 l 1,11,12
 352 421 352 421 378 450.5 c 128,-1,13
 404 480 404 480 435 495 c 128,-1,14
 466 510 466 510 498 510 c 0,15,16
 556 510 556 510 584.5 468.5 c 128,-1,17
 613 427 613 427 613 352 c 0,18,19
 613 315 613 315 605.5 280.5 c 128,-1,20
 598 246 598 246 593 229 c 1,21,-1
 326 229 l 1,22,-1
 329 291 l 1,23,-1
 551 291 l 1,24,-1
 539 278 l 1,25,26
 544 295 544 295 546.5 314 c 128,-1,27
 549 333 549 333 549 350 c 0,28,29
 549 392 549 392 535.5 419.5 c 128,-1,30
 522 447 522 447 484 447 c 0,31,32
 453 447 453 447 426 423 c 128,-1,33
 399 399 399 399 378 358.5 c 128,-1,34
 357 318 357 318 345.5 268.5 c 128,-1,35
 334 219 334 219 334 168 c 0,36,37
 334 109 334 109 358.5 79.5 c 128,-1,38
 383 50 383 50 427 50 c 0,39,40
 459 50 459 50 486 61.5 c 128,-1,41
 513 73 513 73 535 88 c 1,42,-1
 559 36 l 1,43,44
 533 17 533 17 494.5 2.5 c 128,-1,45
 456 -12 456 -12 414 -12 c 0,46,47
 380 -12 380 -12 352 2 c 128,-1,48
 324 16 324 16 306 44.5 c 128,-1,49
 288 73 288 73 285 114 c 1,50,-1
 296 104 l 1,51,52
 264 45 264 45 220.5 16.5 c 128,-1,53
 177 -12 177 -12 127 -12 c 0,0,1
63 180 m 0,54,55
 63 123 63 123 82.5 87.5 c 128,-1,56
 102 52 102 52 141 52 c 0,57,58
 172 52 172 52 199 73.5 c 128,-1,59
 226 95 226 95 246.5 132 c 128,-1,60
 267 169 267 169 279 216 c 128,-1,61
 291 263 291 263 291 314 c 0,62,63
 291 374 291 374 272.5 409.5 c 128,-1,64
 254 445 254 445 218 445 c 0,65,66
 184 445 184 445 156 421.5 c 128,-1,67
 128 398 128 398 107 359.5 c 128,-1,68
 86 321 86 321 74.5 274 c 128,-1,69
 63 227 63 227 63 180 c 0,54,55
EndSplineSet
EndChar

StartChar: germandbls
Encoding: 223 223 409
Width: 614
GlyphClass: 1
Flags: W
LayerCount: 2
Fore
SplineSet
361 -12 m 0,0,1
 323 -12 323 -12 285 0 c 128,-1,2
 247 12 247 12 213 40 c 1,3,-1
 248 95 l 1,4,5
 274 72 274 72 301 60.5 c 128,-1,6
 328 49 328 49 361 49 c 0,7,8
 391 49 391 49 415.5 60.5 c 128,-1,9
 440 72 440 72 455 92 c 128,-1,10
 470 112 470 112 470 136 c 0,11,12
 470 166 470 166 454 187.5 c 128,-1,13
 438 209 438 209 413.5 227 c 128,-1,14
 389 245 389 245 364.5 263.5 c 128,-1,15
 340 282 340 282 323.5 305 c 128,-1,16
 307 328 307 328 307 358 c 0,17,18
 307 390 307 390 321.5 413.5 c 128,-1,19
 336 437 336 437 356.5 457 c 128,-1,20
 377 477 377 477 398 497 c 128,-1,21
 419 517 419 517 433 541 c 128,-1,22
 447 565 447 565 447 598 c 0,23,24
 447 634 447 634 428 656 c 128,-1,25
 409 678 409 678 365 678 c 0,26,27
 309 678 309 678 269 635 c 128,-1,28
 229 592 229 592 213 513 c 2,29,-1
 112 0 l 1,30,-1
 33 0 l 1,31,-1
 139 530 l 2,32,33
 151 595 151 595 182.5 642 c 128,-1,34
 214 689 214 689 260.5 715 c 128,-1,35
 307 741 307 741 368 741 c 0,36,37
 413 741 413 741 447.5 727 c 128,-1,38
 482 713 482 713 503 682.5 c 128,-1,39
 524 652 524 652 524 606 c 0,40,41
 524 568 524 568 510 540.5 c 128,-1,42
 496 513 496 513 475.5 492 c 128,-1,43
 455 471 455 471 434 453 c 128,-1,44
 413 435 413 435 399 415.5 c 128,-1,45
 385 396 385 396 385 372 c 0,46,47
 385 350 385 350 401 331.5 c 128,-1,48
 417 313 417 313 441 296.5 c 128,-1,49
 465 280 465 280 489 259.5 c 128,-1,50
 513 239 513 239 529 211 c 128,-1,51
 545 183 545 183 545 144 c 0,52,53
 545 100 545 100 522.5 65 c 128,-1,54
 500 30 500 30 458 9 c 128,-1,55
 416 -12 416 -12 361 -12 c 0,0,1
EndSplineSet
EndChar

StartChar: longs
Encoding: 383 383 410
Width: 614
GlyphClass: 1
Flags: W
LayerCount: 2
Fore
SplineSet
173 0 m 1,0,-1
 285 553 l 2,1,2
 305 652 305 652 361 696.5 c 128,-1,3
 417 741 417 741 501 741 c 0,4,5
 547 741 547 741 583.5 727 c 128,-1,6
 620 713 620 713 645 691 c 1,7,-1
 607 641 l 1,8,9
 584 658 584 658 559.5 668 c 128,-1,10
 535 678 535 678 503 678 c 0,11,12
 451 678 451 678 413.5 649 c 128,-1,13
 376 620 376 620 362 550 c 2,14,-1
 252 0 l 1,15,-1
 173 0 l 1,0,-1
118 434 m 1,16,-1
 129 493 l 1,17,-1
 274 498 l 1,18,-1
 315 498 l 1,19,-1
 302 434 l 1,20,-1
 118 434 l 1,16,-1
EndSplineSet
EndChar

StartChar: tbar
Encoding: 359 359 417
Width: 614
GlyphClass: 2
Flags: W
AnchorPoint: "Anchor-3" 315 -20 basechar 0
AnchorPoint: "Anchor-0" 304 650 basechar 0
LayerCount: 2
Fore
SplineSet
39 229 m 1,0,-1
 51 287 l 1,1,-1
 195 291 l 1,2,-1
 502 291 l 1,3,-1
 489 229 l 1,4,-1
 39 229 l 1,0,-1
314 -12 m 0,5,6
 236 -12 236 -12 199.5 27.5 c 128,-1,7
 163 67 163 67 163 130 c 0,8,9
 163 146 163 146 165.5 161.5 c 128,-1,10
 168 177 168 177 171 195 c 2,11,-1
 220 434 l 1,12,-1
 76 434 l 1,13,-1
 87 493 l 1,14,-1
 237 498 l 1,15,-1
 273 635 l 1,16,-1
 340 635 l 1,17,-1
 311 498 l 1,18,-1
 557 498 l 1,19,-1
 544 434 l 1,20,-1
 298 434 l 1,21,-1
 248 193 l 2,22,23
 245 180 245 180 244 169 c 128,-1,24
 243 158 243 158 243 146 c 0,25,26
 243 99 243 99 268 76 c 128,-1,27
 293 53 293 53 335 53 c 0,28,29
 372 53 372 53 404.5 64 c 128,-1,30
 437 75 437 75 464 89 c 1,31,-1
 489 33 l 1,32,33
 457 14 457 14 411.5 1 c 128,-1,34
 366 -12 366 -12 314 -12 c 0,5,6
EndSplineSet
EndChar

StartChar: uogonek
Encoding: 371 371 428
Width: 614
GlyphClass: 2
Flags: W
AnchorPoint: "Anchor-0" 345 519 basechar 0
LayerCount: 2
Fore
SplineSet
371 -230 m 0,0,1
 333 -230 333 -230 304.5 -211.5 c 128,-1,2
 276 -193 276 -193 276 -152 c 0,3,4
 276 -117 276 -117 294 -88 c 128,-1,5
 312 -59 312 -59 340 -37 c 128,-1,6
 368 -15 368 -15 398 1 c 1,7,-1
 412 101 l 1,8,-1
 408 101 l 1,9,10
 377 71 377 71 342.5 45 c 128,-1,11
 308 19 308 19 269 3.5 c 128,-1,12
 230 -12 230 -12 186 -12 c 0,13,14
 119 -12 119 -12 88 22 c 128,-1,15
 57 56 57 56 57 112 c 0,16,17
 57 135 57 135 59.5 154 c 128,-1,18
 62 173 62 173 67 194 c 2,19,-1
 128 498 l 1,20,-1
 206 498 l 1,21,-1
 146 202 l 2,22,23
 143 184 143 184 140 167 c 128,-1,24
 137 150 137 150 137 132 c 0,25,26
 137 95 137 95 157.5 75 c 128,-1,27
 178 55 178 55 216 55 c 0,28,29
 266 55 266 55 317.5 87.5 c 128,-1,30
 369 120 369 120 419 176 c 1,31,-1
 483 498 l 1,32,-1
 562 498 l 1,33,-1
 462 -5 l 1,34,35
 400 -32 400 -32 368.5 -63.5 c 128,-1,36
 337 -95 337 -95 337 -129 c 0,37,38
 337 -154 337 -154 354.5 -166 c 128,-1,39
 372 -178 372 -178 396 -178 c 0,40,41
 411 -178 411 -178 423 -174 c 128,-1,42
 435 -170 435 -170 447 -162 c 1,43,-1
 465 -198 l 1,44,45
 448 -212 448 -212 424 -221 c 128,-1,46
 400 -230 400 -230 371 -230 c 0,0,1
EndSplineSet
Ligature2: "'ccmp' Glyph Composition/Decomposition lookup 7 subtable" u uni0328
EndChar

StartChar: uhorn
Encoding: 432 432 435
Width: 614
GlyphClass: 2
Flags: W
AnchorPoint: "Anchor-3" 255 -20 basechar 0
AnchorPoint: "Anchor-0" 345 519 basechar 0
LayerCount: 2
Fore
SplineSet
550 462 m 1,0,-1
 513 498 l 1,1,2
 538 500 538 500 559.5 514.5 c 128,-1,3
 581 529 581 529 593.5 553 c 128,-1,4
 606 577 606 577 606 606 c 0,5,6
 606 618 606 618 604.5 629.5 c 128,-1,7
 603 641 603 641 599 654 c 1,8,-1
 662 677 l 1,9,10
 668 660 668 660 670.5 644 c 128,-1,11
 673 628 673 628 673 611 c 0,12,13
 673 568 673 568 654 537.5 c 128,-1,14
 635 507 635 507 607 488.5 c 128,-1,15
 579 470 579 470 550 462 c 1,0,-1
186 -12 m 0,16,17
 119 -12 119 -12 88 22 c 128,-1,18
 57 56 57 56 57 112 c 0,19,20
 57 135 57 135 59.5 154 c 128,-1,21
 62 173 62 173 67 194 c 2,22,-1
 128 498 l 1,23,-1
 206 498 l 1,24,-1
 146 202 l 2,25,26
 143 184 143 184 140 167 c 128,-1,27
 137 150 137 150 137 132 c 0,28,29
 137 95 137 95 157.5 75 c 128,-1,30
 178 55 178 55 216 55 c 0,31,32
 266 55 266 55 317.5 87.5 c 128,-1,33
 369 120 369 120 419 176 c 1,34,-1
 483 498 l 1,35,-1
 562 498 l 1,36,-1
 463 0 l 1,37,-1
 398 0 l 1,38,-1
 412 101 l 1,39,-1
 408 101 l 1,40,41
 377 71 377 71 342.5 45 c 128,-1,42
 308 19 308 19 269 3.5 c 128,-1,43
 230 -12 230 -12 186 -12 c 0,16,17
EndSplineSet
EndChar

StartChar: eth
Encoding: 240 240 460
Width: 614
GlyphClass: 2
Flags: W
AnchorPoint: "Anchor-3" 250 -20 basechar 0
AnchorPoint: "Anchor-0" 440 754 basechar 0
LayerCount: 2
Fore
SplineSet
245 -12 m 0,0,1
 189 -12 189 -12 142 11.5 c 128,-1,2
 95 35 95 35 67.5 80 c 128,-1,3
 40 125 40 125 40 188 c 0,4,5
 40 268 40 268 77 328.5 c 128,-1,6
 114 389 114 389 176 423 c 128,-1,7
 238 457 238 457 313 457 c 0,8,9
 357 457 357 457 392.5 442.5 c 128,-1,10
 428 428 428 428 453.5 405 c 128,-1,11
 479 382 479 382 493 355 c 1,12,-1
 484 300 l 1,13,14
 456 351 456 351 413.5 373.5 c 128,-1,15
 371 396 371 396 324 396 c 0,16,17
 258 396 258 396 211.5 367 c 128,-1,18
 165 338 165 338 141 292.5 c 128,-1,19
 117 247 117 247 117 196 c 0,20,21
 117 130 117 130 155 91.5 c 128,-1,22
 193 53 193 53 254 53 c 0,23,24
 306 53 306 53 347.5 75 c 128,-1,25
 389 97 389 97 417 137 c 128,-1,26
 445 177 445 177 460 231.5 c 128,-1,27
 475 286 475 286 475 350 c 0,28,29
 475 438 475 438 447.5 503 c 128,-1,30
 420 568 420 568 371 615 c 128,-1,31
 322 662 322 662 257 694 c 1,32,-1
 292 752 l 1,33,34
 368 716 368 716 426.5 659 c 128,-1,35
 485 602 485 602 518.5 524 c 128,-1,36
 552 446 552 446 552 347 c 0,37,38
 552 236 552 236 514 156 c 128,-1,39
 476 76 476 76 407.5 32 c 128,-1,40
 339 -12 339 -12 245 -12 c 0,0,1
244 512 m 1,41,-1
 217 563 l 1,42,-1
 578 731 l 1,43,-1
 603 680 l 1,44,-1
 244 512 l 1,41,-1
EndSplineSet
EndChar

StartChar: thorn
Encoding: 254 254 461
Width: 614
GlyphClass: 2
Flags: W
AnchorPoint: "Anchor-3" 37 -224 basechar 0
AnchorPoint: "Anchor-0" 223 754 basechar 0
LayerCount: 2
Fore
SplineSet
-5 -210 m 1,0,-1
 182 729 l 1,1,-1
 261 729 l 1,2,-1
 221 535 l 1,3,-1
 195 425 l 1,4,-1
 198 425 l 1,5,6
 236 460 236 460 283.5 485 c 128,-1,7
 331 510 331 510 379 510 c 0,8,9
 459 510 459 510 504.5 459 c 128,-1,10
 550 408 550 408 550 312 c 0,11,12
 550 222 550 222 515.5 148.5 c 128,-1,13
 481 75 481 75 419.5 31.5 c 128,-1,14
 358 -12 358 -12 276 -12 c 0,15,16
 229 -12 229 -12 190 8.5 c 128,-1,17
 151 29 151 29 126 59 c 1,18,-1
 123 59 l 1,19,-1
 104 -47 l 1,20,-1
 73 -210 l 1,21,-1
 -5 -210 l 1,0,-1
271 53 m 0,22,23
 314 53 314 53 350 72.5 c 128,-1,24
 386 92 386 92 412.5 126.5 c 128,-1,25
 439 161 439 161 454 206 c 128,-1,26
 469 251 469 251 469 301 c 0,27,28
 469 374 469 374 438 409 c 128,-1,29
 407 444 407 444 353 444 c 0,30,31
 315 444 315 444 270.5 418.5 c 128,-1,32
 226 393 226 393 185 348 c 1,33,-1
 140 125 l 1,34,35
 167 86 167 86 201 69.5 c 128,-1,36
 235 53 235 53 271 53 c 0,22,23
EndSplineSet
EndChar

StartChar: eng
Encoding: 331 331 462
Width: 614
GlyphClass: 2
Flags: W
AnchorPoint: "Anchor-0" 359 519 basechar 0
LayerCount: 2
Fore
SplineSet
317 -187 m 0,0,1
 293 -187 293 -187 275.5 -182 c 128,-1,2
 258 -177 258 -177 241 -168 c 1,3,-1
 267 -110 l 1,4,5
 276 -116 276 -116 287 -119.5 c 128,-1,6
 298 -123 298 -123 313 -123 c 0,7,8
 344 -123 344 -123 361 -100 c 128,-1,9
 378 -77 378 -77 388 -30 c 2,10,-1
 453 296 l 2,11,12
 458 315 458 315 460 332 c 128,-1,13
 462 349 462 349 462 366 c 0,14,15
 462 403 462 403 442 422.5 c 128,-1,16
 422 442 422 442 383 442 c 0,17,18
 333 442 333 442 281.5 410.5 c 128,-1,19
 230 379 230 379 179 322 c 1,20,-1
 115 0 l 1,21,-1
 37 0 l 1,22,-1
 136 498 l 1,23,-1
 200 498 l 1,24,-1
 187 396 l 1,25,-1
 191 396 l 1,26,27
 221 426 221 426 256 452 c 128,-1,28
 291 478 291 478 330.5 494 c 128,-1,29
 370 510 370 510 415 510 c 0,30,31
 481 510 481 510 512 476 c 128,-1,32
 543 442 543 442 543 386 c 0,33,34
 543 364 543 364 540.5 344.5 c 128,-1,35
 538 325 538 325 534 304 c 2,36,-1
 466 -31 l 2,37,38
 456 -79 456 -79 438 -114.5 c 128,-1,39
 420 -150 420 -150 390.5 -168.5 c 128,-1,40
 361 -187 361 -187 317 -187 c 0,0,1
EndSplineSet
EndChar

StartChar: uni0237
Encoding: 567 567 463
Width: 614
GlyphClass: 2
Flags: W
AnchorPoint: "Anchor-3" 148 -224 basechar 0
AnchorPoint: "Anchor-0" 402 519 basechar 0
LayerCount: 2
Fore
SplineSet
125 -222 m 0,0,1
 78 -222 78 -222 41 -208 c 128,-1,2
 4 -194 4 -194 -18 -177 c 1,3,-1
 15 -121 l 1,4,5
 38 -137 38 -137 64 -147.5 c 128,-1,6
 90 -158 90 -158 124 -158 c 0,7,8
 191 -158 191 -158 225.5 -120 c 128,-1,9
 260 -82 260 -82 273 -14 c 2,10,-1
 364 434 l 1,11,-1
 134 434 l 1,12,-1
 148 498 l 1,13,-1
 455 498 l 1,14,-1
 352 -15 l 2,15,16
 332 -114 332 -114 279.5 -168 c 128,-1,17
 227 -222 227 -222 125 -222 c 0,0,1
EndSplineSet
EndChar

StartChar: ij
Encoding: 307 307 464
Width: 614
GlyphClass: 1
Flags: W
LayerCount: 2
Fore
SplineSet
68 0 m 1,0,-1
 167 498 l 1,1,-1
 246 498 l 1,2,-1
 146 0 l 1,3,-1
 68 0 l 1,0,-1
233 601 m 0,4,5
 210 601 210 601 192.5 615.5 c 128,-1,6
 175 630 175 630 175 655 c 0,7,8
 175 674 175 674 185 691 c 128,-1,9
 195 708 195 708 210.5 717 c 128,-1,10
 226 726 226 726 245 726 c 0,11,12
 271 726 271 726 287.5 711 c 128,-1,13
 304 696 304 696 304 670 c 0,14,15
 304 640 304 640 282.5 620.5 c 128,-1,16
 261 601 261 601 233 601 c 0,4,5
253 -222 m 0,17,18
 229 -222 229 -222 211.5 -217 c 128,-1,19
 194 -212 194 -212 176 -203 c 1,20,-1
 202 -144 l 1,21,22
 212 -150 212 -150 222 -154 c 128,-1,23
 232 -158 232 -158 249 -158 c 0,24,25
 278 -158 278 -158 294.5 -133 c 128,-1,26
 311 -108 311 -108 322 -63 c 2,27,-1
 435 498 l 1,28,-1
 513 498 l 1,29,-1
 400 -62 l 2,30,31
 390 -110 390 -110 372 -146 c 128,-1,32
 354 -182 354 -182 324.5 -202 c 128,-1,33
 295 -222 295 -222 253 -222 c 0,17,18
501 601 m 0,34,35
 477 601 477 601 459 615.5 c 128,-1,36
 441 630 441 630 441 655 c 0,37,38
 441 674 441 674 451 691 c 128,-1,39
 461 708 461 708 477.5 717 c 128,-1,40
 494 726 494 726 511 726 c 0,41,42
 537 726 537 726 553.5 711 c 128,-1,43
 570 696 570 696 570 670 c 0,44,45
 570 640 570 640 549.5 620.5 c 128,-1,46
 529 601 529 601 501 601 c 0,34,35
EndSplineSet
EndChar

StartChar: uni006C00B7006C
Encoding: 1114117 -1 465
Width: 614
GlyphClass: 1
Flags: W
LayerCount: 2
Fore
SplineSet
151 -12 m 0,0,1
 96 -12 96 -12 60 21 c 128,-1,2
 24 54 24 54 24 117 c 0,3,4
 24 132 24 132 25.5 145.5 c 128,-1,5
 27 159 27 159 31 175 c 2,6,-1
 134 666 l 1,7,-1
 -4 666 l 1,8,-1
 10 729 l 1,9,-1
 220 729 l 1,10,-1
 104 172 l 2,11,12
 102 161 102 161 100.5 149.5 c 128,-1,13
 99 138 99 138 99 127 c 0,14,15
 99 89 99 89 117 71 c 128,-1,16
 135 53 135 53 165 53 c 0,17,18
 203 53 203 53 242 76 c 1,19,-1
 261 16 l 1,20,21
 233 2 233 2 207 -5 c 128,-1,22
 181 -12 181 -12 151 -12 c 0,0,1
252 286 m 0,23,24
 223 286 223 286 205 305.5 c 128,-1,25
 187 325 187 325 187 355 c 0,26,27
 187 394 187 394 214.5 423.5 c 128,-1,28
 242 453 242 453 280 453 c 0,29,30
 310 453 310 453 327 433 c 128,-1,31
 344 413 344 413 344 382 c 0,32,33
 344 344 344 344 317.5 315 c 128,-1,34
 291 286 291 286 252 286 c 0,23,24
466 -12 m 0,35,36
 411 -12 411 -12 375 21 c 128,-1,37
 339 54 339 54 339 117 c 0,38,39
 339 132 339 132 340.5 145.5 c 128,-1,40
 342 159 342 159 346 175 c 2,41,-1
 450 666 l 1,42,-1
 312 666 l 1,43,-1
 326 729 l 1,44,-1
 536 729 l 1,45,-1
 420 172 l 2,46,47
 418 161 418 161 416.5 149.5 c 128,-1,48
 415 138 415 138 415 127 c 0,49,50
 415 89 415 89 433 71 c 128,-1,51
 451 53 451 53 480 53 c 0,52,53
 518 53 518 53 557 76 c 1,54,-1
 577 16 l 1,55,56
 549 2 549 2 522.5 -5 c 128,-1,57
 496 -12 496 -12 466 -12 c 0,35,36
EndSplineSet
Ligature2: "'ccmp' Glyph Composition/Decomposition lookup 7 subtable" l periodcentered l
EndChar

StartChar: uni01330301
Encoding: 1114118 -1 466
Width: 614
GlyphClass: 1
Flags: W
LayerCount: 2
Fore
SplineSet
68 0 m 1,0,-1
 167 498 l 1,1,-1
 246 498 l 1,2,-1
 146 0 l 1,3,-1
 68 0 l 1,0,-1
253 -222 m 0,4,5
 229 -222 229 -222 211.5 -217 c 128,-1,6
 194 -212 194 -212 176 -203 c 1,7,-1
 202 -144 l 1,8,9
 212 -150 212 -150 222 -154 c 128,-1,10
 232 -158 232 -158 249 -158 c 0,11,12
 278 -158 278 -158 294.5 -133 c 128,-1,13
 311 -108 311 -108 322 -63 c 2,14,-1
 435 498 l 1,15,-1
 513 498 l 1,16,-1
 400 -62 l 2,17,18
 390 -110 390 -110 372 -146 c 128,-1,19
 354 -182 354 -182 324.5 -202 c 128,-1,20
 295 -222 295 -222 253 -222 c 0,4,5
196 593 m 1,21,-1
 159 639 l 1,22,-1
 331 796 l 1,23,-1
 380 734 l 1,24,-1
 196 593 l 1,21,-1
463 593 m 1,25,-1
 426 639 l 1,26,-1
 598 796 l 1,27,-1
 647 734 l 1,28,-1
 463 593 l 1,25,-1
EndSplineSet
Substitution2: "'case' Case-Sensitive Forms lookup 24 subtable" uni01320301
Ligature2: "'ccmp' Glyph Composition/Decomposition lookup 7 subtable" ij uni0301
EndChar

StartChar: uni0252
Encoding: 594 594 468
Width: 614
GlyphClass: 2
Flags: W
AnchorPoint: "Anchor-3" 259 -20 basechar 0
AnchorPoint: "Anchor-0" 365 519 basechar 0
LayerCount: 2
Fore
SplineSet
276 -12 m 0,0,1
 228 -12 228 -12 187 9.5 c 128,-1,2
 146 31 146 31 123 62 c 1,3,-1
 119 62 l 1,4,-1
 100 0 l 1,5,-1
 37 0 l 1,6,-1
 136 498 l 1,7,-1
 201 498 l 1,8,-1
 191 421 l 1,9,-1
 196 421 l 1,10,11
 235 458 235 458 282.5 484 c 128,-1,12
 330 510 330 510 380 510 c 0,13,14
 457 510 457 510 503.5 459 c 128,-1,15
 550 408 550 408 550 312 c 0,16,17
 550 245 550 245 529 186 c 128,-1,18
 508 127 508 127 471 82.5 c 128,-1,19
 434 38 434 38 384 13 c 128,-1,20
 334 -12 334 -12 276 -12 c 0,0,1
266 53 m 0,21,22
 310 53 310 53 347 72.5 c 128,-1,23
 384 92 384 92 411.5 126.5 c 128,-1,24
 439 161 439 161 454 206 c 128,-1,25
 469 251 469 251 469 301 c 0,26,27
 469 374 469 374 438.5 409 c 128,-1,28
 408 444 408 444 355 444 c 0,29,30
 317 444 317 444 271 419 c 128,-1,31
 225 394 225 394 185 350 c 1,32,-1
 139 125 l 1,33,34
 166 86 166 86 199 69.5 c 128,-1,35
 232 53 232 53 266 53 c 0,21,22
EndSplineSet
EndChar

StartChar: uni0253
Encoding: 595 595 469
Width: 614
GlyphClass: 2
Flags: W
AnchorPoint: "Anchor-3" 259 -20 basechar 0
AnchorPoint: "Anchor-0" 365 754 basechar 0
LayerCount: 2
Fore
SplineSet
276 -12 m 0,0,1
 228 -12 228 -12 187.5 9.5 c 128,-1,2
 147 31 147 31 124 62 c 1,3,-1
 121 62 l 1,4,-1
 102 0 l 1,5,-1
 37 0 l 1,6,-1
 146 545 l 2,7,8
 158 608 158 608 185.5 652 c 128,-1,9
 213 696 213 696 256 718.5 c 128,-1,10
 299 741 299 741 357 741 c 0,11,12
 386 741 386 741 411 734.5 c 128,-1,13
 436 728 436 728 455 717 c 1,14,-1
 426 655 l 1,15,16
 395 674 395 674 356 675 c 0,17,18
 306 675 306 675 274.5 646 c 128,-1,19
 243 617 243 617 224 544 c 2,20,-1
 195 418 l 1,21,-1
 198 418 l 1,22,23
 235 453 235 453 282 478 c 128,-1,24
 329 503 329 503 378 503 c 0,25,26
 458 503 458 503 504 452.5 c 128,-1,27
 550 402 550 402 550 309 c 0,28,29
 550 242 550 242 529 183.5 c 128,-1,30
 508 125 508 125 471 81 c 128,-1,31
 434 37 434 37 384 12.5 c 128,-1,32
 334 -12 334 -12 276 -12 c 0,0,1
268 53 m 0,33,34
 311 53 311 53 348 72.5 c 128,-1,35
 385 92 385 92 411.5 126 c 128,-1,36
 438 160 438 160 453.5 204 c 128,-1,37
 469 248 469 248 469 298 c 0,38,39
 469 368 469 368 437.5 402 c 128,-1,40
 406 436 406 436 352 436 c 0,41,42
 314 436 314 436 269 411 c 128,-1,43
 224 386 224 386 183 341 c 1,44,-1
 140 125 l 1,45,46
 167 86 167 86 200 69.5 c 128,-1,47
 233 53 233 53 268 53 c 0,33,34
EndSplineSet
EndChar

StartChar: uni0254
Encoding: 596 596 470
Width: 614
GlyphClass: 2
Flags: W
AnchorPoint: "Anchor-3" 230 -20 basechar 0
AnchorPoint: "Anchor-2" 250 0 basechar 0
AnchorPoint: "Anchor-0" 332 519 basechar 0
LayerCount: 2
Fore
SplineSet
212 -12 m 0,0,1
 150 -12 150 -12 102.5 13.5 c 128,-1,2
 55 39 55 39 26 74 c 1,3,-1
 75 119 l 1,4,5
 102 88 102 88 136 70.5 c 128,-1,6
 170 53 170 53 219 53 c 0,7,8
 281 53 281 53 332.5 83 c 128,-1,9
 384 113 384 113 414 166 c 128,-1,10
 444 219 444 219 444 289 c 0,11,12
 444 363 444 363 402 403.5 c 128,-1,13
 360 444 360 444 292 444 c 0,14,15
 244 444 244 444 206 426 c 128,-1,16
 168 408 168 408 134 380 c 1,17,-1
 102 433 l 1,18,19
 138 464 138 464 188 487 c 128,-1,20
 238 510 238 510 304 510 c 0,21,22
 366 510 366 510 416 486 c 128,-1,23
 466 462 466 462 495.5 414.5 c 128,-1,24
 525 367 525 367 525 297 c 0,25,26
 525 203 525 203 483 132.5 c 128,-1,27
 441 62 441 62 370 25 c 128,-1,28
 299 -12 299 -12 212 -12 c 0,0,1
EndSplineSet
EndChar

StartChar: uni0255
Encoding: 597 597 471
Width: 614
GlyphClass: 2
Flags: W
AnchorPoint: "Anchor-3" 293 -20 basechar 0
AnchorPoint: "Anchor-0" 379 519 basechar 0
LayerCount: 2
Fore
SplineSet
98 -102 m 1,0,-1
 38 -75 l 1,1,2
 90 17 90 17 150 82 c 128,-1,3
 210 147 210 147 272 181.5 c 128,-1,4
 334 216 334 216 393 216 c 0,5,6
 448 216 448 216 475.5 192.5 c 128,-1,7
 503 169 503 169 503 131 c 0,8,9
 503 91 503 91 480.5 58.5 c 128,-1,10
 458 26 458 26 415 7 c 128,-1,11
 372 -12 372 -12 310 -12 c 0,12,13
 263 -12 263 -12 219.5 2 c 128,-1,14
 176 16 176 16 142 43.5 c 128,-1,15
 108 71 108 71 88.5 112.5 c 128,-1,16
 69 154 69 154 69 207 c 0,17,18
 69 276 69 276 93.5 331 c 128,-1,19
 118 386 118 386 160.5 426 c 128,-1,20
 203 466 203 466 256.5 488 c 128,-1,21
 310 510 310 510 369 510 c 0,22,23
 435 510 435 510 482 483.5 c 128,-1,24
 529 457 529 457 556 421 c 1,25,-1
 507 379 l 1,26,27
 480 413 480 413 444.5 430 c 128,-1,28
 409 447 409 447 359 447 c 0,29,30
 320 447 320 447 282.5 429.5 c 128,-1,31
 245 412 245 412 213.5 380 c 128,-1,32
 182 348 182 348 163 306 c 128,-1,33
 144 264 144 264 144 216 c 0,34,35
 144 161 144 161 169 124 c 128,-1,36
 194 87 194 87 234 68.5 c 128,-1,37
 274 50 274 50 322 50 c 0,38,39
 375 50 375 50 406.5 70.5 c 128,-1,40
 438 91 438 91 438 119 c 0,41,42
 438 134 438 134 425.5 146 c 128,-1,43
 413 158 413 158 382 158 c 0,44,45
 338 158 338 158 288.5 126 c 128,-1,46
 239 94 239 94 190 36.5 c 128,-1,47
 141 -21 141 -21 98 -102 c 1,0,-1
EndSplineSet
EndChar

StartChar: uni0256
Encoding: 598 598 472
Width: 614
GlyphClass: 2
Flags: W
AnchorPoint: "Anchor-3" 232 -88 basechar 0
AnchorPoint: "Anchor-0" 572 754 basechar 0
LayerCount: 2
Fore
SplineSet
461 -187 m 0,0,1
 415 -187 415 -187 394 -165 c 128,-1,2
 373 -143 373 -143 373 -100 c 0,3,4
 373 -67 373 -67 383.5 -21 c 128,-1,5
 394 25 394 25 404 72 c 1,6,-1
 400 71 l 1,7,8
 362 34 362 34 316 11 c 128,-1,9
 270 -12 270 -12 223 -12 c 0,10,11
 146 -12 146 -12 99.5 36.5 c 128,-1,12
 53 85 53 85 53 178 c 0,13,14
 53 246 53 246 74 305.5 c 128,-1,15
 95 365 95 365 133 411 c 128,-1,16
 171 457 171 457 220 483.5 c 128,-1,17
 269 510 269 510 327 510 c 0,18,19
 380 510 380 510 418 490.5 c 128,-1,20
 456 471 456 471 477 438 c 1,21,-1
 480 438 l 1,22,-1
 497 536 l 1,23,-1
 536 730 l 1,24,-1
 614 730 l 1,25,-1
 459 -38 l 2,26,27
 457 -51 457 -51 455 -61.5 c 128,-1,28
 453 -72 453 -72 453 -81 c 0,29,30
 453 -100 453 -100 462.5 -110.5 c 128,-1,31
 472 -121 472 -121 492 -121 c 0,32,33
 502 -121 502 -121 511.5 -118.5 c 128,-1,34
 521 -116 521 -116 528 -113 c 1,35,-1
 527 -174 l 1,36,37
 518 -178 518 -178 499.5 -182.5 c 128,-1,38
 481 -187 481 -187 461 -187 c 0,0,1
248 53 m 0,39,40
 289 53 289 53 333.5 78 c 128,-1,41
 378 103 378 103 419 151 c 1,42,-1
 464 371 l 1,43,44
 439 411 439 411 405.5 427.5 c 128,-1,45
 372 444 372 444 337 444 c 0,46,47
 295 444 295 444 257.5 423 c 128,-1,48
 220 402 220 402 192.5 367 c 128,-1,49
 165 332 165 332 149.5 286 c 128,-1,50
 134 240 134 240 134 190 c 0,51,52
 134 120 134 120 165.5 86.5 c 128,-1,53
 197 53 197 53 248 53 c 0,39,40
EndSplineSet
EndChar

StartChar: uni0257
Encoding: 599 599 473
Width: 614
GlyphClass: 2
Flags: W
AnchorPoint: "Anchor-3" 255 -20 basechar 0
AnchorPoint: "Anchor-0" 397 754 basechar 0
LayerCount: 2
Fore
SplineSet
223 -12 m 0,0,1
 146 -12 146 -12 99.5 36.5 c 128,-1,2
 53 85 53 85 53 178 c 0,3,4
 53 246 53 246 74 305.5 c 128,-1,5
 95 365 95 365 133 411 c 128,-1,6
 171 457 171 457 220 483.5 c 128,-1,7
 269 510 269 510 327 510 c 0,8,9
 380 510 380 510 418 490.5 c 128,-1,10
 456 471 456 471 477 438 c 1,11,-1
 480 438 l 1,12,-1
 510 598 l 2,13,14
 520 644 520 644 538.5 676.5 c 128,-1,15
 557 709 557 709 587 725 c 128,-1,16
 617 741 617 741 660 741 c 0,17,18
 677 741 677 741 691.5 738.5 c 128,-1,19
 706 736 706 736 716 730 c 1,20,-1
 688 666 l 1,21,22
 680 670 680 670 673 671.5 c 128,-1,23
 666 673 666 673 656 673 c 0,24,25
 625 673 625 673 609 649.5 c 128,-1,26
 593 626 593 626 585 583 c 2,27,-1
 467 1 l 1,28,-1
 402 1 l 1,29,-1
 411 76 l 1,30,-1
 407 76 l 1,31,32
 368 37 368 37 320 12.5 c 128,-1,33
 272 -12 272 -12 223 -12 c 0,0,1
248 53 m 0,34,35
 289 53 289 53 333.5 78 c 128,-1,36
 378 103 378 103 419 151 c 1,37,-1
 464 371 l 1,38,39
 439 411 439 411 405.5 427.5 c 128,-1,40
 372 444 372 444 337 444 c 0,41,42
 295 444 295 444 257.5 423 c 128,-1,43
 220 402 220 402 192.5 367 c 128,-1,44
 165 332 165 332 149.5 286 c 128,-1,45
 134 240 134 240 134 190 c 0,46,47
 134 120 134 120 165.5 86.5 c 128,-1,48
 197 53 197 53 248 53 c 0,34,35
EndSplineSet
EndChar

StartChar: uni0258
Encoding: 600 600 474
Width: 614
GlyphClass: 2
Flags: W
AnchorPoint: "Anchor-3" 262 -20 basechar 0
AnchorPoint: "Anchor-0" 342 519 basechar 0
LayerCount: 2
Fore
SplineSet
247 -12 m 0,0,1
 187 -12 187 -12 138 9 c 128,-1,2
 89 30 89 30 61 60 c 1,3,-1
 104 109 l 1,4,5
 132 82 132 82 167.5 66 c 128,-1,6
 203 50 203 50 252 50 c 0,7,8
 310 50 310 50 358 80 c 128,-1,9
 406 110 406 110 434 165 c 128,-1,10
 462 220 462 220 462 295 c 0,11,12
 462 373 462 373 424.5 410 c 128,-1,13
 387 447 387 447 328 447 c 0,14,15
 282 447 282 447 241.5 423.5 c 128,-1,16
 201 400 201 400 175.5 361 c 128,-1,17
 150 322 150 322 146 274 c 1,18,-1
 132 291 l 1,19,-1
 490 291 l 1,20,-1
 486 229 l 1,21,-1
 79 229 l 1,22,23
 78 237 78 237 77 246 c 128,-1,24
 76 255 76 255 76 265 c 0,25,26
 76 307 76 307 94 350 c 128,-1,27
 112 393 112 393 145.5 429.5 c 128,-1,28
 179 466 179 466 228.5 488.5 c 128,-1,29
 278 511 278 511 339 511 c 0,30,31
 398 511 398 511 443.5 486.5 c 128,-1,32
 489 462 489 462 515 415 c 128,-1,33
 541 368 541 368 541 300 c 0,34,35
 541 203 541 203 502.5 132.5 c 128,-1,36
 464 62 464 62 398 25 c 128,-1,37
 332 -12 332 -12 247 -12 c 0,0,1
EndSplineSet
EndChar

StartChar: uni0299
Encoding: 665 665 476
Width: 614
GlyphClass: 2
Flags: W
AnchorPoint: "Anchor-3" 269 -20 basechar 0
AnchorPoint: "Anchor-0" 352 519 basechar 0
LayerCount: 2
Fore
SplineSet
68 0 m 1,0,-1
 166 498 l 1,1,-1
 368 498 l 2,2,3
 413 498 413 498 448 487.5 c 128,-1,4
 483 477 483 477 503.5 455.5 c 128,-1,5
 524 434 524 434 524 397 c 0,6,7
 524 344 524 344 494.5 311 c 128,-1,8
 465 278 465 278 421 265 c 1,9,-1
 420 262 l 1,10,11
 454 253 454 253 477.5 231.5 c 128,-1,12
 501 210 501 210 501 170 c 0,13,14
 501 121 501 121 477 82.5 c 128,-1,15
 453 44 453 44 403.5 22 c 128,-1,16
 354 0 354 0 279 0 c 2,17,-1
 68 0 l 1,0,-1
158 59 m 1,18,-1
 281 59 l 2,19,20
 355 59 355 59 389 89.5 c 128,-1,21
 423 120 423 120 423 164 c 0,22,23
 423 197 423 197 395 215 c 128,-1,24
 367 233 367 233 309 233 c 2,25,-1
 194 233 l 1,26,-1
 158 59 l 1,18,-1
203 288 m 1,27,-1
 312 288 l 2,28,29
 385 288 385 288 415 315 c 128,-1,30
 445 342 445 342 445 380 c 0,31,32
 445 408 445 408 421 423 c 128,-1,33
 397 438 397 438 346 438 c 2,34,-1
 233 438 l 1,35,-1
 203 288 l 1,27,-1
EndSplineSet
EndChar

StartChar: uni0259
Encoding: 601 601 477
Width: 614
GlyphClass: 2
Flags: W
AnchorPoint: "Anchor-6" 252 0 basechar 0
AnchorPoint: "Anchor-3" 247 -20 basechar 0
AnchorPoint: "Anchor-2" 252 0 basechar 0
AnchorPoint: "Anchor-0" 354 519 basechar 0
LayerCount: 2
Fore
SplineSet
250 -12 m 0,0,1
 162 -12 162 -12 108 38.5 c 128,-1,2
 54 89 54 89 54 179 c 0,3,4
 54 212 54 212 60 239.5 c 128,-1,5
 66 267 66 267 70 279 c 1,6,-1
 485 279 l 1,7,-1
 478 217 l 1,8,-1
 109 217 l 1,9,-1
 134 231 l 1,10,11
 130 218 130 218 128.5 204 c 128,-1,12
 127 190 127 190 127 178 c 0,13,14
 128 115 128 115 163.5 82.5 c 128,-1,15
 199 50 199 50 255 50 c 0,16,17
 314 50 314 50 361.5 81 c 128,-1,18
 409 112 409 112 437 167.5 c 128,-1,19
 465 223 465 223 465 298 c 0,20,21
 465 347 465 347 449 380.5 c 128,-1,22
 433 414 433 414 402 430.5 c 128,-1,23
 371 447 371 447 326 447 c 0,24,25
 276 447 276 447 236.5 432.5 c 128,-1,26
 197 418 197 418 159 393 c 1,27,-1
 130 447 l 1,28,29
 169 474 169 474 222.5 492 c 128,-1,30
 276 510 276 510 341 510 c 0,31,32
 404 510 404 510 450 486.5 c 128,-1,33
 496 463 496 463 520 416 c 128,-1,34
 544 369 544 369 544 299 c 0,35,36
 544 230 544 230 522 173 c 128,-1,37
 500 116 500 116 460 74.5 c 128,-1,38
 420 33 420 33 366.5 10.5 c 128,-1,39
 313 -12 313 -12 250 -12 c 0,0,1
EndSplineSet
Substitution2: "'sups' Superscript lookup 19 subtable" uni0259.sups
EndChar

StartChar: uni025A
Encoding: 602 602 478
Width: 614
GlyphClass: 2
Flags: W
AnchorPoint: "Anchor-3" 167 -20 basechar 0
AnchorPoint: "Anchor-0" 262 519 basechar 0
LayerCount: 2
Fore
SplineSet
168 -12 m 0,0,1
 102 -12 102 -12 62 17.5 c 128,-1,2
 22 47 22 47 6.5 95.5 c 128,-1,3
 -9 144 -9 144 -3 202 c 1,4,-1
 514 400 l 1,5,-1
 555 383 l 1,6,7
 551 344 551 344 553.5 324 c 128,-1,8
 556 304 556 304 564.5 297 c 128,-1,9
 573 290 573 290 588 290 c 0,10,11
 599 290 599 290 610.5 295 c 128,-1,12
 622 300 622 300 630 305 c 1,13,-1
 643 261 l 1,14,15
 630 252 630 252 612 244 c 128,-1,16
 594 236 594 236 571 236 c 0,17,18
 552 236 552 236 534.5 245 c 128,-1,19
 517 254 517 254 506.5 275 c 128,-1,20
 496 296 496 296 496 334 c 1,21,-1
 67 170 l 1,22,23
 67 116 67 116 97 85 c 128,-1,24
 127 54 127 54 179 54 c 0,25,26
 219 54 219 54 252.5 78.5 c 128,-1,27
 286 103 286 103 310 145 c 128,-1,28
 334 187 334 187 343 238 c 0,29,30
 357 309 357 309 346.5 353.5 c 128,-1,31
 336 398 336 398 306 420.5 c 128,-1,32
 276 443 276 443 231 443 c 0,33,34
 193 443 193 443 161.5 431.5 c 128,-1,35
 130 420 130 420 97 400 c 1,36,-1
 80 459 l 1,37,38
 119 483 119 483 161.5 496.5 c 128,-1,39
 204 510 204 510 254 510 c 0,40,41
 320 510 320 510 363 478 c 128,-1,42
 406 446 406 446 422.5 387.5 c 128,-1,43
 439 329 439 329 422 245 c 0,44,45
 409 175 409 175 372.5 116 c 128,-1,46
 336 57 336 57 283 22.5 c 128,-1,47
 230 -12 230 -12 168 -12 c 0,0,1
EndSplineSet
EndChar

StartChar: uni025B
Encoding: 603 603 479
Width: 614
GlyphClass: 2
Flags: W
AnchorPoint: "Anchor-3" 250 -20 basechar 0
AnchorPoint: "Anchor-2" 258 0 basechar 0
AnchorPoint: "Anchor-0" 355 519 basechar 0
LayerCount: 2
Fore
SplineSet
260 -12 m 0,0,1
 204 -12 204 -12 157 5.5 c 128,-1,2
 110 23 110 23 82 54 c 128,-1,3
 54 85 54 85 54 126 c 0,4,5
 54 169 54 169 74.5 197.5 c 128,-1,6
 95 226 95 226 129 242.5 c 128,-1,7
 163 259 163 259 202 264 c 1,8,-1
 203 268 l 1,9,10
 162 284 162 284 143.5 309 c 128,-1,11
 125 334 125 334 125 367 c 0,12,13
 125 412 125 412 154 444 c 128,-1,14
 183 476 183 476 232.5 493 c 128,-1,15
 282 510 282 510 343 510 c 0,16,17
 408 510 408 510 461 489 c 128,-1,18
 514 468 514 468 549 433 c 1,19,-1
 506 380 l 1,20,21
 470 414 470 414 431 430.5 c 128,-1,22
 392 447 392 447 338 447 c 0,23,24
 275 447 275 447 240.5 422 c 128,-1,25
 206 397 206 397 206 362 c 256,26,27
 206 327 206 327 234.5 309 c 128,-1,28
 263 291 263 291 328 291 c 2,29,-1
 399 291 l 1,30,-1
 387 229 l 1,31,-1
 302 229 l 2,32,33
 220 229 220 229 177.5 208.5 c 128,-1,34
 135 188 135 188 135 141 c 0,35,36
 135 115 135 115 154 95 c 128,-1,37
 173 75 173 75 206 62.5 c 128,-1,38
 239 50 239 50 279 50 c 0,39,40
 313 50 313 50 341.5 54.5 c 128,-1,41
 370 59 370 59 398.5 71.5 c 128,-1,42
 427 84 427 84 460 104 c 1,43,-1
 484 48 l 1,44,45
 444 22 444 22 409.5 9.5 c 128,-1,46
 375 -3 375 -3 339.5 -7.5 c 128,-1,47
 304 -12 304 -12 260 -12 c 0,0,1
EndSplineSet
EndChar

StartChar: uni025C
Encoding: 604 604 480
Width: 614
GlyphClass: 2
Flags: W
AnchorPoint: "Anchor-3" 261 -20 basechar 0
AnchorPoint: "Anchor-0" 344 519 basechar 0
LayerCount: 2
Fore
SplineSet
269 -12 m 0,0,1
 204 -12 204 -12 148 7.5 c 128,-1,2
 92 27 92 27 48 66 c 1,3,-1
 92 121 l 1,4,5
 131 87 131 87 175.5 69 c 128,-1,6
 220 51 220 51 273 51 c 0,7,8
 319 51 319 51 352.5 65 c 128,-1,9
 386 79 386 79 404 102 c 128,-1,10
 422 125 422 125 422 153 c 0,11,12
 422 189 422 189 387.5 209 c 128,-1,13
 353 229 353 229 284 229 c 2,14,-1
 206 229 l 1,15,-1
 217 291 l 1,16,-1
 292 291 l 2,17,18
 361 291 361 291 402 313.5 c 128,-1,19
 443 336 443 336 443 374 c 256,20,21
 443 412 443 412 408.5 429.5 c 128,-1,22
 374 447 374 447 322 447 c 0,23,24
 287 447 287 447 242 435 c 128,-1,25
 197 423 197 423 155 399 c 1,26,-1
 129 455 l 1,27,28
 180 485 180 485 234 497.5 c 128,-1,29
 288 510 288 510 338 510 c 0,30,31
 389 510 389 510 431 496.5 c 128,-1,32
 473 483 473 483 498 456.5 c 128,-1,33
 523 430 523 430 523 390 c 0,34,35
 523 356 523 356 508 331.5 c 128,-1,36
 493 307 493 307 467 291.5 c 128,-1,37
 441 276 441 276 411 267 c 1,38,-1
 410 263 l 1,39,40
 437 255 437 255 457.5 239 c 128,-1,41
 478 223 478 223 490.5 201 c 128,-1,42
 503 179 503 179 503 153 c 0,43,44
 503 105 503 105 473 67.5 c 128,-1,45
 443 30 443 30 390.5 9 c 128,-1,46
 338 -12 338 -12 269 -12 c 0,0,1
EndSplineSet
EndChar

StartChar: uni025E
Encoding: 606 606 481
Width: 614
GlyphClass: 2
Flags: W
AnchorPoint: "Anchor-3" 262 -20 basechar 0
AnchorPoint: "Anchor-0" 348 519 basechar 0
LayerCount: 2
Fore
SplineSet
280 -12 m 0,0,1
 210 -12 210 -12 157.5 15.5 c 128,-1,2
 105 43 105 43 76 92 c 128,-1,3
 47 141 47 141 47 206 c 0,4,5
 47 272 47 272 70.5 327 c 128,-1,6
 94 382 94 382 135.5 423 c 128,-1,7
 177 464 177 464 232.5 487 c 128,-1,8
 288 510 288 510 351 510 c 0,9,10
 400 510 400 510 441.5 496.5 c 128,-1,11
 483 483 483 483 507.5 456.5 c 128,-1,12
 532 430 532 430 532 390 c 0,13,14
 532 356 532 356 517.5 331.5 c 128,-1,15
 503 307 503 307 478 291 c 128,-1,16
 453 275 453 275 422 266 c 1,17,-1
 421 262 l 1,18,19
 460 250 460 250 486 221.5 c 128,-1,20
 512 193 512 193 512 153 c 0,21,22
 512 105 512 105 482.5 67.5 c 128,-1,23
 453 30 453 30 401 9 c 128,-1,24
 349 -12 349 -12 280 -12 c 0,0,1
289 51 m 0,25,26
 334 51 334 51 365.5 65.5 c 128,-1,27
 397 80 397 80 414 103 c 128,-1,28
 431 126 431 126 431 153 c 0,29,30
 431 189 431 189 396 209 c 128,-1,31
 361 229 361 229 293 229 c 2,32,-1
 270 229 l 1,33,-1
 282 291 l 1,34,-1
 300 291 l 2,35,36
 370 291 370 291 411 313 c 128,-1,37
 452 335 452 335 452 373 c 0,38,39
 452 410 452 410 421.5 428.5 c 128,-1,40
 391 447 391 447 347 447 c 0,41,42
 285 447 285 447 235 415 c 128,-1,43
 185 383 185 383 156 329 c 128,-1,44
 127 275 127 275 127 211 c 0,45,46
 127 163 127 163 147.5 127 c 128,-1,47
 168 91 168 91 205 71 c 128,-1,48
 242 51 242 51 289 51 c 0,25,26
EndSplineSet
EndChar

StartChar: uni025F
Encoding: 607 607 482
Width: 614
GlyphClass: 2
Flags: W
AnchorPoint: "Anchor-3" 148 -224 basechar 0
AnchorPoint: "Anchor-0" 402 519 basechar 0
LayerCount: 2
Fore
SplineSet
125 217 m 1,0,-1
 135 272 l 1,1,-1
 334 279 l 1,2,-1
 571 279 l 1,3,-1
 559 217 l 1,4,-1
 125 217 l 1,0,-1
125 -222 m 0,5,6
 78 -222 78 -222 41 -208 c 128,-1,7
 4 -194 4 -194 -18 -177 c 1,8,-1
 15 -121 l 1,9,10
 38 -137 38 -137 64 -147.5 c 128,-1,11
 90 -158 90 -158 124 -158 c 0,12,13
 191 -158 191 -158 225.5 -120 c 128,-1,14
 260 -82 260 -82 273 -14 c 2,15,-1
 364 434 l 1,16,-1
 134 434 l 1,17,-1
 148 498 l 1,18,-1
 455 498 l 1,19,-1
 352 -15 l 2,20,21
 332 -114 332 -114 279.5 -168 c 128,-1,22
 227 -222 227 -222 125 -222 c 0,5,6
EndSplineSet
EndChar

StartChar: uni0260
Encoding: 608 608 483
Width: 614
GlyphClass: 2
Flags: W
AnchorPoint: "Anchor-3" 255 -224 basechar 0
AnchorPoint: "Anchor-0" 345 550 basechar 0
LayerCount: 2
Fore
SplineSet
206 -222 m 0,0,1
 145 -222 145 -222 97.5 -204.5 c 128,-1,2
 50 -187 50 -187 16 -161 c 1,3,-1
 53 -104 l 1,4,5
 83 -130 83 -130 124.5 -144 c 128,-1,6
 166 -158 166 -158 207 -158 c 0,7,8
 251 -158 251 -158 288.5 -144 c 128,-1,9
 326 -130 326 -130 351.5 -100 c 128,-1,10
 377 -70 377 -70 388 -22 c 2,11,-1
 411 84 l 1,12,-1
 407 84 l 1,13,14
 371 49 371 49 324.5 26.5 c 128,-1,15
 278 4 278 4 229 4 c 0,16,17
 150 4 150 4 103 52.5 c 128,-1,18
 56 101 56 101 56 190 c 0,19,20
 56 257 56 257 77 315.5 c 128,-1,21
 98 374 98 374 135.5 418 c 128,-1,22
 173 462 173 462 222 487.5 c 128,-1,23
 271 513 271 513 327 513 c 0,24,25
 380 513 380 513 418 493 c 128,-1,26
 456 473 456 473 477 440 c 1,27,-1
 480 440 l 1,28,-1
 490 503 l 2,29,30
 499 549 499 549 518.5 581 c 128,-1,31
 538 613 538 613 567.5 630 c 128,-1,32
 597 647 597 647 640 647 c 0,33,34
 657 647 657 647 671.5 644 c 128,-1,35
 686 641 686 641 696 635 c 1,36,-1
 669 571 l 1,37,38
 661 574 661 574 653 576.5 c 128,-1,39
 645 579 645 579 636 579 c 0,40,41
 605 579 605 579 589 554.5 c 128,-1,42
 573 530 573 530 564 488 c 2,43,-1
 462 -26 l 2,44,45
 449 -96 449 -96 412 -139 c 128,-1,46
 375 -182 375 -182 321.5 -202 c 128,-1,47
 268 -222 268 -222 206 -222 c 0,0,1
253 70 m 0,48,49
 294 70 294 70 337 93 c 128,-1,50
 380 116 380 116 419 158 c 1,51,-1
 464 370 l 1,52,53
 438 410 438 410 405.5 427 c 128,-1,54
 373 444 373 444 336 444 c 0,55,56
 296 444 296 444 259.5 425 c 128,-1,57
 223 406 223 406 196 372.5 c 128,-1,58
 169 339 169 339 153 295.5 c 128,-1,59
 137 252 137 252 137 203 c 0,60,61
 137 135 137 135 168 102.5 c 128,-1,62
 199 70 199 70 253 70 c 0,48,49
EndSplineSet
EndChar

StartChar: uni0262
Encoding: 610 610 485
Width: 614
GlyphClass: 2
Flags: W
AnchorPoint: "Anchor-3" 280 -20 basechar 0
AnchorPoint: "Anchor-2" 285 0 basechar 0
AnchorPoint: "Anchor-0" 358 519 basechar 0
LayerCount: 2
Fore
SplineSet
286 -12 m 0,0,1
 243 -12 243 -12 203 2 c 128,-1,2
 163 16 163 16 131.5 43.5 c 128,-1,3
 100 71 100 71 81.5 110.5 c 128,-1,4
 63 150 63 150 63 201 c 0,5,6
 63 266 63 266 86 322 c 128,-1,7
 109 378 109 378 149 420.5 c 128,-1,8
 189 463 189 463 245.5 486.5 c 128,-1,9
 302 510 302 510 371 510 c 0,10,11
 436 510 436 510 480 486 c 128,-1,12
 524 462 524 462 552 429 c 1,13,-1
 504 380 l 1,14,15
 481 409 481 409 446.5 428 c 128,-1,16
 412 447 412 447 365 447 c 0,17,18
 302 447 302 447 252 415.5 c 128,-1,19
 202 384 202 384 172.5 330 c 128,-1,20
 143 276 143 276 143 209 c 0,21,22
 143 156 143 156 164 120.5 c 128,-1,23
 185 85 185 85 220 67.5 c 128,-1,24
 255 50 255 50 297 50 c 0,25,26
 333 50 333 50 365 59.5 c 128,-1,27
 397 69 397 69 418 83 c 1,28,-1
 443 212 l 1,29,-1
 314 212 l 1,30,-1
 324 266 l 1,31,-1
 525 266 l 1,32,-1
 482 47 l 1,33,34
 449 21 449 21 398.5 4.5 c 128,-1,35
 348 -12 348 -12 286 -12 c 0,0,1
EndSplineSet
EndChar

StartChar: uni0263
Encoding: 611 611 486
Width: 614
GlyphClass: 2
Flags: W
AnchorPoint: "Anchor-3" 202 -224 basechar 0
AnchorPoint: "Anchor-0" 338 519 basechar 0
LayerCount: 2
Fore
SplineSet
209 39 m 1,0,-1
 89 498 l 1,1,-1
 168 498 l 1,2,-1
 230 236 l 2,3,4
 237 203 237 203 245 168.5 c 128,-1,5
 253 134 253 134 263 97 c 1,6,-1
 267 97 l 1,7,8
 291 136 291 136 311.5 169.5 c 128,-1,9
 332 203 332 203 351 236 c 2,10,-1
 516 498 l 1,11,-1
 596 498 l 1,12,-1
 302 39 l 1,13,-1
 209 39 l 1,0,-1
205 -229 m 0,14,15
 161 -229 161 -229 137 -205 c 128,-1,16
 113 -181 113 -181 113 -141 c 0,17,18
 113 -110 113 -110 125.5 -77.5 c 128,-1,19
 138 -45 138 -45 162.5 -7 c 128,-1,20
 187 31 187 31 222 78 c 1,21,-1
 302 78 l 1,22,23
 318 31 318 31 328.5 -7.5 c 128,-1,24
 339 -46 339 -46 339 -80 c 0,25,26
 339 -124 339 -124 322.5 -157 c 128,-1,27
 306 -190 306 -190 276.5 -209.5 c 128,-1,28
 247 -229 247 -229 205 -229 c 0,14,15
214 -172 m 0,29,30
 239 -172 239 -172 254 -150 c 128,-1,31
 269 -128 269 -128 269 -93 c 0,32,33
 269 -63 269 -63 264.5 -37 c 128,-1,34
 260 -11 260 -11 252 14 c 1,35,-1
 248 14 l 1,36,37
 229 -15 229 -15 213.5 -42.5 c 128,-1,38
 198 -70 198 -70 189 -93.5 c 128,-1,39
 180 -117 180 -117 180 -132 c 0,40,41
 180 -172 180 -172 214 -172 c 0,29,30
EndSplineSet
EndChar

StartChar: uni0264
Encoding: 612 612 487
Width: 614
GlyphClass: 2
Flags: W
AnchorPoint: "Anchor-3" 241 -20 basechar 0
AnchorPoint: "Anchor-0" 346 519 basechar 0
LayerCount: 2
Fore
SplineSet
244 -12 m 0,0,1
 176 -12 176 -12 137.5 22 c 128,-1,2
 99 56 99 56 99 117 c 0,3,4
 99 164 99 164 121 208.5 c 128,-1,5
 143 253 143 253 180.5 294 c 128,-1,6
 218 335 218 335 265 374 c 1,7,8
 242 408 242 408 217.5 426.5 c 128,-1,9
 193 445 193 445 165 445 c 0,10,11
 152 445 152 445 139 441 c 128,-1,12
 126 437 126 437 115 430 c 1,13,-1
 100 487 l 1,14,15
 117 498 117 498 141.5 504 c 128,-1,16
 166 510 166 510 188 510 c 0,17,18
 228 510 228 510 264 486 c 128,-1,19
 300 462 300 462 328 421 c 1,20,21
 371 462 371 462 416.5 486 c 128,-1,22
 462 510 462 510 503 510 c 0,23,24
 526 510 526 510 547.5 504 c 128,-1,25
 569 498 569 498 583 486 c 1,26,-1
 545 429 l 1,27,28
 537 437 537 437 525.5 441 c 128,-1,29
 514 445 514 445 500 445 c 0,30,31
 471 445 471 445 440.5 425.5 c 128,-1,32
 410 406 410 406 375 372 c 1,33,34
 408 331 408 331 430.5 286 c 128,-1,35
 453 241 453 241 453 193 c 0,36,37
 453 137 453 137 427.5 90 c 128,-1,38
 402 43 402 43 355.5 15.5 c 128,-1,39
 309 -12 309 -12 244 -12 c 0,0,1
254 53 m 256,40,41
 293 53 293 53 320 72 c 128,-1,42
 347 91 347 91 362 121 c 128,-1,43
 377 151 377 151 377 184 c 0,44,45
 377 223 377 223 358 261.5 c 128,-1,46
 339 300 339 300 312 332 c 1,47,48
 275 303 275 303 244.5 270 c 128,-1,49
 214 237 214 237 195 201.5 c 128,-1,50
 176 166 176 166 176 131 c 0,51,52
 176 99 176 99 195.5 76 c 128,-1,53
 215 53 215 53 254 53 c 256,40,41
EndSplineSet
EndChar

StartChar: uni0265
Encoding: 613 613 488
Width: 614
GlyphClass: 2
Flags: W
AnchorPoint: "Anchor-3" 244 -20 basechar 0
AnchorPoint: "Anchor-0" 345 519 basechar 0
LayerCount: 2
Fore
SplineSet
343 -210 m 1,0,-1
 393 37 l 1,1,-1
 410 99 l 1,2,-1
 406 99 l 1,3,4
 375 69 375 69 340.5 43.5 c 128,-1,5
 306 18 306 18 267.5 3 c 128,-1,6
 229 -12 229 -12 185 -12 c 0,7,8
 119 -12 119 -12 88 22 c 128,-1,9
 57 56 57 56 57 112 c 0,10,11
 57 135 57 135 59.5 154 c 128,-1,12
 62 173 62 173 67 194 c 2,13,-1
 128 498 l 1,14,-1
 206 498 l 1,15,-1
 146 202 l 2,16,17
 143 184 143 184 140 167 c 128,-1,18
 137 150 137 150 137 132 c 0,19,20
 137 95 137 95 157.5 75 c 128,-1,21
 178 55 178 55 216 55 c 0,22,23
 266 55 266 55 318 87.5 c 128,-1,24
 370 120 370 120 420 176 c 1,25,-1
 484 498 l 1,26,-1
 563 498 l 1,27,-1
 421 -210 l 1,28,-1
 343 -210 l 1,0,-1
EndSplineSet
EndChar

StartChar: uni0266
Encoding: 614 614 489
Width: 614
GlyphClass: 2
Flags: W
AnchorPoint: "Anchor-3" 267 -20 basechar 0
AnchorPoint: "Anchor-0" 326 754 basechar 0
LayerCount: 2
Fore
SplineSet
37 0 m 1,0,-1
 146 545 l 2,1,2
 158 608 158 608 185.5 652 c 128,-1,3
 213 696 213 696 256 718.5 c 128,-1,4
 299 741 299 741 357 741 c 0,5,6
 386 741 386 741 411 734.5 c 128,-1,7
 436 728 436 728 455 717 c 1,8,-1
 426 655 l 1,9,10
 395 674 395 674 356 675 c 0,11,12
 306 675 306 675 273.5 645 c 128,-1,13
 241 615 241 615 224 544 c 2,14,-1
 188 390 l 1,15,-1
 193 390 l 1,16,17
 224 421 224 421 258 446.5 c 128,-1,18
 292 472 292 472 331 487.5 c 128,-1,19
 370 503 370 503 413 503 c 0,20,21
 480 503 480 503 510.5 469 c 128,-1,22
 541 435 541 435 541 379 c 0,23,24
 541 357 541 357 539 337 c 128,-1,25
 537 317 537 317 531 297 c 2,26,-1
 472 0 l 1,27,-1
 393 0 l 1,28,-1
 452 288 l 2,29,30
 456 308 456 308 458.5 324.5 c 128,-1,31
 461 341 461 341 461 358 c 0,32,33
 461 395 461 395 441 414.5 c 128,-1,34
 421 434 421 434 382 434 c 0,35,36
 332 434 332 434 280.5 403 c 128,-1,37
 229 372 229 372 178 314 c 1,38,-1
 115 0 l 1,39,-1
 37 0 l 1,0,-1
EndSplineSet
Substitution2: "'sups' Superscript lookup 19 subtable" uni0266.sups
EndChar

StartChar: uni0267
Encoding: 615 615 490
Width: 614
GlyphClass: 2
Flags: W
AnchorPoint: "Anchor-0" 326 754 basechar 0
LayerCount: 2
Fore
SplineSet
317 -187 m 0,0,1
 293 -187 293 -187 275.5 -182 c 128,-1,2
 258 -177 258 -177 241 -168 c 1,3,-1
 267 -110 l 1,4,5
 276 -116 276 -116 287 -119.5 c 128,-1,6
 298 -123 298 -123 313 -123 c 0,7,8
 344 -123 344 -123 361.5 -100 c 128,-1,9
 379 -77 379 -77 388 -30 c 2,10,-1
 452 288 l 2,11,12
 456 308 456 308 458.5 324.5 c 128,-1,13
 461 341 461 341 461 358 c 0,14,15
 461 395 461 395 441 414.5 c 128,-1,16
 421 434 421 434 382 434 c 0,17,18
 332 434 332 434 280.5 403 c 128,-1,19
 229 372 229 372 178 314 c 1,20,-1
 115 0 l 1,21,-1
 37 0 l 1,22,-1
 146 545 l 2,23,24
 158 608 158 608 185.5 652 c 128,-1,25
 213 696 213 696 256 718.5 c 128,-1,26
 299 741 299 741 357 741 c 0,27,28
 386 741 386 741 411 734.5 c 128,-1,29
 436 728 436 728 455 717 c 1,30,-1
 426 655 l 1,31,32
 395 674 395 674 356 675 c 0,33,34
 306 675 306 675 273.5 645 c 128,-1,35
 241 615 241 615 224 544 c 2,36,-1
 188 390 l 1,37,-1
 193 390 l 1,38,39
 224 421 224 421 258 446.5 c 128,-1,40
 292 472 292 472 331 487.5 c 128,-1,41
 370 503 370 503 413 503 c 0,42,43
 480 503 480 503 510.5 469 c 128,-1,44
 541 435 541 435 541 379 c 0,45,46
 541 357 541 357 539 337 c 128,-1,47
 537 317 537 317 531 297 c 2,48,-1
 466 -31 l 2,49,50
 456 -79 456 -79 438 -114.5 c 128,-1,51
 420 -150 420 -150 390.5 -168.5 c 128,-1,52
 361 -187 361 -187 317 -187 c 0,0,1
EndSplineSet
EndChar

StartChar: uni029C
Encoding: 668 668 491
Width: 614
GlyphClass: 2
Flags: W
AnchorPoint: "Anchor-3" 240 -20 basechar 0
AnchorPoint: "Anchor-0" 344 519 basechar 0
LayerCount: 2
Fore
SplineSet
36 0 m 1,0,-1
 135 498 l 1,1,-1
 214 498 l 1,2,-1
 174 293 l 1,3,-1
 435 293 l 1,4,-1
 475 498 l 1,5,-1
 554 498 l 1,6,-1
 455 0 l 1,7,-1
 376 0 l 1,8,-1
 421 223 l 1,9,-1
 159 223 l 1,10,-1
 115 0 l 1,11,-1
 36 0 l 1,0,-1
EndSplineSet
EndChar

StartChar: uni026A
Encoding: 618 618 493
Width: 614
GlyphClass: 2
Flags: W
AnchorPoint: "Anchor-3" 240 -20 basechar 0
AnchorPoint: "Anchor-0" 347 519 basechar 0
LayerCount: 2
Fore
SplineSet
41 0 m 1,0,-1
 54 68 l 1,1,-1
 216 68 l 1,2,-1
 289 430 l 1,3,-1
 126 430 l 1,4,-1
 139 498 l 1,5,-1
 549 498 l 1,6,-1
 536 430 l 1,7,-1
 371 430 l 1,8,-1
 298 68 l 1,9,-1
 462 68 l 1,10,-1
 449 0 l 1,11,-1
 41 0 l 1,0,-1
EndSplineSet
EndChar

StartChar: uni029E
Encoding: 670 670 495
Width: 614
GlyphClass: 2
Flags: W
AnchorPoint: "Anchor-3" 358 -224 basechar 0
AnchorPoint: "Anchor-0" 322 519 basechar 0
LayerCount: 2
Fore
SplineSet
324 -210 m 1,0,-1
 419 265 l 1,1,-1
 415 265 l 1,2,-1
 90 0 l 1,3,-1
 -5 0 l 1,4,-1
 255 221 l 1,5,-1
 438 367 l 1,6,-1
 465 498 l 1,7,-1
 544 498 l 1,8,-1
 401 -210 l 1,9,-1
 324 -210 l 1,0,-1
238 182 m 1,10,-1
 73 498 l 1,11,-1
 155 498 l 1,12,-1
 291 234 l 1,13,-1
 238 182 l 1,10,-1
EndSplineSet
EndChar

StartChar: uni026C
Encoding: 620 620 497
Width: 614
GlyphClass: 2
Flags: W
AnchorPoint: "Anchor-3" 331 -20 basechar 0
AnchorPoint: "Anchor-0" 358 754 basechar 0
LayerCount: 2
Fore
SplineSet
222 313 m 2,0,1
 152 313 152 313 118 341.5 c 128,-1,2
 84 370 84 370 84 415 c 0,3,4
 84 454 84 454 109 479 c 128,-1,5
 134 504 134 504 174 504 c 0,6,7
 210 504 210 504 234 485 c 128,-1,8
 258 466 258 466 270 433.5 c 128,-1,9
 282 401 282 401 281 362 c 1,10,-1
 249 375 l 1,11,12
 254 403 254 403 234 426 c 128,-1,13
 214 449 214 449 180 449 c 0,14,15
 165 449 165 449 155 439.5 c 128,-1,16
 145 430 145 430 145 415 c 0,17,18
 145 398 145 398 162 386.5 c 128,-1,19
 179 375 179 375 213 375 c 2,20,-1
 471 375 l 1,21,-1
 457 313 l 1,22,-1
 222 313 l 2,0,1
333 -12 m 0,23,24
 276 -12 276 -12 238 21 c 128,-1,25
 200 54 200 54 200 120 c 0,26,27
 200 133 200 133 201.5 146 c 128,-1,28
 203 159 203 159 207 175 c 2,29,-1
 310 666 l 1,30,-1
 144 666 l 1,31,-1
 158 729 l 1,32,-1
 400 729 l 1,33,-1
 284 172 l 2,34,35
 282 161 282 161 280.5 149.5 c 128,-1,36
 279 138 279 138 279 127 c 0,37,38
 279 89 279 89 299 71 c 128,-1,39
 319 53 319 53 354 53 c 0,40,41
 379 53 379 53 402 60.5 c 128,-1,42
 425 68 425 68 452 81 c 1,43,-1
 471 20 l 1,44,45
 438 4 438 4 404 -4 c 128,-1,46
 370 -12 370 -12 333 -12 c 0,23,24
EndSplineSet
EndChar

StartChar: uni026D
Encoding: 621 621 498
Width: 614
GlyphClass: 2
Flags: W
AnchorPoint: "Anchor-3" 283 -191 basechar 0
AnchorPoint: "Anchor-0" 358 754 basechar 0
LayerCount: 2
Fore
SplineSet
296 -187 m 0,0,1
 239 -187 239 -187 201.5 -153.5 c 128,-1,2
 164 -120 164 -120 164 -55 c 0,3,4
 164 -42 164 -42 165.5 -28.5 c 128,-1,5
 167 -15 167 -15 170 0 c 2,6,-1
 310 666 l 1,7,-1
 144 666 l 1,8,-1
 158 729 l 1,9,-1
 400 729 l 1,10,-1
 248 -3 l 2,11,12
 246 -14 246 -14 244.5 -25.5 c 128,-1,13
 243 -37 243 -37 243 -48 c 0,14,15
 243 -87 243 -87 263.5 -104.5 c 128,-1,16
 284 -122 284 -122 317 -122 c 0,17,18
 343 -122 343 -122 365.5 -115.5 c 128,-1,19
 388 -109 388 -109 416 -94 c 1,20,-1
 435 -155 l 1,21,22
 401 -171 401 -171 367.5 -179 c 128,-1,23
 334 -187 334 -187 296 -187 c 0,0,1
EndSplineSet
EndChar

StartChar: uni026E
Encoding: 622 622 499
Width: 614
GlyphClass: 2
Flags: W
AnchorPoint: "Anchor-3" 267 -224 basechar 0
AnchorPoint: "Anchor-0" 208 754 basechar 0
LayerCount: 2
Fore
SplineSet
22 0 m 1,0,-1
 168 729 l 1,1,-1
 246 729 l 1,2,-1
 100 0 l 1,3,-1
 22 0 l 1,0,-1
274 -222 m 0,4,5
 202 -222 202 -222 158 -197 c 128,-1,6
 114 -172 114 -172 87 -141 c 1,7,-1
 131 -95 l 1,8,9
 155 -119 155 -119 189 -138.5 c 128,-1,10
 223 -158 223 -158 279 -158 c 0,11,12
 310 -158 310 -158 339.5 -144 c 128,-1,13
 369 -130 369 -130 393 -104 c 128,-1,14
 417 -78 417 -78 431 -43 c 128,-1,15
 445 -8 445 -8 445 34 c 0,16,17
 445 88 445 88 414.5 114 c 128,-1,18
 384 140 384 140 330 140 c 0,19,20
 308 140 308 140 293 135.5 c 128,-1,21
 278 131 278 131 258 124 c 1,22,-1
 236 168 l 1,23,-1
 488 434 l 1,24,-1
 160 434 l 1,25,-1
 172 498 l 1,26,-1
 597 498 l 1,27,-1
 589 452 l 1,28,-1
 344 191 l 1,29,30
 399 199 399 199 439.5 182 c 128,-1,31
 480 165 480 165 502 130 c 128,-1,32
 524 95 524 95 524 49 c 0,33,34
 524 -7 524 -7 503.5 -56.5 c 128,-1,35
 483 -106 483 -106 448.5 -143 c 128,-1,36
 414 -180 414 -180 368.5 -201 c 128,-1,37
 323 -222 323 -222 274 -222 c 0,4,5
EndSplineSet
EndChar

StartChar: uni029F
Encoding: 671 671 500
Width: 614
GlyphClass: 2
Flags: W
AnchorPoint: "Anchor-3" 310 -20 basechar 0
AnchorPoint: "Anchor-0" 246 519 basechar 0
LayerCount: 2
Fore
SplineSet
108 0 m 1,0,-1
 207 498 l 1,1,-1
 285 498 l 1,2,-1
 199 63 l 1,3,-1
 506 63 l 1,4,-1
 493 0 l 1,5,-1
 108 0 l 1,0,-1
EndSplineSet
EndChar

StartChar: uni0270
Encoding: 624 624 502
Width: 614
GlyphClass: 2
Flags: W
AnchorPoint: "Anchor-3" 406 -224 basechar 0
AnchorPoint: "Anchor-0" 342 518 basechar 0
LayerCount: 2
Fore
SplineSet
377 -210 m 1,0,-1
 411 -45 l 2,1,2
 416 -20 416 -20 422.5 6.5 c 128,-1,3
 429 33 429 33 439 68 c 1,4,-1
 436 68 l 1,5,6
 405 30 405 30 372.5 9 c 128,-1,7
 340 -12 340 -12 301 -12 c 0,8,9
 268 -12 268 -12 248.5 8 c 128,-1,10
 229 28 229 28 227 73 c 1,11,-1
 240 84 l 1,12,13
 202 32 202 32 164 10 c 128,-1,14
 126 -12 126 -12 88 -12 c 0,15,16
 53 -12 53 -12 32 9.5 c 128,-1,17
 11 31 11 31 10 75 c 0,18,19
 11 88 11 88 12 100.5 c 128,-1,20
 13 113 13 113 16 131 c 2,21,-1
 90 498 l 1,22,-1
 168 498 l 1,23,-1
 96 141 l 2,24,25
 95 129 95 129 94 120 c 128,-1,26
 93 111 93 111 92 102 c 0,27,28
 93 76 93 76 102 65.5 c 128,-1,29
 111 55 111 55 127 55 c 0,30,31
 155 55 155 55 179.5 75.5 c 128,-1,32
 204 96 204 96 230 137 c 1,33,-1
 303 498 l 1,34,-1
 379 498 l 1,35,-1
 305 141 l 2,36,37
 304 129 304 129 303 120 c 128,-1,38
 302 111 302 111 301 102 c 0,39,40
 302 76 302 76 312 65.5 c 128,-1,41
 322 55 322 55 337 55 c 0,42,43
 367 55 367 55 391 75.5 c 128,-1,44
 415 96 415 96 443 137 c 1,45,-1
 514 498 l 1,46,-1
 592 498 l 1,47,-1
 450 -210 l 1,48,-1
 377 -210 l 1,0,-1
EndSplineSet
EndChar

StartChar: uni0271
Encoding: 625 625 503
Width: 614
GlyphClass: 2
Flags: W
AnchorPoint: "Anchor-0" 358 518 basechar 0
LayerCount: 2
Fore
SplineSet
364 -187 m 0,0,1
 341 -187 341 -187 323.5 -182 c 128,-1,2
 306 -177 306 -177 291 -169 c 1,3,-1
 316 -111 l 1,4,5
 324 -117 324 -117 333.5 -120 c 128,-1,6
 343 -123 343 -123 358 -123 c 0,7,8
 382 -123 382 -123 395.5 -99 c 128,-1,9
 409 -75 409 -75 419 -26 c 2,10,-1
 496 356 l 2,11,12
 498 368 498 368 499 377.5 c 128,-1,13
 500 387 500 387 500 395 c 0,14,15
 500 421 500 421 491 431.5 c 128,-1,16
 482 442 482 442 465 442 c 0,17,18
 438 442 438 442 413.5 421.5 c 128,-1,19
 389 401 389 401 361 360 c 1,20,-1
 289 0 l 1,21,-1
 213 0 l 1,22,-1
 287 356 l 2,23,24
 289 368 289 368 290 377.5 c 128,-1,25
 291 387 291 387 291 395 c 0,26,27
 291 421 291 421 281 431.5 c 128,-1,28
 271 442 271 442 255 442 c 0,29,30
 226 442 226 442 202 421.5 c 128,-1,31
 178 401 178 401 148 360 c 1,32,-1
 78 0 l 1,33,-1
 0 0 l 1,34,-1
 99 498 l 1,35,-1
 160 498 l 1,36,-1
 153 430 l 1,37,-1
 156 430 l 1,38,39
 186 468 186 468 219 489 c 128,-1,40
 252 510 252 510 290 510 c 0,41,42
 325 510 325 510 344.5 490 c 128,-1,43
 364 470 364 470 365 425 c 1,44,-1
 352 414 l 1,45,46
 391 466 391 466 429 488 c 128,-1,47
 467 510 467 510 504 510 c 0,48,49
 540 510 540 510 561 489 c 128,-1,50
 582 468 582 468 582 423 c 0,51,52
 582 410 582 410 581 397.5 c 128,-1,53
 580 385 580 385 575 367 c 2,54,-1
 497 -27 l 2,55,56
 487 -78 487 -78 471 -114 c 128,-1,57
 455 -150 455 -150 429.5 -168.5 c 128,-1,58
 404 -187 404 -187 364 -187 c 0,0,1
EndSplineSet
EndChar

StartChar: uni0272
Encoding: 626 626 504
Width: 614
GlyphClass: 2
Flags: W
AnchorPoint: "Anchor-0" 367 519 basechar 0
LayerCount: 2
Fore
SplineSet
-38 -187 m 0,0,1
 -57 -187 -57 -187 -72 -183.5 c 128,-1,2
 -87 -180 -87 -180 -97 -174 c 1,3,-1
 -69 -110 l 1,4,5
 -52 -119 -52 -119 -35 -119 c 0,6,7
 -7 -119 -7 -119 8 -96.5 c 128,-1,8
 23 -74 23 -74 30 -36 c 2,9,-1
 136 498 l 1,10,-1
 200 498 l 1,11,-1
 187 396 l 1,12,-1
 191 396 l 1,13,14
 221 426 221 426 256 452 c 128,-1,15
 291 478 291 478 330.5 494 c 128,-1,16
 370 510 370 510 415 510 c 0,17,18
 481 510 481 510 512 476 c 128,-1,19
 543 442 543 442 543 386 c 0,20,21
 543 364 543 364 540.5 344.5 c 128,-1,22
 538 325 538 325 534 304 c 2,23,-1
 472 0 l 1,24,-1
 393 0 l 1,25,-1
 453 296 l 2,26,27
 458 315 458 315 460 332 c 128,-1,28
 462 349 462 349 462 366 c 0,29,30
 462 403 462 403 442 422.5 c 128,-1,31
 422 442 422 442 383 442 c 0,32,33
 333 442 333 442 281.5 410.5 c 128,-1,34
 230 379 230 379 179 322 c 1,35,-1
 109 -34 l 2,36,37
 99 -84 99 -84 81 -118.5 c 128,-1,38
 63 -153 63 -153 34 -170 c 128,-1,39
 5 -187 5 -187 -38 -187 c 0,0,1
EndSplineSet
EndChar

StartChar: uni0273
Encoding: 627 627 505
Width: 614
GlyphClass: 2
Flags: W
AnchorPoint: "Anchor-0" 367 519 basechar 0
LayerCount: 2
Fore
SplineSet
463 -187 m 0,0,1
 424 -187 424 -187 402 -165 c 128,-1,2
 380 -143 380 -143 380 -101 c 0,3,4
 380 -85 380 -85 381.5 -70.5 c 128,-1,5
 383 -56 383 -56 385 -43 c 2,6,-1
 453 296 l 2,7,8
 458 315 458 315 460 332 c 128,-1,9
 462 349 462 349 462 366 c 0,10,11
 462 403 462 403 442 422.5 c 128,-1,12
 422 442 422 442 383 442 c 0,13,14
 333 442 333 442 281.5 410.5 c 128,-1,15
 230 379 230 379 179 322 c 1,16,-1
 115 0 l 1,17,-1
 37 0 l 1,18,-1
 136 498 l 1,19,-1
 200 498 l 1,20,-1
 187 396 l 1,21,-1
 191 396 l 1,22,23
 221 426 221 426 256 452 c 128,-1,24
 291 478 291 478 330.5 494 c 128,-1,25
 370 510 370 510 415 510 c 0,26,27
 481 510 481 510 512 476 c 128,-1,28
 543 442 543 442 543 386 c 0,29,30
 543 364 543 364 540.5 344.5 c 128,-1,31
 538 325 538 325 534 304 c 2,32,-1
 463 -46 l 2,33,34
 462 -54 462 -54 461 -63 c 128,-1,35
 460 -72 460 -72 460 -83 c 0,36,37
 460 -100 460 -100 469 -111 c 128,-1,38
 478 -122 478 -122 497 -122 c 0,39,40
 506 -122 506 -122 514.5 -120.5 c 128,-1,41
 523 -119 523 -119 531 -116 c 1,42,-1
 532 -175 l 1,43,44
 521 -179 521 -179 504.5 -183 c 128,-1,45
 488 -187 488 -187 463 -187 c 0,0,1
EndSplineSet
EndChar

StartChar: uni0274
Encoding: 628 628 506
Width: 614
GlyphClass: 2
Flags: W
AnchorPoint: "Anchor-3" 250 -20 basechar 0
AnchorPoint: "Anchor-0" 338 519 basechar 0
LayerCount: 2
Fore
SplineSet
52 0 m 1,0,-1
 150 498 l 1,1,-1
 227 498 l 1,2,-1
 346 216 l 2,3,4
 356 193 356 193 367 163 c 128,-1,5
 378 133 378 133 387 110 c 1,6,-1
 391 110 l 1,7,8
 397 159 397 159 404 205 c 128,-1,9
 411 251 411 251 419 291 c 2,10,-1
 459 498 l 1,11,-1
 536 498 l 1,12,-1
 438 0 l 1,13,-1
 361 0 l 1,14,-1
 242 282 l 2,15,16
 233 305 233 305 221.5 335.5 c 128,-1,17
 210 366 210 366 201 388 c 1,18,-1
 197 388 l 1,19,20
 192 340 192 340 184.5 294 c 128,-1,21
 177 248 177 248 169 207 c 2,22,-1
 129 0 l 1,23,-1
 52 0 l 1,0,-1
EndSplineSet
EndChar

StartChar: uni0275
Encoding: 629 629 507
Width: 614
GlyphClass: 2
Flags: W
AnchorPoint: "Anchor-3" 240 -20 basechar 0
AnchorPoint: "Anchor-0" 347 519 basechar 0
LayerCount: 2
Fore
SplineSet
256 -12 m 0,0,1
 191 -12 191 -12 144 15.5 c 128,-1,2
 97 43 97 43 72 92 c 128,-1,3
 47 141 47 141 47 206 c 0,4,5
 47 272 47 272 70 327 c 128,-1,6
 93 382 93 382 133 423 c 128,-1,7
 173 464 173 464 224.5 487 c 128,-1,8
 276 510 276 510 334 510 c 0,9,10
 400 510 400 510 446 482.5 c 128,-1,11
 492 455 492 455 517 405.5 c 128,-1,12
 542 356 542 356 542 292 c 0,13,14
 542 226 542 226 519.5 170.5 c 128,-1,15
 497 115 497 115 457 74 c 128,-1,16
 417 33 417 33 365 10.5 c 128,-1,17
 313 -12 313 -12 256 -12 c 0,0,1
262 50 m 0,18,19
 303 50 303 50 340 68.5 c 128,-1,20
 377 87 377 87 405 119.5 c 128,-1,21
 433 152 433 152 449.5 195 c 128,-1,22
 466 238 466 238 466 287 c 0,23,24
 466 362 466 362 430 404.5 c 128,-1,25
 394 447 394 447 328 447 c 0,26,27
 287 447 287 447 250 429 c 128,-1,28
 213 411 213 411 184.5 378.5 c 128,-1,29
 156 346 156 346 139.5 303 c 128,-1,30
 123 260 123 260 123 211 c 0,31,32
 123 136 123 136 159 93 c 128,-1,33
 195 50 195 50 262 50 c 0,18,19
106 229 m 1,34,-1
 118 291 l 1,35,-1
 487 291 l 1,36,-1
 476 229 l 1,37,-1
 106 229 l 1,34,-1
EndSplineSet
EndChar

StartChar: uni0276
Encoding: 630 630 508
Width: 614
GlyphClass: 2
Flags: W
AnchorPoint: "Anchor-3" 310 -20 basechar 0
AnchorPoint: "Anchor-0" 385 519 basechar 0
LayerCount: 2
Fore
SplineSet
189 -12 m 0,0,1
 134 -12 134 -12 92 10 c 128,-1,2
 50 32 50 32 26.5 75.5 c 128,-1,3
 3 119 3 119 3 182 c 0,4,5
 3 252 3 252 24 312 c 128,-1,6
 45 372 45 372 82.5 416.5 c 128,-1,7
 120 461 120 461 171 485.5 c 128,-1,8
 222 510 222 510 282 510 c 0,9,10
 308 510 308 510 330.5 507 c 128,-1,11
 353 504 353 504 380 498 c 1,12,-1
 639 498 l 1,13,-1
 627 434 l 1,14,-1
 418 434 l 1,15,-1
 389 291 l 1,16,-1
 560 291 l 1,17,-1
 549 229 l 1,18,-1
 377 229 l 1,19,-1
 344 63 l 1,20,-1
 562 63 l 1,21,-1
 550 0 l 1,22,-1
 281 0 l 1,23,24
 258 -6 258 -6 236.5 -9 c 128,-1,25
 215 -12 215 -12 189 -12 c 0,0,1
202 53 m 0,26,27
 218 53 218 53 235.5 56.5 c 128,-1,28
 253 60 253 60 270 65 c 1,29,-1
 341 434 l 1,30,31
 328 438 328 438 312 441 c 128,-1,32
 296 444 296 444 280 444 c 0,33,34
 224 444 224 444 179 409 c 128,-1,35
 134 374 134 374 108 316 c 128,-1,36
 82 258 82 258 82 189 c 256,37,38
 82 120 82 120 115 86.5 c 128,-1,39
 148 53 148 53 202 53 c 0,26,27
EndSplineSet
EndChar

StartChar: uni0278
Encoding: 632 632 509
Width: 614
GlyphClass: 2
Flags: W
AnchorPoint: "Anchor-3" 195 -224 basechar 0
AnchorPoint: "Anchor-0" 401 754 basechar 0
LayerCount: 2
Fore
SplineSet
236 -9 m 1,0,1
 198 -9 198 -9 160 4 c 128,-1,2
 122 17 122 17 91 44.5 c 128,-1,3
 60 72 60 72 41.5 112.5 c 128,-1,4
 23 153 23 153 23 206 c 0,5,6
 23 277 23 277 47 332 c 128,-1,7
 71 387 71 387 113 426 c 128,-1,8
 155 465 155 465 208.5 485.5 c 128,-1,9
 262 506 262 506 321 507 c 1,10,-1
 305 446 l 1,11,12
 251 445 251 445 205 415 c 128,-1,13
 159 385 159 385 130.5 333.5 c 128,-1,14
 102 282 102 282 102 215 c 0,15,16
 102 160 102 160 122.5 123.5 c 128,-1,17
 143 87 143 87 175 69 c 128,-1,18
 207 51 207 51 241 50 c 1,19,-1
 236 -9 l 1,0,1
271 -9 m 1,20,-1
 287 50 l 1,21,22
 341 52 341 52 387 82.5 c 128,-1,23
 433 113 433 113 461 164.5 c 128,-1,24
 489 216 489 216 489 283 c 0,25,26
 489 338 489 338 469 374.5 c 128,-1,27
 449 411 449 411 417.5 428.5 c 128,-1,28
 386 446 386 446 351 446 c 1,29,-1
 356 507 l 1,30,31
 394 507 394 507 432 493 c 128,-1,32
 470 479 470 479 500.5 452.5 c 128,-1,33
 531 426 531 426 550 385.5 c 128,-1,34
 569 345 569 345 569 291 c 0,35,36
 569 220 569 220 545 165 c 128,-1,37
 521 110 521 110 479.5 71.5 c 128,-1,38
 438 33 438 33 384 12.5 c 128,-1,39
 330 -8 330 -8 271 -9 c 1,20,-1
160 -210 m 1,40,-1
 356 729 l 1,41,-1
 438 729 l 1,42,-1
 242 -210 l 1,43,-1
 160 -210 l 1,40,-1
EndSplineSet
EndChar

StartChar: uni027A
Encoding: 634 634 511
Width: 614
GlyphClass: 2
Flags: W
AnchorPoint: "Anchor-3" 222 -20 basechar 0
AnchorPoint: "Anchor-0" 517 754 basechar 0
LayerCount: 2
Fore
SplineSet
134 -12 m 0,0,1
 101 -12 101 -12 76 -5 c 128,-1,2
 51 2 51 2 34 13 c 1,3,-1
 67 81 l 1,4,5
 86 69 86 69 106.5 64 c 128,-1,6
 127 59 127 59 153 60 c 0,7,8
 208 61 208 61 265.5 110.5 c 128,-1,9
 323 160 323 160 374 240 c 1,10,-1
 479 729 l 1,11,-1
 558 729 l 1,12,-1
 404 0 l 1,13,-1
 340 0 l 1,14,-1
 361 141 l 1,15,-1
 357 141 l 1,16,17
 329 99 329 99 294 64.5 c 128,-1,18
 259 30 259 30 218.5 9 c 128,-1,19
 178 -12 178 -12 134 -12 c 0,0,1
EndSplineSet
EndChar

StartChar: uni027B
Encoding: 635 635 512
Width: 614
GlyphClass: 2
Flags: W
AnchorPoint: "Anchor-3" 104 -20 basechar 0
AnchorPoint: "Anchor-0" 371 519 basechar 0
LayerCount: 2
Fore
SplineSet
341 -187 m 0,0,1
 292 -187 292 -187 270 -161.5 c 128,-1,2
 248 -136 248 -136 248 -95 c 0,3,4
 248 -82 248 -82 250 -67.5 c 128,-1,5
 252 -53 252 -53 255 -39 c 2,6,-1
 281 91 l 1,7,-1
 278 91 l 1,8,9
 245 40 245 40 208 14 c 128,-1,10
 171 -12 171 -12 119 -12 c 0,11,12
 101 -12 101 -12 79 -6 c 128,-1,13
 57 0 57 0 34 13 c 1,14,-1
 66 81 l 1,15,16
 88 69 88 69 106.5 64 c 128,-1,17
 125 59 125 59 143 59 c 0,18,19
 167 59 167 59 191.5 70.5 c 128,-1,20
 216 82 216 82 241 107.5 c 128,-1,21
 266 133 266 133 291 178 c 1,22,-1
 353 498 l 1,23,-1
 432 498 l 1,24,-1
 327 -29 l 2,25,26
 325 -43 325 -43 323.5 -54.5 c 128,-1,27
 322 -66 322 -66 322 -77 c 0,28,29
 322 -100 322 -100 334 -111 c 128,-1,30
 346 -122 346 -122 367 -122 c 0,31,32
 383 -122 383 -122 399.5 -115.5 c 128,-1,33
 416 -109 416 -109 428 -100 c 1,34,-1
 432 -162 l 1,35,36
 416 -170 416 -170 392 -178.5 c 128,-1,37
 368 -187 368 -187 341 -187 c 0,0,1
EndSplineSet
EndChar

StartChar: uni027D
Encoding: 637 637 513
Width: 614
GlyphClass: 2
Flags: W
AnchorPoint: "Anchor-3" 226 -191 basechar 0
AnchorPoint: "Anchor-0" 391 519 basechar 0
LayerCount: 2
Fore
SplineSet
240 -187 m 0,0,1
 165 -187 165 -187 129.5 -148 c 128,-1,2
 94 -109 94 -109 94 -45 c 0,3,4
 94 -29 94 -29 96.5 -13.5 c 128,-1,5
 99 2 99 2 102 19 c 2,6,-1
 199 498 l 1,7,-1
 263 498 l 1,8,-1
 242 355 l 1,9,-1
 246 355 l 1,10,11
 274 397 274 397 309 432.5 c 128,-1,12
 344 468 344 468 384.5 489 c 128,-1,13
 425 510 425 510 468 510 c 0,14,15
 502 510 502 510 527 503 c 128,-1,16
 552 496 552 496 568 484 c 1,17,-1
 537 417 l 1,18,19
 519 429 519 429 499 433.5 c 128,-1,20
 479 438 479 438 455 438 c 0,21,22
 398 438 398 438 340 389 c 128,-1,23
 282 340 282 340 229 259 c 1,24,-1
 180 17 l 2,25,26
 177 4 177 4 176 -6.5 c 128,-1,27
 175 -17 175 -17 175 -29 c 0,28,29
 175 -76 175 -76 197.5 -99 c 128,-1,30
 220 -122 220 -122 260 -122 c 0,31,32
 292 -122 292 -122 319 -110.5 c 128,-1,33
 346 -99 346 -99 369 -86 c 1,34,-1
 395 -142 l 1,35,36
 365 -160 365 -160 325.5 -173.5 c 128,-1,37
 286 -187 286 -187 240 -187 c 0,0,1
EndSplineSet
EndChar

StartChar: uni027E
Encoding: 638 638 514
Width: 614
GlyphClass: 2
Flags: W
AnchorPoint: "Anchor-3" 140 -20 basechar 0
AnchorPoint: "Anchor-0" 385 519 basechar 0
LayerCount: 2
Fore
SplineSet
99 0 m 1,0,-1
 160 301 l 2,1,2
 173 368 173 368 206.5 414.5 c 128,-1,3
 240 461 240 461 293 485.5 c 128,-1,4
 346 510 346 510 422 510 c 0,5,6
 447 510 447 510 474 507 c 128,-1,7
 501 504 501 504 526 499 c 128,-1,8
 551 494 551 494 568 484 c 1,9,-1
 538 415 l 1,10,11
 520 424 520 424 498 429 c 128,-1,12
 476 434 476 434 455 435.5 c 128,-1,13
 434 437 434 437 416 437 c 0,14,15
 371 437 371 437 333.5 420 c 128,-1,16
 296 403 296 403 271 369 c 128,-1,17
 246 335 246 335 234 282 c 2,18,-1
 179 0 l 1,19,-1
 99 0 l 1,0,-1
EndSplineSet
EndChar

StartChar: uni0280
Encoding: 640 640 515
Width: 614
GlyphClass: 2
Flags: W
AnchorPoint: "Anchor-3" 283 -20 basechar 0
AnchorPoint: "Anchor-0" 365 519 basechar 0
LayerCount: 2
Fore
SplineSet
73 0 m 1,0,-1
 171 498 l 1,1,-1
 381 498 l 2,2,3
 427 498 427 498 462.5 485.5 c 128,-1,4
 498 473 498 473 518 446 c 128,-1,5
 538 419 538 419 538 375 c 0,6,7
 538 323 538 323 510.5 282.5 c 128,-1,8
 483 242 483 242 435 219.5 c 128,-1,9
 387 197 387 197 326 197 c 2,10,-1
 190 197 l 1,11,-1
 151 0 l 1,12,-1
 73 0 l 1,0,-1
203 256 m 1,13,-1
 319 256 l 2,14,15
 386 256 386 256 421.5 286.5 c 128,-1,16
 457 317 457 317 457 359 c 0,17,18
 457 400 457 400 429.5 417.5 c 128,-1,19
 402 435 402 435 354 435 c 2,20,-1
 237 435 l 1,21,-1
 203 256 l 1,13,-1
403 0 m 1,22,-1
 314 215 l 1,23,-1
 379 240 l 1,24,-1
 485 0 l 1,25,-1
 403 0 l 1,22,-1
EndSplineSet
EndChar

StartChar: uni0281
Encoding: 641 641 516
Width: 614
GlyphClass: 2
Flags: W
AnchorPoint: "Anchor-3" 262 -20 basechar 0
AnchorPoint: "Anchor-0" 382 519 basechar 0
LayerCount: 2
Fore
SplineSet
73 0 m 1,0,-1
 171 498 l 1,1,-1
 250 498 l 1,2,-1
 212 301 l 1,3,-1
 343 301 l 2,4,5
 389 301 389 301 424.5 288.5 c 128,-1,6
 460 276 460 276 480 249 c 128,-1,7
 500 222 500 222 500 179 c 0,8,9
 500 126 500 126 472 86 c 128,-1,10
 444 46 444 46 396.5 23 c 128,-1,11
 349 0 349 0 287 0 c 2,12,-1
 73 0 l 1,0,-1
164 62 m 1,13,-1
 283 62 l 2,14,15
 349 62 349 62 384 93 c 128,-1,16
 419 124 419 124 419 166 c 0,17,18
 419 207 419 207 392 224.5 c 128,-1,19
 365 242 365 242 316 242 c 2,20,-1
 199 242 l 1,21,-1
 164 62 l 1,13,-1
383 258 m 1,22,-1
 328 283 l 1,23,-1
 503 498 l 1,24,-1
 585 498 l 1,25,-1
 383 258 l 1,22,-1
EndSplineSet
EndChar

StartChar: uni0282
Encoding: 642 642 517
Width: 614
GlyphClass: 2
Flags: W
AnchorPoint: "Anchor-3" 246 -224 basechar 0
AnchorPoint: "Anchor-0" 345 519 basechar 0
LayerCount: 2
Fore
SplineSet
126 -187 m 0,0,1
 91 -187 91 -187 68.5 -174.5 c 128,-1,2
 46 -162 46 -162 36.5 -139 c 128,-1,3
 27 -116 27 -116 27 -87 c 0,4,5
 27 -71 27 -71 30 -50 c 128,-1,6
 33 -29 33 -29 39.5 2 c 128,-1,7
 46 33 46 33 56 79 c 1,8,-1
 126 71 l 1,9,10
 117 26 117 26 111 -3 c 128,-1,11
 105 -32 105 -32 102.5 -48.5 c 128,-1,12
 100 -65 100 -65 100 -73 c 0,13,14
 100 -100 100 -100 111 -111 c 128,-1,15
 122 -122 122 -122 143 -122 c 0,16,17
 163 -122 163 -122 184 -113 c 1,18,-1
 191 -174 l 1,19,20
 179 -179 179 -179 164.5 -183 c 128,-1,21
 150 -187 150 -187 126 -187 c 0,0,1
276 -12 m 0,22,23
 233 -12 233 -12 192 -1 c 128,-1,24
 151 10 151 10 115.5 30.5 c 128,-1,25
 80 51 80 51 56 79 c 1,26,-1
 101 129 l 1,27,28
 138 88 138 88 188 68.5 c 128,-1,29
 238 49 238 49 291 49 c 0,30,31
 343 49 343 49 377.5 68 c 128,-1,32
 412 87 412 87 412 128 c 0,33,34
 412 153 412 153 396.5 168.5 c 128,-1,35
 381 184 381 184 352 196.5 c 128,-1,36
 323 209 323 209 281 223 c 0,37,38
 203 249 203 249 167 283 c 128,-1,39
 131 317 131 317 131 369 c 0,40,41
 131 417 131 417 156.5 448 c 128,-1,42
 182 479 182 479 224 494.5 c 128,-1,43
 266 510 266 510 317 510 c 0,44,45
 389 510 389 510 441.5 485.5 c 128,-1,46
 494 461 494 461 525 429 c 1,47,-1
 481 381 l 1,48,49
 450 408 450 408 408 428.5 c 128,-1,50
 366 449 366 449 309 449 c 0,51,52
 261 449 261 449 233.5 430 c 128,-1,53
 206 411 206 411 206 378 c 0,54,55
 206 343 206 343 237.5 323.5 c 128,-1,56
 269 304 269 304 329 284 c 0,57,58
 375 269 375 269 410.5 250 c 128,-1,59
 446 231 446 231 466 204.5 c 128,-1,60
 486 178 486 178 486 138 c 0,61,62
 486 85 486 85 458 51.5 c 128,-1,63
 430 18 430 18 382 3 c 128,-1,64
 334 -12 334 -12 276 -12 c 0,22,23
EndSplineSet
EndChar

StartChar: uni0283
Encoding: 643 643 518
Width: 614
GlyphClass: 2
Flags: W
AnchorPoint: "Anchor-3" 130 -224 basechar 0
AnchorPoint: "Anchor-0" 495 748 basechar 0
LayerCount: 2
Fore
SplineSet
106 -222 m 0,0,1
 66 -222 66 -222 34 -208.5 c 128,-1,2
 2 -195 2 -195 -18 -177 c 1,3,-1
 15 -124 l 1,4,5
 35 -140 35 -140 59 -149 c 128,-1,6
 83 -158 83 -158 112 -158 c 0,7,8
 151 -158 151 -158 173 -134 c 128,-1,9
 195 -110 195 -110 204 -56 c 2,10,-1
 328 578 l 2,11,12
 338 629 338 629 361 665.5 c 128,-1,13
 384 702 384 702 421 721.5 c 128,-1,14
 458 741 458 741 511 741 c 0,15,16
 550 741 550 741 585 726.5 c 128,-1,17
 620 712 620 712 645 691 c 1,18,-1
 607 641 l 1,19,20
 584 657 584 657 561.5 667.5 c 128,-1,21
 539 678 539 678 514 678 c 0,22,23
 469 678 469 678 443.5 653.5 c 128,-1,24
 418 629 418 629 408 577 c 2,25,-1
 284 -56 l 2,26,27
 274 -108 274 -108 252 -145 c 128,-1,28
 230 -182 230 -182 194.5 -202 c 128,-1,29
 159 -222 159 -222 106 -222 c 0,0,1
EndSplineSet
EndChar

StartChar: uni0284
Encoding: 644 644 519
Width: 614
GlyphClass: 2
Flags: W
AnchorPoint: "Anchor-3" 130 -224 basechar 0
AnchorPoint: "Anchor-0" 495 748 basechar 0
LayerCount: 2
Fore
SplineSet
84 231 m 1,0,-1
 94 287 l 1,1,-1
 272 293 l 1,2,-1
 530 293 l 1,3,-1
 518 231 l 1,4,-1
 84 231 l 1,0,-1
106 -222 m 0,5,6
 66 -222 66 -222 34 -208.5 c 128,-1,7
 2 -195 2 -195 -18 -177 c 1,8,-1
 15 -124 l 1,9,10
 35 -140 35 -140 59 -149 c 128,-1,11
 83 -158 83 -158 112 -158 c 0,12,13
 151 -158 151 -158 173 -134 c 128,-1,14
 195 -110 195 -110 204 -56 c 2,15,-1
 328 578 l 2,16,17
 338 629 338 629 361 665.5 c 128,-1,18
 384 702 384 702 421 721.5 c 128,-1,19
 458 741 458 741 511 741 c 0,20,21
 550 741 550 741 585 726.5 c 128,-1,22
 620 712 620 712 645 691 c 1,23,-1
 607 641 l 1,24,25
 584 657 584 657 561.5 667.5 c 128,-1,26
 539 678 539 678 514 678 c 0,27,28
 469 678 469 678 443.5 653.5 c 128,-1,29
 418 629 418 629 408 577 c 2,30,-1
 284 -56 l 2,31,32
 274 -108 274 -108 252 -145 c 128,-1,33
 230 -182 230 -182 194.5 -202 c 128,-1,34
 159 -222 159 -222 106 -222 c 0,5,6
EndSplineSet
EndChar

StartChar: uni0288
Encoding: 648 648 521
Width: 614
GlyphClass: 2
Flags: W
AnchorPoint: "Anchor-3" 273 -191 basechar 0
AnchorPoint: "Anchor-0" 304 650 basechar 0
LayerCount: 2
Fore
SplineSet
280 -187 m 0,0,1
 201 -187 201 -187 164.5 -148 c 128,-1,2
 128 -109 128 -109 128 -45 c 0,3,4
 128 -29 128 -29 130 -13.5 c 128,-1,5
 132 2 132 2 136 19 c 2,6,-1
 220 434 l 1,7,-1
 76 434 l 1,8,-1
 87 493 l 1,9,-1
 237 498 l 1,10,-1
 280 657 l 1,11,-1
 344 657 l 1,12,-1
 311 498 l 1,13,-1
 557 498 l 1,14,-1
 544 434 l 1,15,-1
 298 434 l 1,16,-1
 212 17 l 2,17,18
 209 4 209 4 208 -6.5 c 128,-1,19
 207 -17 207 -17 207 -29 c 0,20,21
 207 -76 207 -76 232 -99 c 128,-1,22
 257 -122 257 -122 299 -122 c 0,23,24
 337 -122 337 -122 369 -111 c 128,-1,25
 401 -100 401 -100 428 -86 c 1,26,-1
 454 -142 l 1,27,28
 422 -162 422 -162 376.5 -174.5 c 128,-1,29
 331 -187 331 -187 280 -187 c 0,0,1
EndSplineSet
EndChar

StartChar: uni0289
Encoding: 649 649 522
Width: 614
GlyphClass: 2
Flags: W
AnchorPoint: "Anchor-3" 255 -20 basechar 0
AnchorPoint: "Anchor-2" 402 0 basechar 0
AnchorPoint: "Anchor-0" 345 519 basechar 0
LayerCount: 2
Fore
SplineSet
202 -12 m 0,0,1
 140 -12 140 -12 111.5 21.5 c 128,-1,2
 83 55 83 55 83 112 c 0,3,4
 83 129 83 129 85 145 c 128,-1,5
 87 161 87 161 91 180 c 2,6,-1
 155 498 l 1,7,-1
 233 498 l 1,8,-1
 171 190 l 2,9,10
 167 171 167 171 165 158 c 128,-1,11
 163 145 163 145 163 132 c 0,12,13
 163 94 163 94 181.5 74.5 c 128,-1,14
 200 55 200 55 238 55 c 0,15,16
 267 55 267 55 303 76.5 c 128,-1,17
 339 98 339 98 385 145 c 1,18,-1
 455 498 l 1,19,-1
 534 498 l 1,20,-1
 434 0 l 1,21,-1
 370 0 l 1,22,-1
 377 76 l 1,23,-1
 373 76 l 1,24,25
 332 40 332 40 289.5 14 c 128,-1,26
 247 -12 247 -12 202 -12 c 0,0,1
18 260 m 1,27,-1
 27 315 l 1,28,-1
 121 322 l 1,29,-1
 586 322 l 1,30,-1
 575 260 l 1,31,-1
 18 260 l 1,27,-1
EndSplineSet
EndChar

StartChar: uni028A
Encoding: 650 650 523
Width: 614
GlyphClass: 2
Flags: W
AnchorPoint: "Anchor-3" 242 -20 basechar 0
AnchorPoint: "Anchor-0" 347 519 basechar 0
LayerCount: 2
Fore
SplineSet
244 -12 m 256,0,1
 183 -12 183 -12 142 12.5 c 128,-1,2
 101 37 101 37 81 77.5 c 128,-1,3
 61 118 61 118 61 167 c 0,4,5
 61 225 61 225 82.5 276.5 c 128,-1,6
 104 328 104 328 136 368.5 c 128,-1,7
 168 409 168 409 198 432 c 1,8,-1
 198 435 l 1,9,-1
 95 435 l 1,10,-1
 109 498 l 1,11,-1
 292 498 l 1,12,-1
 282 444 l 1,13,14
 245 417 245 417 212.5 376 c 128,-1,15
 180 335 180 335 160.5 286 c 128,-1,16
 141 237 141 237 141 183 c 0,17,18
 141 147 141 147 154 117.5 c 128,-1,19
 167 88 167 88 192 70.5 c 128,-1,20
 217 53 217 53 255 53 c 0,21,22
 298 53 298 53 332 73.5 c 128,-1,23
 366 94 366 94 390.5 128 c 128,-1,24
 415 162 415 162 428 204 c 128,-1,25
 441 246 441 246 441 290 c 0,26,27
 441 342 441 342 425 380 c 128,-1,28
 409 418 409 418 383 444 c 1,29,-1
 394 498 l 1,30,-1
 578 498 l 1,31,-1
 565 435 l 1,32,-1
 460 435 l 1,33,-1
 459 432 l 1,34,35
 481 407 481 407 498.5 368 c 128,-1,36
 516 329 516 329 516 276 c 0,37,38
 516 222 516 222 496 170 c 128,-1,39
 476 118 476 118 440 77 c 128,-1,40
 404 36 404 36 354.5 12 c 128,-1,41
 305 -12 305 -12 244 -12 c 256,0,1
EndSplineSet
EndChar

StartChar: uni028B
Encoding: 651 651 524
Width: 614
GlyphClass: 2
Flags: W
AnchorPoint: "Anchor-3" 254 -20 basechar 0
AnchorPoint: "Anchor-0" 348 519 basechar 0
LayerCount: 2
Fore
SplineSet
249 -12 m 0,0,1
 198 -12 198 -12 155.5 4 c 128,-1,2
 113 20 113 20 87.5 56 c 128,-1,3
 62 92 62 92 62 150 c 0,4,5
 62 162 62 162 64.5 179 c 128,-1,6
 67 196 67 196 70 210 c 2,7,-1
 128 498 l 1,8,-1
 206 498 l 1,9,-1
 150 218 l 2,10,11
 147 203 147 203 145 188.5 c 128,-1,12
 143 174 143 174 143 165 c 0,13,14
 143 122 143 122 159 98 c 128,-1,15
 175 74 175 74 201 63.5 c 128,-1,16
 227 53 227 53 255 53 c 0,17,18
 300 53 300 53 338 81 c 128,-1,19
 376 109 376 109 403.5 153 c 128,-1,20
 431 197 431 197 447 248 c 128,-1,21
 463 299 463 299 463 345 c 0,22,23
 463 394 463 394 445 418.5 c 128,-1,24
 427 443 427 443 388 443 c 0,25,26
 378 443 378 443 370 442 c 128,-1,27
 362 441 362 441 353 437 c 1,28,-1
 353 502 l 1,29,30
 367 507 367 507 381 508.5 c 128,-1,31
 395 510 395 510 413 510 c 0,32,33
 473 510 473 510 507.5 473.5 c 128,-1,34
 542 437 542 437 542 359 c 0,35,36
 542 293 542 293 521 227.5 c 128,-1,37
 500 162 500 162 461.5 107.5 c 128,-1,38
 423 53 423 53 369.5 20.5 c 128,-1,39
 316 -12 316 -12 249 -12 c 0,0,1
EndSplineSet
EndChar

StartChar: uni028E
Encoding: 654 654 527
Width: 614
GlyphClass: 2
Flags: W
AnchorPoint: "Anchor-3" 246 -20 basechar 0
AnchorPoint: "Anchor-0" 468 754 basechar 0
LayerCount: 2
Fore
SplineSet
-3 0 m 1,0,-1
 355 581 l 2,1,2
 388 635 388 635 419 671 c 128,-1,3
 450 707 450 707 485.5 724 c 128,-1,4
 521 741 521 741 569 741 c 0,5,6
 594 741 594 741 613.5 736.5 c 128,-1,7
 633 732 633 732 648 723 c 1,8,-1
 624 667 l 1,9,10
 612 673 612 673 597 677 c 128,-1,11
 582 681 582 681 564 681 c 0,12,13
 535 681 535 681 515 670.5 c 128,-1,14
 495 660 495 660 475.5 638 c 128,-1,15
 456 616 456 616 431 579 c 2,16,-1
 381 500 l 1,17,-1
 505 0 l 1,18,-1
 429 0 l 1,19,-1
 364 279 l 2,20,21
 358 313 358 313 349.5 354.5 c 128,-1,22
 341 396 341 396 334 430 c 1,23,-1
 330 430 l 1,24,25
 314 396 314 396 289.5 354 c 128,-1,26
 265 312 265 312 246 279 c 2,27,-1
 79 0 l 1,28,-1
 -3 0 l 1,0,-1
EndSplineSet
EndChar

StartChar: uni028F
Encoding: 655 655 528
Width: 614
GlyphClass: 2
Flags: W
AnchorPoint: "Anchor-3" 240 -20 basechar 0
AnchorPoint: "Anchor-0" 342 519 basechar 0
LayerCount: 2
Fore
SplineSet
206 0 m 1,0,-1
 239 168 l 1,1,-1
 109 498 l 1,2,-1
 196 498 l 1,3,-1
 250 356 l 2,4,5
 258 327 258 327 270.5 299.5 c 128,-1,6
 283 272 283 272 292 242 c 1,7,-1
 296 242 l 1,8,9
 316 273 316 273 337.5 300.5 c 128,-1,10
 359 328 359 328 380 356 c 2,11,-1
 490 498 l 1,12,-1
 577 498 l 1,13,-1
 321 168 l 1,14,-1
 287 0 l 1,15,-1
 206 0 l 1,0,-1
EndSplineSet
EndChar

StartChar: uni0290
Encoding: 656 656 529
Width: 614
GlyphClass: 2
Flags: W
AnchorPoint: "Anchor-0" 349 519 basechar 0
LayerCount: 2
Fore
SplineSet
480 -187 m 0,0,1
 444 -187 444 -187 422 -174.5 c 128,-1,2
 400 -162 400 -162 390.5 -139 c 128,-1,3
 381 -116 381 -116 381 -87 c 0,4,5
 381 -73 381 -73 384 -56 c 128,-1,6
 387 -39 387 -39 394 0 c 1,7,-1
 35 0 l 1,8,-1
 43 47 l 1,9,-1
 432 435 l 1,10,-1
 116 435 l 1,11,-1
 129 498 l 1,12,-1
 549 498 l 1,13,-1
 541 451 l 1,14,-1
 153 63 l 1,15,-1
 487 63 l 1,16,17
 473 -2 473 -2 467.5 -31.5 c 128,-1,18
 462 -61 462 -61 462 -73 c 0,19,20
 462 -100 462 -100 471.5 -110 c 128,-1,21
 481 -120 481 -120 502 -120 c 0,22,23
 520 -120 520 -120 539 -112 c 1,24,-1
 546 -174 l 1,25,26
 534 -179 534 -179 518.5 -183 c 128,-1,27
 503 -187 503 -187 480 -187 c 0,0,1
EndSplineSet
EndChar

StartChar: uni0291
Encoding: 657 657 530
Width: 614
GlyphClass: 2
Flags: W
AnchorPoint: "Anchor-0" 337 519 basechar 0
LayerCount: 2
Fore
SplineSet
291 -121 m 1,0,-1
 236 -109 l 1,1,2
 277 0 277 0 318 72.5 c 128,-1,3
 359 145 359 145 403 182 c 128,-1,4
 447 219 447 219 496 219 c 0,5,6
 535 219 535 219 555 197.5 c 128,-1,7
 575 176 575 176 575 145 c 0,8,9
 575 108 575 108 556 75 c 128,-1,10
 537 42 537 42 494 21 c 128,-1,11
 451 0 451 0 378 0 c 2,12,-1
 35 0 l 1,13,-1
 43 47 l 1,14,-1
 425 435 l 1,15,-1
 116 435 l 1,16,-1
 129 498 l 1,17,-1
 539 498 l 1,18,-1
 531 451 l 1,19,-1
 147 62 l 1,20,21
 212 60 212 60 277.5 59.5 c 128,-1,22
 343 59 343 59 406 59 c 256,23,24
 468 59 468 59 494 82 c 128,-1,25
 520 105 520 105 520 131 c 0,26,27
 520 145 520 145 511.5 154 c 128,-1,28
 503 163 503 163 484 163 c 0,29,30
 457 163 457 163 426.5 135.5 c 128,-1,31
 396 108 396 108 362.5 45 c 128,-1,32
 329 -18 329 -18 291 -121 c 1,0,-1
EndSplineSet
EndChar

StartChar: uni0292
Encoding: 658 658 531
Width: 614
GlyphClass: 2
Flags: W
AnchorPoint: "Anchor-3" 199 -240 basechar 0
AnchorPoint: "Anchor-0" 342 522 basechar 0
LayerCount: 2
Fore
SplineSet
196 -222 m 0,0,1
 143 -222 143 -222 102 -209 c 128,-1,2
 61 -196 61 -196 32 -175 c 128,-1,3
 3 -154 3 -154 -16 -131 c 1,4,-1
 28 -85 l 1,5,6
 54 -114 54 -114 95 -136 c 128,-1,7
 136 -158 136 -158 200 -158 c 0,8,9
 237 -158 237 -158 271.5 -144.5 c 128,-1,10
 306 -131 306 -131 333.5 -106.5 c 128,-1,11
 361 -82 361 -82 378 -49 c 128,-1,12
 395 -16 395 -16 395 23 c 0,13,14
 395 86 395 86 358 116 c 128,-1,15
 321 146 321 146 253 146 c 0,16,17
 224 146 224 146 204 141 c 128,-1,18
 184 136 184 136 158 124 c 1,19,-1
 136 168 l 1,20,-1
 432 434 l 1,21,-1
 136 434 l 1,22,-1
 150 498 l 1,23,-1
 547 498 l 1,24,-1
 539 452 l 1,25,-1
 258 199 l 1,26,27
 326 208 326 208 374 188.5 c 128,-1,28
 422 169 422 169 448 128.5 c 128,-1,29
 474 88 474 88 474 36 c 0,30,31
 474 -18 474 -18 451.5 -65 c 128,-1,32
 429 -112 429 -112 390 -147 c 128,-1,33
 351 -182 351 -182 301.5 -202 c 128,-1,34
 252 -222 252 -222 196 -222 c 0,0,1
EndSplineSet
EndChar

StartChar: uni02A4
Encoding: 676 676 532
Width: 614
GlyphClass: 2
Flags: W
AnchorPoint: "Anchor-3" 252 -224 basechar 0
AnchorPoint: "Anchor-0" 391 754 basechar 0
LayerCount: 2
Fore
SplineSet
99 -12 m 0,0,1
 47 -12 47 -12 15.5 36.5 c 128,-1,2
 -16 85 -16 85 -16 176 c 0,3,4
 -16 243 -16 243 1 302.5 c 128,-1,5
 18 362 18 362 49 409 c 128,-1,6
 80 456 80 456 120 483 c 128,-1,7
 160 510 160 510 204 510 c 0,8,9
 234 510 234 510 261 493.5 c 128,-1,10
 288 477 288 477 299 442 c 1,11,-1
 303 442 l 1,12,-1
 317 539 l 1,13,-1
 355 729 l 1,14,-1
 430 729 l 1,15,-1
 283 0 l 1,16,-1
 224 0 l 1,17,-1
 230 65 l 1,18,-1
 226 65 l 1,19,20
 196 29 196 29 166.5 8.5 c 128,-1,21
 137 -12 137 -12 99 -12 c 0,0,1
126 53 m 0,22,23
 154 53 154 53 181.5 76 c 128,-1,24
 209 99 209 99 238 143 c 1,25,-1
 284 372 l 1,26,27
 269 417 269 417 250 430.5 c 128,-1,28
 231 444 231 444 209 444 c 0,29,30
 180 444 180 444 154 422.5 c 128,-1,31
 128 401 128 401 107 364.5 c 128,-1,32
 86 328 86 328 73.5 280.5 c 128,-1,33
 61 233 61 233 61 181 c 0,34,35
 61 115 61 115 78.5 84 c 128,-1,36
 96 53 96 53 126 53 c 0,22,23
371 -222 m 0,37,38
 318 -222 318 -222 281 -199 c 128,-1,39
 244 -176 244 -176 221 -151 c 1,40,-1
 265 -104 l 1,41,42
 283 -123 283 -123 310.5 -140.5 c 128,-1,43
 338 -158 338 -158 373 -158 c 0,44,45
 411 -158 411 -158 444 -132 c 128,-1,46
 477 -106 477 -106 497.5 -62.5 c 128,-1,47
 518 -19 518 -19 518 34 c 0,48,49
 518 86 518 86 498.5 111 c 128,-1,50
 479 136 479 136 443 136 c 0,51,52
 427 136 427 136 414 132.5 c 128,-1,53
 401 129 401 129 384 121 c 1,54,-1
 364 170 l 1,55,-1
 571 434 l 1,56,-1
 342 434 l 1,57,-1
 355 498 l 1,58,-1
 668 498 l 1,59,-1
 659 452 l 1,60,-1
 434 164 l 1,61,-1
 420 184 l 1,62,63
 479 200 479 200 518 185 c 128,-1,64
 557 170 557 170 576.5 133.5 c 128,-1,65
 596 97 596 97 596 49 c 0,66,67
 596 -6 596 -6 579 -55 c 128,-1,68
 562 -104 562 -104 531.5 -141.5 c 128,-1,69
 501 -179 501 -179 460 -200.5 c 128,-1,70
 419 -222 419 -222 371 -222 c 0,37,38
EndSplineSet
EndChar

StartChar: uni02A6
Encoding: 678 678 533
Width: 614
GlyphClass: 2
Flags: W
AnchorPoint: "Anchor-3" 285 -20 basechar 0
AnchorPoint: "Anchor-0" 370 650 basechar 0
LayerCount: 2
Fore
SplineSet
269 -12 m 0,0,1
 158 -12 158 -12 112.5 26.5 c 128,-1,2
 67 65 67 65 67 127 c 0,3,4
 67 145 67 145 70.5 163 c 128,-1,5
 74 181 74 181 76 195 c 2,6,-1
 126 434 l 1,7,-1
 53 434 l 1,8,-1
 65 493 l 1,9,-1
 142 498 l 1,10,-1
 185 657 l 1,11,-1
 250 657 l 1,12,-1
 217 498 l 1,13,-1
 418 498 l 1,14,-1
 404 434 l 1,15,-1
 204 434 l 1,16,-1
 154 190 l 2,17,18
 152 178 152 178 149 167 c 128,-1,19
 146 156 146 156 146 141 c 0,20,21
 146 97 146 97 178.5 73.5 c 128,-1,22
 211 50 211 50 287 50 c 0,23,24
 355 50 355 50 394 64 c 128,-1,25
 433 78 433 78 450.5 101 c 128,-1,26
 468 124 468 124 468 150 c 0,27,28
 468 182 468 182 452.5 202.5 c 128,-1,29
 437 223 437 223 414.5 239 c 128,-1,30
 392 255 392 255 370 271.5 c 128,-1,31
 348 288 348 288 332.5 311.5 c 128,-1,32
 317 335 317 335 317 372 c 0,33,34
 317 413 317 413 337.5 444 c 128,-1,35
 358 475 358 475 393 492.5 c 128,-1,36
 428 510 428 510 468 510 c 0,37,38
 505 510 505 510 534 495 c 128,-1,39
 563 480 563 480 587 455 c 1,40,-1
 547 410 l 1,41,42
 530 427 530 427 511.5 438 c 128,-1,43
 493 449 493 449 466 449 c 0,44,45
 433 449 433 449 412.5 429 c 128,-1,46
 392 409 392 409 392 381 c 0,47,48
 392 354 392 354 407.5 336 c 128,-1,49
 423 318 423 318 445 303.5 c 128,-1,50
 467 289 467 289 489.5 270.5 c 128,-1,51
 512 252 512 252 527.5 226 c 128,-1,52
 543 200 543 200 543 160 c 0,53,54
 543 110 543 110 516 71.5 c 128,-1,55
 489 33 489 33 428.5 10.5 c 128,-1,56
 368 -12 368 -12 269 -12 c 0,0,1
EndSplineSet
EndChar

StartChar: uni02A7
Encoding: 679 679 534
Width: 614
GlyphClass: 1
Flags: W
LayerCount: 2
Fore
SplineSet
214 -12 m 0,0,1
 152 -12 152 -12 125 20 c 128,-1,2
 98 52 98 52 98 98 c 0,3,4
 98 114 98 114 100 126.5 c 128,-1,5
 102 139 102 139 104 154 c 2,6,-1
 163 434 l 1,7,-1
 89 434 l 1,8,-1
 101 493 l 1,9,-1
 178 498 l 1,10,-1
 222 657 l 1,11,-1
 287 657 l 1,12,-1
 254 498 l 1,13,-1
 483 498 l 1,14,-1
 470 434 l 1,15,-1
 241 434 l 1,16,-1
 182 150 l 2,17,18
 181 141 181 141 179.5 132 c 128,-1,19
 178 123 178 123 178 113 c 0,20,21
 178 83 178 83 191.5 67 c 128,-1,22
 205 51 205 51 239 51 c 0,23,24
 252 51 252 51 264 55.5 c 128,-1,25
 276 60 276 60 287 66 c 1,26,-1
 304 9 l 1,27,28
 289 2 289 2 265.5 -5 c 128,-1,29
 242 -12 242 -12 214 -12 c 0,0,1
260 -222 m 0,30,31
 241 -222 241 -222 223.5 -218 c 128,-1,32
 206 -214 206 -214 195 -209 c 1,33,-1
 220 -147 l 1,34,35
 229 -150 229 -150 240.5 -153.5 c 128,-1,36
 252 -157 252 -157 265 -157 c 0,37,38
 300 -157 300 -157 316 -129.5 c 128,-1,39
 332 -102 332 -102 341 -56 c 2,40,-1
 466 581 l 2,41,42
 475 630 475 630 495.5 666 c 128,-1,43
 516 702 516 702 551 722.5 c 128,-1,44
 586 743 586 743 636 743 c 0,45,46
 655 743 655 743 670 739 c 128,-1,47
 685 735 685 735 695 730 c 1,48,-1
 667 669 l 1,49,50
 661 672 661 672 651.5 675 c 128,-1,51
 642 678 642 678 632 678 c 0,52,53
 591 678 591 678 573 652 c 128,-1,54
 555 626 555 626 546 577 c 2,55,-1
 421 -56 l 2,56,57
 412 -107 412 -107 392.5 -144 c 128,-1,58
 373 -181 373 -181 340.5 -201.5 c 128,-1,59
 308 -222 308 -222 260 -222 c 0,30,31
EndSplineSet
EndChar

StartChar: uni0294
Encoding: 660 660 535
Width: 614
GlyphClass: 2
Flags: W
AnchorPoint: "Anchor-3" 219 -20 basechar 0
AnchorPoint: "Anchor-0" 383 754 basechar 0
LayerCount: 2
Fore
SplineSet
177 0 m 1,0,-1
 242 322 l 1,1,2
 331 362 331 362 382.5 400 c 128,-1,3
 434 438 434 438 456.5 479.5 c 128,-1,4
 479 521 479 521 479 567 c 0,5,6
 479 619 479 619 443.5 648.5 c 128,-1,7
 408 678 408 678 350 678 c 0,8,9
 294 678 294 678 252 657 c 128,-1,10
 210 636 210 636 172 605 c 1,11,-1
 137 658 l 1,12,13
 167 682 167 682 199 701 c 128,-1,14
 231 720 231 720 271 730.5 c 128,-1,15
 311 741 311 741 361 741 c 0,16,17
 415 741 415 741 460.5 722 c 128,-1,18
 506 703 506 703 533 667 c 128,-1,19
 560 631 560 631 560 578 c 0,20,21
 560 482 560 482 497.5 414 c 128,-1,22
 435 346 435 346 313 287 c 1,23,-1
 256 0 l 1,24,-1
 177 0 l 1,0,-1
EndSplineSet
EndChar

StartChar: uni0295
Encoding: 661 661 536
Width: 614
GlyphClass: 2
Flags: W
AnchorPoint: "Anchor-3" 266 -20 basechar 0
AnchorPoint: "Anchor-0" 402 754 basechar 0
LayerCount: 2
Fore
SplineSet
227 0 m 1,0,-1
 286 288 l 1,1,2
 225 335 225 335 186.5 389 c 128,-1,3
 148 443 148 443 148 514 c 0,4,5
 148 583 148 583 179.5 634 c 128,-1,6
 211 685 211 685 265 713 c 128,-1,7
 319 741 319 741 388 741 c 0,8,9
 462 741 462 741 512 711 c 128,-1,10
 562 681 562 681 593 635 c 1,11,-1
 546 592 l 1,12,13
 516 632 516 632 478 655 c 128,-1,14
 440 678 440 678 388 678 c 0,15,16
 339 678 339 678 303.5 657.5 c 128,-1,17
 268 637 268 637 248.5 602.5 c 128,-1,18
 229 568 229 568 229 525 c 0,19,20
 229 484 229 484 243 450 c 128,-1,21
 257 416 257 416 288 385 c 128,-1,22
 319 354 319 354 371 322 c 1,23,-1
 306 0 l 1,24,-1
 227 0 l 1,0,-1
EndSplineSet
EndChar

StartChar: uni02A1
Encoding: 673 673 537
Width: 614
GlyphClass: 2
Flags: W
AnchorPoint: "Anchor-3" 219 -20 basechar 0
AnchorPoint: "Anchor-0" 383 754 basechar 0
LayerCount: 2
Fore
SplineSet
177 0 m 1,0,-1
 228 256 l 1,1,-1
 82 256 l 1,2,-1
 94 313 l 1,3,-1
 242 319 l 1,4,5
 331 359 331 359 383 398.5 c 128,-1,6
 435 438 435 438 457 479.5 c 128,-1,7
 479 521 479 521 479 567 c 0,8,9
 479 618 479 618 443.5 648 c 128,-1,10
 408 678 408 678 350 678 c 0,11,12
 294 678 294 678 252 657 c 128,-1,13
 210 636 210 636 172 605 c 1,14,-1
 137 658 l 1,15,16
 167 682 167 682 199 701 c 128,-1,17
 231 720 231 720 271 730.5 c 128,-1,18
 311 741 311 741 361 741 c 0,19,20
 415 741 415 741 460.5 722 c 128,-1,21
 506 703 506 703 533 667 c 128,-1,22
 560 631 560 631 560 578 c 0,23,24
 560 494 560 494 508.5 432.5 c 128,-1,25
 457 371 457 371 356 319 c 1,26,-1
 514 319 l 1,27,-1
 500 256 l 1,28,-1
 308 256 l 1,29,-1
 256 0 l 1,30,-1
 177 0 l 1,0,-1
EndSplineSet
EndChar

StartChar: uni02A2
Encoding: 674 674 538
Width: 614
GlyphClass: 2
Flags: W
AnchorPoint: "Anchor-3" 262 -20 basechar 0
AnchorPoint: "Anchor-0" 402 754 basechar 0
LayerCount: 2
Fore
SplineSet
227 0 m 1,0,-1
 280 256 l 1,1,-1
 92 256 l 1,2,-1
 104 313 l 1,3,-1
 264 319 l 1,4,5
 208 359 208 359 178 407 c 128,-1,6
 148 455 148 455 148 514 c 0,7,8
 148 583 148 583 179.5 633.5 c 128,-1,9
 211 684 211 684 265 712.5 c 128,-1,10
 319 741 319 741 388 741 c 0,11,12
 462 741 462 741 512 710.5 c 128,-1,13
 562 680 562 680 593 635 c 1,14,-1
 546 592 l 1,15,16
 516 632 516 632 478 655 c 128,-1,17
 440 678 440 678 388 678 c 0,18,19
 340 678 340 678 304 657.5 c 128,-1,20
 268 637 268 637 248.5 602.5 c 128,-1,21
 229 568 229 568 229 525 c 0,22,23
 229 459 229 459 263 412.5 c 128,-1,24
 297 366 297 366 365 319 c 1,25,-1
 524 319 l 1,26,-1
 510 256 l 1,27,-1
 358 256 l 1,28,-1
 306 0 l 1,29,-1
 227 0 l 1,0,-1
EndSplineSet
EndChar

StartChar: uni01C2
Encoding: 450 450 539
Width: 614
GlyphClass: 1
Flags: W
LayerCount: 2
Fore
SplineSet
160 -210 m 1,0,-1
 357 729 l 1,1,-1
 434 729 l 1,2,-1
 238 -210 l 1,3,-1
 160 -210 l 1,0,-1
96 334 m 1,4,-1
 106 391 l 1,5,-1
 289 395 l 1,6,-1
 535 395 l 1,7,-1
 522 334 l 1,8,-1
 96 334 l 1,4,-1
61 158 m 1,9,-1
 72 214 l 1,10,-1
 254 219 l 1,11,-1
 500 219 l 1,12,-1
 487 158 l 1,13,-1
 61 158 l 1,9,-1
EndSplineSet
EndChar

StartChar: uni0298
Encoding: 664 664 540
Width: 614
GlyphClass: 1
Flags: W
LayerCount: 2
Fore
SplineSet
255 -12 m 0,0,1
 199 -12 199 -12 156.5 17 c 128,-1,2
 114 46 114 46 90.5 101.5 c 128,-1,3
 67 157 67 157 67 234 c 0,4,5
 67 332 67 332 88.5 423 c 128,-1,6
 110 514 110 514 149.5 586 c 128,-1,7
 189 658 189 658 246.5 699.5 c 128,-1,8
 304 741 304 741 378 741 c 0,9,10
 434 741 434 741 476 712.5 c 128,-1,11
 518 684 518 684 541.5 629 c 128,-1,12
 565 574 565 574 565 495 c 0,13,14
 565 398 565 398 544 306.5 c 128,-1,15
 523 215 523 215 483 143.5 c 128,-1,16
 443 72 443 72 385.5 30 c 128,-1,17
 328 -12 328 -12 255 -12 c 0,0,1
260 53 m 0,18,19
 309 53 309 53 351.5 90.5 c 128,-1,20
 394 128 394 128 425.5 190.5 c 128,-1,21
 457 253 457 253 474.5 331.5 c 128,-1,22
 492 410 492 410 492 493 c 0,23,24
 492 586 492 586 459 631 c 128,-1,25
 426 676 426 676 373 676 c 0,26,27
 323 676 323 676 280.5 639 c 128,-1,28
 238 602 238 602 207 539.5 c 128,-1,29
 176 477 176 477 158.5 398 c 128,-1,30
 141 319 141 319 141 237 c 0,31,32
 141 144 141 144 174 98.5 c 128,-1,33
 207 53 207 53 260 53 c 0,18,19
312 306 m 0,34,35
 287 306 287 306 273 320.5 c 128,-1,36
 259 335 259 335 259 358 c 0,37,38
 259 388 259 388 278.5 409 c 128,-1,39
 298 430 298 430 323 430 c 256,40,41
 348 430 348 430 362.5 415.5 c 128,-1,42
 377 401 377 401 377 378 c 0,43,44
 377 349 377 349 357.5 327.5 c 128,-1,45
 338 306 338 306 312 306 c 0,34,35
EndSplineSet
EndChar

StartChar: uni014A.a
Encoding: 1114119 -1 541
Width: 614
GlyphClass: 2
Flags: W
AnchorPoint: "Anchor-0" 382 692 basechar 0
LayerCount: 2
Fore
SplineSet
313 -168 m 0,0,1
 289 -168 289 -168 271.5 -163 c 128,-1,2
 254 -158 254 -158 237 -148 c 1,3,-1
 263 -90 l 1,4,5
 272 -96 272 -96 282.5 -99.5 c 128,-1,6
 293 -103 293 -103 309 -103 c 0,7,8
 337 -103 337 -103 356.5 -80.5 c 128,-1,9
 376 -58 376 -58 387 -5 c 1,10,-1
 246 432 l 1,11,-1
 208 571 l 1,12,-1
 204 571 l 1,13,14
 200 537 200 537 194.5 500.5 c 128,-1,15
 189 464 189 464 183.5 428 c 128,-1,16
 178 392 178 392 172 359 c 2,17,-1
 101 0 l 1,18,-1
 26 0 l 1,19,-1
 160 672 l 1,20,-1
 241 672 l 1,21,-1
 378 240 l 1,22,-1
 416 101 l 1,23,-1
 420 101 l 1,24,25
 423 126 423 126 426.5 153.5 c 128,-1,26
 430 181 430 181 434 209 c 128,-1,27
 438 237 438 237 442 262 c 128,-1,28
 446 287 446 287 451 308 c 2,29,-1
 522 672 l 1,30,-1
 598 672 l 1,31,-1
 461 -13 l 2,32,33
 452 -58 452 -58 433.5 -93 c 128,-1,34
 415 -128 415 -128 385.5 -148 c 128,-1,35
 356 -168 356 -168 313 -168 c 0,0,1
EndSplineSet
EndChar

StartChar: a.a
Encoding: 1114120 -1 542
Width: 614
GlyphClass: 2
Flags: W
AnchorPoint: "Anchor-6" 402 0 basechar 0
AnchorPoint: "Anchor-3" 265 -20 basechar 0
AnchorPoint: "Anchor-2" 429 0 basechar 0
AnchorPoint: "Anchor-0" 351 519 basechar 0
LayerCount: 2
Fore
SplineSet
193 -12 m 256,0,1
 134 -12 134 -12 93 17.5 c 128,-1,2
 52 47 52 47 52 103 c 0,3,4
 52 168 52 168 92.5 211.5 c 128,-1,5
 133 255 133 255 219 279 c 128,-1,6
 305 303 305 303 444 311 c 1,7,8
 447 324 447 324 449.5 336.5 c 128,-1,9
 452 349 452 349 452 358 c 0,10,11
 452 399 452 399 429 422.5 c 128,-1,12
 406 446 406 446 350 446 c 0,13,14
 312 446 312 446 277 437.5 c 128,-1,15
 242 429 242 429 210 414.5 c 128,-1,16
 178 400 178 400 150 385 c 1,17,-1
 123 442 l 1,18,19
 153 458 153 458 191 474 c 128,-1,20
 229 490 229 490 273.5 500 c 128,-1,21
 318 510 318 510 367 510 c 0,22,23
 447 510 447 510 487.5 472.5 c 128,-1,24
 528 435 528 435 528 367 c 0,25,26
 528 355 528 355 527 341.5 c 128,-1,27
 526 328 526 328 523 311 c 2,28,-1
 463 0 l 1,29,-1
 398 0 l 1,30,-1
 409 83 l 1,31,-1
 406 83 l 1,32,33
 364 42 364 42 308 15 c 128,-1,34
 252 -12 252 -12 193 -12 c 256,0,1
218 50 m 0,35,36
 265 50 265 50 316 75 c 128,-1,37
 367 100 367 100 414 145 c 1,38,-1
 436 261 l 1,39,40
 321 254 321 254 254.5 235.5 c 128,-1,41
 188 217 188 217 159 188.5 c 128,-1,42
 130 160 130 160 130 120 c 0,43,44
 130 83 130 83 155 66.5 c 128,-1,45
 180 50 180 50 218 50 c 0,35,36
EndSplineSet
EndChar

StartChar: aringacute.a
Encoding: 1114129 -1 551
Width: 614
GlyphClass: 1
Flags: W
LayerCount: 2
Fore
SplineSet
355 727 m 1,0,-1
 330 752 l 1,1,-1
 474 863 l 1,2,-1
 510 821 l 1,3,-1
 355 727 l 1,0,-1
193 -12 m 256,4,5
 134 -12 134 -12 93 17.5 c 128,-1,6
 52 47 52 47 52 103 c 0,7,8
 52 168 52 168 92.5 211.5 c 128,-1,9
 133 255 133 255 219 279 c 128,-1,10
 305 303 305 303 444 311 c 1,11,12
 447 324 447 324 449.5 336.5 c 128,-1,13
 452 349 452 349 452 358 c 0,14,15
 452 399 452 399 429 422.5 c 128,-1,16
 406 446 406 446 350 446 c 0,17,18
 312 446 312 446 277 437.5 c 128,-1,19
 242 429 242 429 210 414.5 c 128,-1,20
 178 400 178 400 150 385 c 1,21,-1
 123 442 l 1,22,23
 153 458 153 458 191 474 c 128,-1,24
 229 490 229 490 273.5 500 c 128,-1,25
 318 510 318 510 367 510 c 0,26,27
 447 510 447 510 487.5 472.5 c 128,-1,28
 528 435 528 435 528 367 c 0,29,30
 528 355 528 355 527 341.5 c 128,-1,31
 526 328 526 328 523 311 c 2,32,-1
 463 0 l 1,33,-1
 398 0 l 1,34,-1
 409 83 l 1,35,-1
 406 83 l 1,36,37
 364 42 364 42 308 15 c 128,-1,38
 252 -12 252 -12 193 -12 c 256,4,5
218 50 m 0,39,40
 265 50 265 50 316 75 c 128,-1,41
 367 100 367 100 414 145 c 1,42,-1
 436 261 l 1,43,44
 321 254 321 254 254.5 235.5 c 128,-1,45
 188 217 188 217 159 188.5 c 128,-1,46
 130 160 130 160 130 120 c 0,47,48
 130 83 130 83 155 66.5 c 128,-1,49
 180 50 180 50 218 50 c 0,39,40
370 569 m 0,50,51
 329 569 329 569 300.5 591 c 128,-1,52
 272 613 272 613 272 653 c 0,53,54
 272 700 272 700 306 733.5 c 128,-1,55
 340 767 340 767 393 767 c 0,56,57
 435 767 435 767 463.5 745.5 c 128,-1,58
 492 724 492 724 492 683 c 0,59,60
 492 637 492 637 458 603 c 128,-1,61
 424 569 424 569 370 569 c 0,50,51
375 606 m 0,62,63
 401 606 401 606 419.5 628 c 128,-1,64
 438 650 438 650 438 680 c 0,65,66
 438 703 438 703 425.5 716.5 c 128,-1,67
 413 730 413 730 388 730 c 0,68,69
 362 730 362 730 344 708.5 c 128,-1,70
 326 687 326 687 326 656 c 0,71,72
 326 633 326 633 338.5 619.5 c 128,-1,73
 351 606 351 606 375 606 c 0,62,63
EndSplineSet
EndChar

StartChar: aogonek.a
Encoding: 1114143 -1 565
Width: 614
GlyphClass: 2
Flags: W
AnchorPoint: "Anchor-0" 351 519 basechar 0
LayerCount: 2
Fore
SplineSet
371 -230 m 0,0,1
 333 -230 333 -230 304.5 -211.5 c 128,-1,2
 276 -193 276 -193 276 -152 c 0,3,4
 276 -117 276 -117 294 -88 c 128,-1,5
 312 -59 312 -59 340 -37 c 128,-1,6
 368 -15 368 -15 398 1 c 1,7,-1
 409 83 l 1,8,-1
 406 83 l 1,9,10
 364 42 364 42 308 15 c 128,-1,11
 252 -12 252 -12 193 -12 c 256,12,13
 134 -12 134 -12 93 17.5 c 128,-1,14
 52 47 52 47 52 103 c 0,15,16
 52 168 52 168 92.5 211.5 c 128,-1,17
 133 255 133 255 219 279 c 128,-1,18
 305 303 305 303 444 311 c 1,19,20
 447 324 447 324 449.5 336.5 c 128,-1,21
 452 349 452 349 452 358 c 0,22,23
 452 399 452 399 429 422.5 c 128,-1,24
 406 446 406 446 350 446 c 0,25,26
 312 446 312 446 277 437.5 c 128,-1,27
 242 429 242 429 210 414.5 c 128,-1,28
 178 400 178 400 150 385 c 1,29,-1
 123 442 l 1,30,31
 153 458 153 458 191 474 c 128,-1,32
 229 490 229 490 273.5 500 c 128,-1,33
 318 510 318 510 367 510 c 0,34,35
 447 510 447 510 487.5 472.5 c 128,-1,36
 528 435 528 435 528 367 c 0,37,38
 528 355 528 355 527 341.5 c 128,-1,39
 526 328 526 328 523 311 c 2,40,-1
 462 -5 l 1,41,42
 400 -32 400 -32 368.5 -63.5 c 128,-1,43
 337 -95 337 -95 337 -129 c 0,44,45
 337 -154 337 -154 354.5 -166 c 128,-1,46
 372 -178 372 -178 396 -178 c 0,47,48
 411 -178 411 -178 423 -174 c 128,-1,49
 435 -170 435 -170 447 -162 c 1,50,-1
 465 -198 l 1,51,52
 448 -212 448 -212 424 -221 c 128,-1,53
 400 -230 400 -230 371 -230 c 0,0,1
218 50 m 0,54,55
 265 50 265 50 316 75 c 128,-1,56
 367 100 367 100 414 145 c 1,57,-1
 436 261 l 1,58,59
 321 254 321 254 254.5 235.5 c 128,-1,60
 188 217 188 217 159 188.5 c 128,-1,61
 130 160 130 160 130 120 c 0,62,63
 130 83 130 83 155 66.5 c 128,-1,64
 180 50 180 50 218 50 c 0,54,55
EndSplineSet
EndChar

StartChar: g.a
Encoding: 1114144 -1 566
Width: 614
GlyphClass: 2
Flags: W
AnchorPoint: "Anchor-3" 220 -216 basechar 0
AnchorPoint: "Anchor-0" 351 519 basechar 0
LayerCount: 2
Fore
SplineSet
208 -229 m 0,0,1
 173 -229 173 -229 136 -223 c 128,-1,2
 99 -217 99 -217 68 -203 c 128,-1,3
 37 -189 37 -189 18 -166 c 128,-1,4
 -1 -143 -1 -143 -1 -110 c 0,5,6
 -1 -61 -1 -61 33.5 -27.5 c 128,-1,7
 68 6 68 6 117 26 c 1,8,-1
 117 28 l 1,9,10
 97 42 97 42 87 59 c 128,-1,11
 77 76 77 76 77 97 c 0,12,13
 77 130 77 130 97 153 c 128,-1,14
 117 176 117 176 151 196 c 1,15,-1
 151 200 l 1,16,17
 131 217 131 217 118 243 c 128,-1,18
 105 269 105 269 105 303 c 0,19,20
 105 361 105 361 135 408.5 c 128,-1,21
 165 456 165 456 215.5 483 c 128,-1,22
 266 510 266 510 329 510 c 0,23,24
 380 510 380 510 417 489.5 c 128,-1,25
 454 469 454 469 474.5 435.5 c 128,-1,26
 495 402 495 402 495 362 c 0,27,28
 495 306 495 306 465.5 259.5 c 128,-1,29
 436 213 436 213 386.5 185.5 c 128,-1,30
 337 158 337 158 273 158 c 0,31,32
 255 158 255 158 232.5 162 c 128,-1,33
 210 166 210 166 190 175 c 1,34,35
 168 163 168 163 156 147.5 c 128,-1,36
 144 132 144 132 144 115 c 256,37,38
 144 98 144 98 156.5 86.5 c 128,-1,39
 169 75 169 75 198 67.5 c 128,-1,40
 227 60 227 60 279 55 c 0,41,42
 359 47 359 47 403 31.5 c 128,-1,43
 447 16 447 16 464.5 -7.5 c 128,-1,44
 482 -31 482 -31 482 -66 c 0,45,46
 482 -107 482 -107 459.5 -137.5 c 128,-1,47
 437 -168 437 -168 398.5 -188.5 c 128,-1,48
 360 -209 360 -209 311 -219 c 128,-1,49
 262 -229 262 -229 208 -229 c 0,0,1
280 211 m 0,50,51
 323 211 323 211 355.5 232.5 c 128,-1,52
 388 254 388 254 407 288 c 128,-1,53
 426 322 426 322 426 358 c 0,54,55
 426 400 426 400 399 426.5 c 128,-1,56
 372 453 372 453 325 453 c 0,57,58
 283 453 283 453 250 431.5 c 128,-1,59
 217 410 217 410 198 376.5 c 128,-1,60
 179 343 179 343 179 305 c 0,61,62
 179 262 179 262 206 236.5 c 128,-1,63
 233 211 233 211 280 211 c 0,50,51
215 -175 m 0,64,65
 271 -175 271 -175 313.5 -163.5 c 128,-1,66
 356 -152 356 -152 381 -131.5 c 128,-1,67
 406 -111 406 -111 406 -85 c 0,68,69
 406 -61 406 -61 390.5 -47 c 128,-1,70
 375 -33 375 -33 340.5 -24.5 c 128,-1,71
 306 -16 306 -16 250 -10 c 0,72,73
 224 -7 224 -7 206 -3 c 128,-1,74
 188 1 188 1 165 6 c 1,75,76
 139 -3 139 -3 117 -19 c 128,-1,77
 95 -35 95 -35 82 -54.5 c 128,-1,78
 69 -74 69 -74 69 -95 c 0,79,80
 69 -123 69 -123 88.5 -141 c 128,-1,81
 108 -159 108 -159 141 -167 c 128,-1,82
 174 -175 174 -175 215 -175 c 0,64,65
435 434 m 1,83,-1
 373 498 l 1,84,-1
 582 498 l 1,85,-1
 569 434 l 1,86,-1
 435 434 l 1,83,-1
EndSplineSet
EndChar

StartChar: iogonek.d
Encoding: 1114153 -1 575
Width: 614
GlyphClass: 2
Flags: W
AnchorPoint: "Anchor-0" 333 519 basechar 0
LayerCount: 2
Fore
SplineSet
356 -230 m 0,0,1
 319 -230 319 -230 290.5 -211.5 c 128,-1,2
 262 -193 262 -193 262 -152 c 0,3,4
 262 -108 262 -108 290 -74 c 128,-1,5
 318 -40 318 -40 360 -12 c 1,6,7
 357 -12 357 -12 356 -12 c 128,-1,8
 355 -12 355 -12 351 -12 c 0,9,10
 296 -12 296 -12 258.5 19.5 c 128,-1,11
 221 51 221 51 221 113 c 0,12,13
 221 126 221 126 223 139.5 c 128,-1,14
 225 153 225 153 229 167 c 2,15,-1
 289 434 l 1,16,-1
 106 434 l 1,17,-1
 120 498 l 1,18,-1
 380 498 l 1,19,-1
 305 160 l 2,20,21
 304 152 304 152 302.5 143.5 c 128,-1,22
 301 135 301 135 301 127 c 0,23,24
 301 88 301 88 322.5 70.5 c 128,-1,25
 344 53 344 53 378 53 c 0,26,27
 402 53 402 53 424 60.5 c 128,-1,28
 446 68 446 68 473 80 c 1,29,-1
 492 20 l 1,30,31
 398 -23 398 -23 361 -59.5 c 128,-1,32
 324 -96 324 -96 324 -129 c 0,33,34
 324 -154 324 -154 341 -166 c 128,-1,35
 358 -178 358 -178 382 -178 c 0,36,37
 397 -178 397 -178 409.5 -174 c 128,-1,38
 422 -170 422 -170 434 -162 c 1,39,-1
 452 -198 l 1,40,41
 435 -212 435 -212 410.5 -221 c 128,-1,42
 386 -230 386 -230 356 -230 c 0,0,1
EndSplineSet
Ligature2: "Ligature Substitution lookup 4 subtable" i uni0328
EndChar

StartChar: uni0268.d
Encoding: 1114154 -1 576
Width: 614
GlyphClass: 2
Flags: W
AnchorPoint: "Anchor-3" 341 -20 basechar 0
AnchorPoint: "Anchor-0" 328 519 basechar 0
LayerCount: 2
Fore
SplineSet
86 229 m 1,0,-1
 96 287 l 1,1,-1
 260 291 l 1,2,-1
 498 291 l 1,3,-1
 485 229 l 1,4,-1
 86 229 l 1,0,-1
355 -12 m 0,5,6
 296 -12 296 -12 258.5 19.5 c 128,-1,7
 221 51 221 51 221 113 c 0,8,9
 221 125 221 125 223 139 c 128,-1,10
 225 153 225 153 229 167 c 2,11,-1
 289 434 l 1,12,-1
 106 434 l 1,13,-1
 120 498 l 1,14,-1
 380 498 l 1,15,-1
 305 160 l 2,16,17
 304 151 304 151 302.5 143 c 128,-1,18
 301 135 301 135 301 127 c 0,19,20
 301 88 301 88 322.5 70.5 c 128,-1,21
 344 53 344 53 378 53 c 0,22,23
 402 53 402 53 424 60.5 c 128,-1,24
 446 68 446 68 473 80 c 1,25,-1
 492 20 l 1,26,27
 460 6 460 6 428 -3 c 128,-1,28
 396 -12 396 -12 355 -12 c 0,5,6
EndSplineSet
EndChar

StartChar: uni029D.d
Encoding: 1114155 -1 577
Width: 614
GlyphClass: 2
Flags: W
AnchorPoint: "Anchor-3" 148 -224 basechar 0
AnchorPoint: "Anchor-0" 402 519 basechar 0
LayerCount: 2
Fore
SplineSet
332 -256 m 1,0,1
 313 -195 313 -195 283 -152.5 c 128,-1,2
 253 -110 253 -110 216 -88 c 128,-1,3
 179 -66 179 -66 138 -66 c 0,4,5
 101 -66 101 -66 83.5 -82 c 128,-1,6
 66 -98 66 -98 66 -116 c 0,7,8
 66 -134 66 -134 83 -146 c 128,-1,9
 100 -158 100 -158 136 -158 c 0,10,11
 178 -158 178 -158 205.5 -140 c 128,-1,12
 233 -122 233 -122 249 -91.5 c 128,-1,13
 265 -61 265 -61 271 -28 c 2,14,-1
 364 434 l 1,15,-1
 134 434 l 1,16,-1
 148 498 l 1,17,-1
 455 498 l 1,18,-1
 351 -17 l 2,19,20
 339 -77 339 -77 310 -123.5 c 128,-1,21
 281 -170 281 -170 237 -196 c 128,-1,22
 193 -222 193 -222 134 -222 c 0,23,24
 71 -222 71 -222 36 -194 c 128,-1,25
 1 -166 1 -166 1 -125 c 0,26,27
 1 -74 1 -74 38.5 -40 c 128,-1,28
 76 -6 76 -6 143 -6 c 0,29,30
 182 -6 182 -6 220.5 -20.5 c 128,-1,31
 259 -35 259 -35 293.5 -62.5 c 128,-1,32
 328 -90 328 -90 356 -131 c 128,-1,33
 384 -172 384 -172 400 -225 c 1,34,-1
 332 -256 l 1,0,1
EndSplineSet
EndChar

StartChar: pi
Encoding: 960 960 578
Width: 614
GlyphClass: 1
Flags: W
LayerCount: 2
Fore
SplineSet
137 -5 m 1,0,-1
 60 0 l 1,1,2
 83 74 83 74 102.5 150 c 128,-1,3
 122 226 122 226 139 301 c 128,-1,4
 156 376 156 376 169 443 c 1,5,-1
 241 443 l 1,6,7
 227 372 227 372 210.5 296.5 c 128,-1,8
 194 221 194 221 175 145 c 128,-1,9
 156 69 156 69 137 -5 c 1,0,-1
70 435 m 1,10,-1
 81 493 l 1,11,-1
 153 498 l 1,12,-1
 610 498 l 1,13,-1
 597 435 l 1,14,-1
 70 435 l 1,10,-1
439 -12 m 0,15,16
 399 -12 399 -12 378.5 9 c 128,-1,17
 358 30 358 30 358 69 c 0,18,19
 358 87 358 87 366 128.5 c 128,-1,20
 374 170 374 170 385.5 224.5 c 128,-1,21
 397 279 397 279 410.5 335.5 c 128,-1,22
 424 392 424 392 435 442 c 1,23,-1
 509 442 l 1,24,25
 496 389 496 389 482.5 331.5 c 128,-1,26
 469 274 469 274 457.5 222.5 c 128,-1,27
 446 171 446 171 439 133.5 c 128,-1,28
 432 96 432 96 432 84 c 0,29,30
 432 67 432 67 440.5 59 c 128,-1,31
 449 51 449 51 463 51 c 0,32,33
 473 51 473 51 481.5 53.5 c 128,-1,34
 490 56 490 56 499 59 c 1,35,-1
 508 1 l 1,36,37
 497 -3 497 -3 478 -7.5 c 128,-1,38
 459 -12 459 -12 439 -12 c 0,15,16
EndSplineSet
EndChar

StartChar: uni2116
Encoding: 8470 8470 579
Width: 614
GlyphClass: 1
Flags: W
LayerCount: 2
Fore
SplineSet
-38 -12 m 0,0,1
 -42 -12 -42 -12 -47 -11 c 128,-1,2
 -52 -10 -52 -10 -57 -9 c 1,3,-1
 -53 53 l 1,4,5
 -39 53 -39 53 -28 62 c 128,-1,6
 -17 71 -17 71 -13 96 c 2,7,-1
 97 653 l 1,8,-1
 182 653 l 1,9,-1
 219 260 l 1,10,-1
 234 94 l 1,11,-1
 239 94 l 1,12,13
 248 160 248 160 255 212.5 c 128,-1,14
 262 265 262 265 269 312.5 c 128,-1,15
 276 360 276 360 286 409 c 2,16,-1
 316 566 l 2,17,18
 326 616 326 616 349.5 641 c 128,-1,19
 373 666 373 666 407 666 c 0,20,21
 412 666 412 666 417 665.5 c 128,-1,22
 422 665 422 665 427 663 c 1,23,-1
 423 600 l 1,24,25
 409 600 409 600 398.5 591.5 c 128,-1,26
 388 583 388 583 383 557 c 2,27,-1
 272 0 l 1,28,-1
 187 0 l 1,29,-1
 151 393 l 1,30,-1
 135 559 l 1,31,-1
 131 559 l 1,32,33
 122 493 122 493 115 440 c 128,-1,34
 108 387 108 387 101 340 c 128,-1,35
 94 293 94 293 84 244 c 2,36,-1
 53 87 l 2,37,38
 43 37 43 37 20 12.5 c 128,-1,39
 -3 -12 -3 -12 -38 -12 c 0,0,1
504 283 m 0,40,41
 463 283 463 283 437.5 312 c 128,-1,42
 412 341 412 341 412 397 c 0,43,44
 412 457 412 457 431.5 506 c 128,-1,45
 451 555 451 555 484.5 583.5 c 128,-1,46
 518 612 518 612 560 612 c 0,47,48
 601 612 601 612 626 584 c 128,-1,49
 651 556 651 556 651 499 c 0,50,51
 651 439 651 439 631.5 389.5 c 128,-1,52
 612 340 612 340 579 311.5 c 128,-1,53
 546 283 546 283 504 283 c 0,40,41
514 335 m 0,54,55
 537 335 537 335 554.5 358 c 128,-1,56
 572 381 572 381 583 417 c 128,-1,57
 594 453 594 453 594 490 c 0,58,59
 594 524 594 524 583 542 c 128,-1,60
 572 560 572 560 549 560 c 0,61,62
 526 560 526 560 508 537 c 128,-1,63
 490 514 490 514 479.5 478.5 c 128,-1,64
 469 443 469 443 469 404 c 0,65,66
 469 370 469 370 479.5 352.5 c 128,-1,67
 490 335 490 335 514 335 c 0,54,55
391 172 m 1,68,-1
 401 225 l 1,69,-1
 578 225 l 1,70,-1
 567 172 l 1,71,-1
 391 172 l 1,68,-1
EndSplineSet
EndChar

